<?xml version="1.0" encoding="UTF-8"?>
<!--Generator: Apple Native CoreSVG 148-->
<!DOCTYPE svg
PUBLIC "-//W3C//DTD SVG 1.1//EN"
       "http://www.w3.org/Graphics/SVG/1.1/DTD/svg11.dtd">
<svg version="1.1" xmlns="http://www.w3.org/2000/svg" xmlns:xlink="http://www.w3.org/1999/xlink" width="3300" height="2200">
 <!--glyph: "uni10039E.medium", point size: 100.000000, font version: "Version 16.0d11e1", template writer version: "8"-->
 <g id="Notes">
  <rect height="2200" id="artboard" style="fill:white;opacity:1" width="3300" x="0" y="0"/>
  <line id="" style="fill:none;stroke:black;opacity:1;stroke-width:0.5;" x1="263" x2="3036" y1="292" y2="292"/>
  <text style="stroke:none;fill:black;font-family:-apple-system,&quot;SF Pro Display&quot;,&quot;SF Pro Text&quot;,Helvetica,sans-serif;font-weight:bold;" transform="matrix(1 0 0 1 263 322)">Weight/Scale Variations</text>
  <text style="stroke:none;fill:black;font-family:-apple-system,&quot;SF Pro Display&quot;,&quot;SF Pro Text&quot;,Helvetica,sans-serif;text-anchor:middle;" transform="matrix(1 0 0 1 559.711 322)">Ultralight</text>
  <text style="stroke:none;fill:black;font-family:-apple-system,&quot;SF Pro Display&quot;,&quot;SF Pro Text&quot;,Helvetica,sans-serif;text-anchor:middle;" transform="matrix(1 0 0 1 856.422 322)">Thin</text>
  <text style="stroke:none;fill:black;font-family:-apple-system,&quot;SF Pro Display&quot;,&quot;SF Pro Text&quot;,Helvetica,sans-serif;text-anchor:middle;" transform="matrix(1 0 0 1 1153.13 322)">Light</text>
  <text style="stroke:none;fill:black;font-family:-apple-system,&quot;SF Pro Display&quot;,&quot;SF Pro Text&quot;,Helvetica,sans-serif;text-anchor:middle;" transform="matrix(1 0 0 1 1449.84 322)">Regular</text>
  <text style="stroke:none;fill:black;font-family:-apple-system,&quot;SF Pro Display&quot;,&quot;SF Pro Text&quot;,Helvetica,sans-serif;text-anchor:middle;" transform="matrix(1 0 0 1 1746.56 322)">Medium</text>
  <text style="stroke:none;fill:black;font-family:-apple-system,&quot;SF Pro Display&quot;,&quot;SF Pro Text&quot;,Helvetica,sans-serif;text-anchor:middle;" transform="matrix(1 0 0 1 2043.27 322)">Semibold</text>
  <text style="stroke:none;fill:black;font-family:-apple-system,&quot;SF Pro Display&quot;,&quot;SF Pro Text&quot;,Helvetica,sans-serif;text-anchor:middle;" transform="matrix(1 0 0 1 2339.98 322)">Bold</text>
  <text style="stroke:none;fill:black;font-family:-apple-system,&quot;SF Pro Display&quot;,&quot;SF Pro Text&quot;,Helvetica,sans-serif;text-anchor:middle;" transform="matrix(1 0 0 1 2636.69 322)">Heavy</text>
  <text style="stroke:none;fill:black;font-family:-apple-system,&quot;SF Pro Display&quot;,&quot;SF Pro Text&quot;,Helvetica,sans-serif;text-anchor:middle;" transform="matrix(1 0 0 1 2933.4 322)">Black</text>
  <line id="" style="fill:none;stroke:black;opacity:1;stroke-width:0.5;" x1="263" x2="3036" y1="1903" y2="1903"/>
  <g id="" transform="matrix(1 0 0 1 263 1933)">
   <path d="M 9.24805 0.830078 C 13.5547 0.830078 17.1387 -2.74414 17.1387 -7.05078 C 17.1387 -11.3574 13.5449 -14.9316 9.23828 -14.9316 C 4.94141 -14.9316 1.36719 -11.3574 1.36719 -7.05078 C 1.36719 -2.74414 4.95117 0.830078 9.24805 0.830078 Z M 9.24805 -0.654297 C 5.70312 -0.654297 2.87109 -3.49609 2.87109 -7.05078 C 2.87109 -10.6055 5.69336 -13.4473 9.23828 -13.4473 C 12.793 -13.4473 15.6348 -10.6055 15.6445 -7.05078 C 15.6543 -3.49609 12.8027 -0.654297 9.24805 -0.654297 Z M 9.22852 -3.62305 C 9.69727 -3.62305 9.9707 -3.93555 9.9707 -4.45312 L 9.9707 -6.31836 L 12.002 -6.31836 C 12.5 -6.31836 12.832 -6.57227 12.832 -7.04102 C 12.832 -7.51953 12.5195 -7.7832 12.002 -7.7832 L 9.9707 -7.7832 L 9.9707 -9.81445 C 9.9707 -10.332 9.69727 -10.6543 9.22852 -10.6543 C 8.75977 -10.6543 8.50586 -10.3125 8.50586 -9.81445 L 8.50586 -7.7832 L 6.49414 -7.7832 C 5.97656 -7.7832 5.64453 -7.51953 5.64453 -7.04102 C 5.64453 -6.57227 5.99609 -6.31836 6.49414 -6.31836 L 8.50586 -6.31836 L 8.50586 -4.45312 C 8.50586 -3.95508 8.75977 -3.62305 9.22852 -3.62305 Z"/>
  </g>
  <g id="" transform="matrix(1 0 0 1 281.506 1933)">
   <path d="M 11.709 2.91016 C 17.1582 2.91016 21.6699 -1.61133 21.6699 -7.05078 C 21.6699 -12.5 17.1484 -17.0117 11.6992 -17.0117 C 6.25977 -17.0117 1.74805 -12.5 1.74805 -7.05078 C 1.74805 -1.61133 6.26953 2.91016 11.709 2.91016 Z M 11.709 1.25 C 7.09961 1.25 3.41797 -2.44141 3.41797 -7.05078 C 3.41797 -11.6602 7.08984 -15.3516 11.6992 -15.3516 C 16.3086 -15.3516 20 -11.6602 20.0098 -7.05078 C 20.0195 -2.44141 16.3184 1.25 11.709 1.25 Z M 11.6797 -2.66602 C 12.207 -2.66602 12.5098 -3.01758 12.5098 -3.59375 L 12.5098 -6.23047 L 15.3223 -6.23047 C 15.8691 -6.23047 16.25 -6.51367 16.25 -7.03125 C 16.25 -7.55859 15.8887 -7.86133 15.3223 -7.86133 L 12.5098 -7.86133 L 12.5098 -10.6836 C 12.5098 -11.25 12.207 -11.6113 11.6797 -11.6113 C 11.1621 -11.6113 10.8789 -11.2305 10.8789 -10.6836 L 10.8789 -7.86133 L 8.07617 -7.86133 C 7.50977 -7.86133 7.13867 -7.55859 7.13867 -7.03125 C 7.13867 -6.51367 7.5293 -6.23047 8.07617 -6.23047 L 10.8789 -6.23047 L 10.8789 -3.59375 C 10.8789 -3.03711 11.1621 -2.66602 11.6797 -2.66602 Z"/>
  </g>
  <g id="" transform="matrix(1 0 0 1 304.924 1933)">
   <path d="M 14.9707 5.66406 C 21.9336 5.66406 27.6953 -0.0976562 27.6953 -7.05078 C 27.6953 -14.0137 21.9238 -19.7754 14.9609 -19.7754 C 8.00781 -19.7754 2.25586 -14.0137 2.25586 -7.05078 C 2.25586 -0.0976562 8.01758 5.66406 14.9707 5.66406 Z M 14.9707 3.84766 C 8.93555 3.84766 4.08203 -1.01562 4.08203 -7.05078 C 4.08203 -13.0957 8.92578 -17.9492 14.9609 -17.9492 C 21.0059 -17.9492 25.8594 -13.0957 25.8691 -7.05078 C 25.8789 -1.01562 21.0156 3.84766 14.9707 3.84766 Z M 14.9414 -1.38672 C 15.5176 -1.38672 15.8594 -1.77734 15.8594 -2.38281 L 15.8594 -6.13281 L 19.7754 -6.13281 C 20.3711 -6.13281 20.7812 -6.46484 20.7812 -7.02148 C 20.7812 -7.59766 20.3906 -7.93945 19.7754 -7.93945 L 15.8594 -7.93945 L 15.8594 -11.8652 C 15.8594 -12.4805 15.5176 -12.8711 14.9414 -12.8711 C 14.375 -12.8711 14.0527 -12.4609 14.0527 -11.8652 L 14.0527 -7.93945 L 10.1465 -7.93945 C 9.53125 -7.93945 9.13086 -7.59766 9.13086 -7.02148 C 9.13086 -6.46484 9.55078 -6.13281 10.1465 -6.13281 L 14.0527 -6.13281 L 14.0527 -2.38281 C 14.0527 -1.79688 14.375 -1.38672 14.9414 -1.38672 Z"/>
  </g>
  <text style="stroke:none;fill:black;font-family:-apple-system,&quot;SF Pro Display&quot;,&quot;SF Pro Text&quot;,Helvetica,sans-serif;font-weight:bold;" transform="matrix(1 0 0 1 263 1953)">Design Variations</text>
  <text style="stroke:none;fill:black;font-family:-apple-system,&quot;SF Pro Display&quot;,&quot;SF Pro Text&quot;,Helvetica,sans-serif;" transform="matrix(1 0 0 1 263 1971)">Symbols are supported in up to nine weights and three scales.</text>
  <text style="stroke:none;fill:black;font-family:-apple-system,&quot;SF Pro Display&quot;,&quot;SF Pro Text&quot;,Helvetica,sans-serif;" transform="matrix(1 0 0 1 263 1989)">For optimal layout with text and other symbols, vertically align</text>
  <text style="stroke:none;fill:black;font-family:-apple-system,&quot;SF Pro Display&quot;,&quot;SF Pro Text&quot;,Helvetica,sans-serif;" transform="matrix(1 0 0 1 263 2007)">symbols with the adjacent text.</text>
  <line id="" style="fill:none;stroke:#00AEEF;stroke-width:0.5;opacity:1.0;" x1="776" x2="776" y1="1919" y2="1933"/>
  <g id="" transform="matrix(1 0 0 1 776 1933)">
   <path d="M 3.31055 0.126953 C 3.82812 0.126953 4.08203 -0.0683594 4.26758 -0.605469 L 5.52734 -4.0625 L 11.2891 -4.0625 L 12.5488 -0.605469 C 12.7344 -0.0683594 12.9883 0.126953 13.4961 0.126953 C 14.0137 0.126953 14.3457 -0.185547 14.3457 -0.673828 C 14.3457 -0.839844 14.3164 -0.986328 14.2383 -1.20117 L 9.6582 -13.3887 C 9.43359 -13.9941 9.0332 -14.2871 8.4082 -14.2871 C 7.80273 -14.2871 7.39258 -13.9941 7.17773 -13.3984 L 2.59766 -1.19141 C 2.51953 -0.976562 2.49023 -0.830078 2.49023 -0.664062 C 2.49023 -0.175781 2.80273 0.126953 3.31055 0.126953 Z M 6.00586 -5.53711 L 8.37891 -12.1094 L 8.42773 -12.1094 L 10.8008 -5.53711 Z"/>
  </g>
  <line id="" style="fill:none;stroke:#00AEEF;stroke-width:0.5;opacity:1.0;" x1="792.836" x2="792.836" y1="1919" y2="1933"/>
  <text style="stroke:none;fill:black;font-family:-apple-system,&quot;SF Pro Display&quot;,&quot;SF Pro Text&quot;,Helvetica,sans-serif;font-weight:bold;" transform="matrix(1 0 0 1 776 1953)">Margins</text>
  <text style="stroke:none;fill:black;font-family:-apple-system,&quot;SF Pro Display&quot;,&quot;SF Pro Text&quot;,Helvetica,sans-serif;" transform="matrix(1 0 0 1 776 1971)">Leading and trailing margins on the left and right side of each symbol</text>
  <text style="stroke:none;fill:black;font-family:-apple-system,&quot;SF Pro Display&quot;,&quot;SF Pro Text&quot;,Helvetica,sans-serif;" transform="matrix(1 0 0 1 776 1989)">can be adjusted by modifying the x-location of the margin guidelines.</text>
  <text style="stroke:none;fill:black;font-family:-apple-system,&quot;SF Pro Display&quot;,&quot;SF Pro Text&quot;,Helvetica,sans-serif;" transform="matrix(1 0 0 1 776 2007)">Modifications are automatically applied proportionally to all</text>
  <text style="stroke:none;fill:black;font-family:-apple-system,&quot;SF Pro Display&quot;,&quot;SF Pro Text&quot;,Helvetica,sans-serif;" transform="matrix(1 0 0 1 776 2025)">scales and weights.</text>
  <g id="" transform="matrix(1 0 0 1 1289 1933)">
   <path d="M 2.8418 1.86523 L 4.54102 3.57422 C 5.40039 4.44336 6.38672 4.38477 7.31445 3.35938 L 17.4902 -7.85156 C 17.7539 -7.76367 18.0273 -7.7832 18.3398 -7.8418 L 19.4043 -8.03711 L 20.0684 -7.36328 L 20.0293 -6.80664 C 19.9902 -6.30859 20.1172 -5.92773 20.6055 -5.44922 L 21.3672 -4.70703 C 21.8457 -4.22852 22.4609 -4.19922 22.9297 -4.66797 L 25.8398 -7.58789 C 26.3086 -8.05664 26.2891 -8.65234 25.8105 -9.13086 L 25.0391 -9.89258 C 24.5605 -10.3711 24.1895 -10.5273 23.7109 -10.4883 L 23.1348 -10.4395 L 22.4902 -11.0742 L 22.7344 -12.1973 C 22.8613 -12.7637 22.7051 -13.2031 22.1191 -13.7891 L 19.9219 -15.9766 C 16.582 -19.2969 12.1484 -19.2188 9.25781 -16.3281 C 8.83789 -15.918 8.80859 -15.3418 9.04297 -14.9512 C 9.27734 -14.5898 9.73633 -14.3555 10.3809 -14.5215 C 11.8457 -14.8633 13.3691 -14.9219 14.7949 -13.9844 L 14.209 -12.5293 C 14.0137 -12.0508 13.9844 -11.6504 14.1113 -11.2891 L 3.04688 -0.898438 C 2.06055 0.0195312 1.98242 0.996094 2.8418 1.86523 Z M 10.752 -15.957 C 13.1836 -17.7344 16.4746 -17.4316 18.7012 -15.2051 L 21.1328 -12.793 C 21.3672 -12.5586 21.4062 -12.373 21.3379 -12.0312 L 21.0156 -10.5469 L 22.5195 -9.0625 L 23.5059 -9.12109 C 23.7598 -9.13086 23.8379 -9.11133 24.0332 -8.91602 L 24.6094 -8.33984 L 22.168 -5.89844 L 21.5918 -6.47461 C 21.3965 -6.66992 21.3672 -6.74805 21.377 -7.01172 L 21.4453 -7.98828 L 19.9512 -9.47266 L 18.4277 -9.21875 C 18.1055 -9.15039 17.959 -9.17969 17.7148 -9.41406 L 15.7129 -11.416 C 15.459 -11.6504 15.4297 -11.8164 15.5859 -12.1875 L 16.4648 -14.2773 C 14.9023 -15.7324 12.8711 -16.3574 10.8398 -15.7617 C 10.6836 -15.7227 10.625 -15.8496 10.752 -15.957 Z M 5.27344 2.30469 L 4.10156 1.14258 C 3.63281 0.683594 3.74023 0.341797 4.14062 -0.0195312 L 14.9512 -10.1953 L 16.416 -8.71094 L 6.42578 2.27539 C 6.07422 2.67578 5.74219 2.77344 5.27344 2.30469 Z"/>
  </g>
  <text style="stroke:none;fill:black;font-family:-apple-system,&quot;SF Pro Display&quot;,&quot;SF Pro Text&quot;,Helvetica,sans-serif;font-weight:bold;" transform="matrix(1 0 0 1 1289 1953)">Exporting</text>
  <text style="stroke:none;fill:black;font-family:-apple-system,&quot;SF Pro Display&quot;,&quot;SF Pro Text&quot;,Helvetica,sans-serif;" transform="matrix(1 0 0 1 1289 1971)">Symbols should be outlined when exporting to ensure the</text>
  <text style="stroke:none;fill:black;font-family:-apple-system,&quot;SF Pro Display&quot;,&quot;SF Pro Text&quot;,Helvetica,sans-serif;" transform="matrix(1 0 0 1 1289 1989)">design is preserved when submitting to Xcode.</text>
  <text id="template-version" style="stroke:none;fill:black;font-family:-apple-system,&quot;SF Pro Display&quot;,&quot;SF Pro Text&quot;,Helvetica,sans-serif;text-anchor:end;" transform="matrix(1 0 0 1 3036 1933)">Template v.2.0</text>
  <text style="stroke:none;fill:black;font-family:-apple-system,&quot;SF Pro Display&quot;,&quot;SF Pro Text&quot;,Helvetica,sans-serif;text-anchor:end;" transform="matrix(1 0 0 1 3036 1951)">Requires Xcode 12 or greater</text>
  <text style="stroke:none;fill:black;font-family:-apple-system,&quot;SF Pro Display&quot;,&quot;SF Pro Text&quot;,Helvetica,sans-serif;text-anchor:end;" transform="matrix(1 0 0 1 3036 1969)">Generated from house</text>
  <text style="stroke:none;fill:black;font-family:-apple-system,&quot;SF Pro Display&quot;,&quot;SF Pro Text&quot;,Helvetica,sans-serif;text-anchor:end;" transform="matrix(1 0 0 1 3036 1987)">Typeset at 100 points</text>
  <text style="stroke:none;fill:black;font-family:-apple-system,&quot;SF Pro Display&quot;,&quot;SF Pro Text&quot;,Helvetica,sans-serif;" transform="matrix(1 0 0 1 263 726)">Small</text>
  <text style="stroke:none;fill:black;font-family:-apple-system,&quot;SF Pro Display&quot;,&quot;SF Pro Text&quot;,Helvetica,sans-serif;" transform="matrix(1 0 0 1 263 1156)">Medium</text>
  <text style="stroke:none;fill:black;font-family:-apple-system,&quot;SF Pro Display&quot;,&quot;SF Pro Text&quot;,Helvetica,sans-serif;" transform="matrix(1 0 0 1 263 1586)">Large</text>
 </g>
 <g id="Guides">
  <g id="H-reference" style="fill:#27AAE1;stroke:none;" transform="matrix(1 0 0 1 339 696)">
   <path d="M 0.976562 0 L 3.66211 0 L 12.9883 -24.4629 L 45.7031 -24.4629 L 55.0781 0 L 57.7148 0 L 30.6152 -70.459 L 28.125 -70.459 Z M 29.2969 -67.1387 L 29.3945 -67.1387 L 44.873 -26.709 L 13.8672 -26.709 Z"/>
  </g>
  <line id="Baseline-S" style="fill:none;stroke:#27AAE1;opacity:1;stroke-width:0.5;" x1="263" x2="3036" y1="696" y2="696"/>
  <line id="Capline-S" style="fill:none;stroke:#27AAE1;opacity:1;stroke-width:0.5;" x1="263" x2="3036" y1="625.541" y2="625.541"/>
  <g id="H-reference" style="fill:#27AAE1;stroke:none;" transform="matrix(1 0 0 1 339 1126)">
   <path d="M 0.976562 0 L 3.66211 0 L 12.9883 -24.4629 L 45.7031 -24.4629 L 55.0781 0 L 57.7148 0 L 30.6152 -70.459 L 28.125 -70.459 Z M 29.2969 -67.1387 L 29.3945 -67.1387 L 44.873 -26.709 L 13.8672 -26.709 Z"/>
  </g>
  <line id="Baseline-M" style="fill:none;stroke:#27AAE1;opacity:1;stroke-width:0.5;" x1="263" x2="3036" y1="1126" y2="1126"/>
  <line id="Capline-M" style="fill:none;stroke:#27AAE1;opacity:1;stroke-width:0.5;" x1="263" x2="3036" y1="1055.54" y2="1055.54"/>
  <g id="H-reference" style="fill:#27AAE1;stroke:none;" transform="matrix(1 0 0 1 339 1556)">
   <path d="M 0.976562 0 L 3.66211 0 L 12.9883 -24.4629 L 45.7031 -24.4629 L 55.0781 0 L 57.7148 0 L 30.6152 -70.459 L 28.125 -70.459 Z M 29.2969 -67.1387 L 29.3945 -67.1387 L 44.873 -26.709 L 13.8672 -26.709 Z"/>
  </g>
  <line id="Baseline-L" style="fill:none;stroke:#27AAE1;opacity:1;stroke-width:0.5;" x1="263" x2="3036" y1="1556" y2="1556"/>
  <line id="Capline-L" style="fill:none;stroke:#27AAE1;opacity:1;stroke-width:0.5;" x1="263" x2="3036" y1="1485.54" y2="1485.54"/>
  <line id="left-margin" style="fill:none;stroke:#00AEEF;stroke-width:0.5;opacity:1.0;" x1="1379.12" x2="1379.12" y1="1030.79" y2="1150.12"/>
  <line id="right-margin" style="fill:none;stroke:#00AEEF;stroke-width:0.5;opacity:1.0;" x1="1520.57" x2="1520.57" y1="1030.79" y2="1150.12"/>
 </g>
 <g id="Symbols">
  <g id="Black-L" transform="matrix(1 0 0 1 2834.28 1556)">
   <path d="M 16.0645 -37.207 C 16.0645 -31.5918 20.0684 -27.5879 26.2207 -27.5879 C 28.8574 -27.5879 31.6895 -28.8574 34.0332 -30.8594 L 37.7441 -33.9844 L 37.7441 19.4824 C 37.7441 30.4688 44.7266 37.4023 56.3965 37.4023 L 141.699 37.4023 C 153.369 37.4023 160.352 30.4688 160.352 19.4824 L 160.352 -34.1309 L 164.258 -30.8594 C 166.602 -28.8574 169.385 -27.5879 172.07 -27.5879 C 178.076 -27.5879 182.178 -31.3477 182.178 -37.1582 C 182.178 -40.1367 180.713 -43.2129 178.125 -45.3613 L 160.352 -60.3027 L 160.352 -89.4531 C 160.352 -92.627 158.301 -94.6289 155.176 -94.6289 L 140.625 -94.6289 C 137.451 -94.6289 135.352 -92.627 135.352 -89.4531 L 135.352 -81.25 L 112.402 -100.586 C 104.443 -107.227 93.9453 -107.227 86.0352 -100.586 L 20.166 -45.3125 C 17.5293 -43.0664 16.0645 -40.0391 16.0645 -37.207 Z M 117.139 -21.0449 C 117.139 -24.1699 115.137 -26.1719 112.012 -26.1719 L 86.3281 -26.1719 C 83.2031 -26.1719 81.1035 -24.1699 81.1035 -21.0449 L 81.1035 17.1387 L 63.5254 17.1387 C 60.0098 17.1387 58.0078 15.0879 58.0078 11.5723 L 58.0078 -50.9277 L 95.0195 -81.9824 C 97.7051 -84.2773 100.635 -84.2285 103.369 -81.9824 L 140.088 -51.123 L 140.088 11.5723 C 140.088 15.0879 138.037 17.1387 134.57 17.1387 L 117.139 17.1387 Z"/>
  </g>
  <g id="Heavy-L" transform="matrix(1 0 0 1 2539.79 1556)">
   <path d="M 16.0645 -37.7441 C 16.0645 -32.9102 19.5312 -29.3945 24.9023 -29.3945 C 27.2949 -29.3945 29.7363 -30.5664 31.7871 -32.2754 L 36.7676 -36.4746 L 36.7676 18.9453 C 36.7676 29.3457 43.2617 35.791 54.1504 35.791 L 139.404 35.791 C 150.342 35.791 156.836 29.3457 156.836 18.9453 L 156.836 -36.6699 L 162.061 -32.2754 C 164.111 -30.5664 166.504 -29.3945 168.896 -29.3945 C 174.121 -29.3945 177.734 -32.6172 177.734 -37.6465 C 177.734 -40.332 176.465 -42.9199 174.219 -44.8242 L 156.836 -59.4238 L 156.836 -87.8906 C 156.836 -90.8691 154.932 -92.7734 151.953 -92.7734 L 139.355 -92.7734 C 136.377 -92.7734 134.375 -90.8691 134.375 -87.8906 L 134.375 -78.2715 L 108.691 -99.8535 C 101.611 -105.811 92.334 -105.811 85.2051 -99.8535 L 19.5801 -44.7754 C 17.334 -42.8223 16.0645 -40.2344 16.0645 -37.7441 Z M 114.893 -21.0938 C 114.893 -24.1211 112.939 -26.0742 109.912 -26.0742 L 83.9844 -26.0742 C 80.957 -26.0742 78.9062 -24.1211 78.9062 -21.0938 L 78.9062 18.2617 L 60.0586 18.2617 C 56.3477 18.2617 54.248 16.1621 54.248 12.4023 L 54.248 -51.123 L 93.2129 -83.7891 C 95.6055 -85.8398 98.291 -85.8398 100.732 -83.7891 L 139.307 -51.3672 L 139.307 12.4023 C 139.307 16.1621 137.256 18.2617 133.545 18.2617 L 114.893 18.2617 Z"/>
  </g>
  <g id="Bold-L" transform="matrix(1 0 0 1 2245.59 1556)">
   <path d="M 16.0645 -38.3301 C 16.0645 -34.4238 18.9453 -31.3965 23.4375 -31.3965 C 25.5371 -31.3965 27.5391 -32.4707 29.248 -33.8867 L 35.6445 -39.2578 L 35.6445 18.3594 C 35.6445 28.125 41.5527 33.9355 51.709 33.9355 L 136.865 33.9355 C 146.973 33.9355 152.93 28.0762 152.93 18.3594 L 152.93 -39.502 L 159.57 -33.8867 C 161.279 -32.4707 163.281 -31.3965 165.381 -31.3965 C 169.629 -31.3965 172.705 -34.082 172.705 -38.2324 C 172.705 -40.5762 171.729 -42.627 169.824 -44.1895 L 152.93 -58.4473 L 152.93 -86.084 C 152.93 -88.8672 151.123 -90.6738 148.34 -90.6738 L 137.939 -90.6738 C 135.156 -90.6738 133.252 -88.8672 133.252 -86.084 L 133.252 -74.9512 L 104.59 -99.0234 C 98.4375 -104.248 90.5273 -104.248 84.3262 -99.0234 L 18.9941 -44.1895 C 17.0898 -42.5781 16.0645 -40.4297 16.0645 -38.3301 Z M 112.402 -21.1426 C 112.402 -24.1211 110.498 -25.9766 107.568 -25.9766 L 81.2988 -25.9766 C 78.3691 -25.9766 76.416 -24.1211 76.416 -21.1426 L 76.416 19.5312 L 56.1523 19.5312 C 52.2461 19.5312 50.0977 17.334 50.0977 13.3789 L 50.0977 -51.3672 L 91.1621 -85.8398 C 93.2617 -87.6465 95.6055 -87.6465 97.7539 -85.8398 L 138.477 -51.6113 L 138.477 13.3789 C 138.477 17.334 136.328 19.5312 132.373 19.5312 L 112.402 19.5312 Z"/>
  </g>
  <g id="Semibold-L" transform="matrix(1 0 0 1 1950.59 1556)">
   <path d="M 16.0645 -38.7695 C 16.0645 -35.498 18.5059 -32.8125 22.4609 -32.8125 C 24.3164 -32.8125 26.0254 -33.7402 27.4902 -35.0098 L 34.8633 -41.2109 L 34.8633 17.9688 C 34.8633 27.2461 40.4297 32.7148 50 32.7148 L 135.107 32.7148 C 144.678 32.7148 150.195 27.2461 150.195 17.9688 L 150.195 -41.4551 L 157.861 -35.0098 C 159.375 -33.7402 161.084 -32.8125 162.939 -32.8125 C 166.602 -32.8125 169.287 -35.0586 169.287 -38.623 C 169.287 -40.7227 168.457 -42.4316 166.797 -43.7988 L 150.195 -57.7637 L 150.195 -84.8633 C 150.195 -87.5 148.486 -89.209 145.85 -89.209 L 136.963 -89.209 C 134.326 -89.209 132.52 -87.5 132.52 -84.8633 L 132.52 -72.6074 L 101.758 -98.4863 C 96.2402 -103.125 89.3066 -103.125 83.7402 -98.4863 L 18.5547 -43.7988 C 16.8945 -42.3828 16.0645 -40.5273 16.0645 -38.7695 Z M 110.645 -21.1914 C 110.645 -24.0723 108.838 -25.9277 105.957 -25.9277 L 79.4922 -25.9277 C 76.6113 -25.9277 74.707 -24.0723 74.707 -21.1914 L 74.707 20.3613 L 53.5156 20.3613 C 49.4141 20.3613 47.2168 18.1641 47.2168 14.0137 L 47.2168 -51.5625 L 89.7949 -87.2559 C 91.6504 -88.8672 93.75 -88.916 95.7031 -87.2559 L 137.891 -51.8066 L 137.891 14.0137 C 137.891 18.1641 135.693 20.3613 131.592 20.3613 L 110.645 20.3613 Z"/>
  </g>
  <g id="Medium-L" transform="matrix(1 0 0 1 1655.2 1556)">
   <path d="M 16.0645 -39.0625 C 16.0645 -36.2793 18.2129 -33.8379 21.6797 -33.8379 C 23.3887 -33.8379 24.8535 -34.7168 26.1719 -35.8398 L 34.2773 -42.6758 L 34.2773 17.6758 C 34.2773 26.6113 39.5508 31.7871 48.6816 31.7871 L 133.789 31.7871 C 142.92 31.7871 148.193 26.5625 148.193 17.6758 L 148.193 -42.9199 L 156.592 -35.8398 C 157.91 -34.7168 159.375 -33.8379 161.084 -33.8379 C 164.258 -33.8379 166.65 -35.8398 166.65 -38.9648 C 166.65 -40.8203 165.967 -42.2852 164.502 -43.5059 L 148.193 -57.2266 L 148.193 -83.9355 C 148.193 -86.4746 146.484 -88.1348 143.945 -88.1348 L 136.23 -88.1348 C 133.643 -88.1348 131.934 -86.4746 131.934 -83.9355 L 131.934 -70.8984 L 99.6094 -98.0469 C 94.5801 -102.295 88.3301 -102.295 83.252 -98.0469 L 18.2617 -43.457 C 16.748 -42.2363 16.0645 -40.625 16.0645 -39.0625 Z M 109.326 -21.2402 C 109.326 -24.0234 107.52 -25.8301 104.736 -25.8301 L 78.0762 -25.8301 C 75.293 -25.8301 73.4375 -24.0234 73.4375 -21.2402 L 73.4375 21.0449 L 51.4648 21.0449 C 47.2656 21.0449 45.0195 18.7988 45.0195 14.502 L 45.0195 -51.6602 L 88.7207 -88.2812 C 90.4297 -89.7949 92.3828 -89.8438 94.1895 -88.2812 L 137.451 -51.9531 L 137.451 14.502 C 137.451 18.7988 135.205 21.0449 131.006 21.0449 L 109.326 21.0449 Z"/>
  </g>
  <g id="Regular-L" transform="matrix(1 0 0 1 1360.2 1556)">
   <path d="M 16.0645 -39.502 C 16.0645 -37.3047 17.7734 -35.2051 20.7031 -35.2051 C 22.168 -35.2051 23.3887 -36.0352 24.4629 -36.9629 L 33.5449 -44.5801 L 33.5449 17.2363 C 33.5449 25.7324 38.4277 30.5176 47.0215 30.5176 L 132.031 30.5176 C 140.625 30.5176 145.508 25.7324 145.508 17.2363 L 145.508 -44.8242 L 154.883 -36.9629 C 156.006 -36.0352 157.178 -35.2051 158.691 -35.2051 C 161.23 -35.2051 163.232 -36.8164 163.232 -39.3555 C 163.232 -40.9668 162.695 -42.041 161.523 -43.0664 L 145.508 -56.543 L 145.508 -82.7148 C 145.508 -85.1562 143.896 -86.7188 141.455 -86.7188 L 135.254 -86.7188 C 132.812 -86.7188 131.152 -85.1562 131.152 -82.7148 L 131.152 -68.6035 L 96.8262 -97.4609 C 92.4316 -101.221 87.1094 -101.221 82.666 -97.4609 L 17.8223 -43.0664 C 16.6016 -42.041 16.0645 -40.7715 16.0645 -39.502 Z M 107.617 -21.2891 C 107.617 -24.0234 105.859 -25.7812 103.125 -25.7812 L 76.2695 -25.7812 C 73.5352 -25.7812 71.7285 -24.0234 71.7285 -21.2891 L 71.7285 21.875 L 48.8281 21.875 C 44.4336 21.875 42.1875 19.5801 42.1875 15.1367 L 42.1875 -51.8066 L 87.3535 -89.6973 C 88.8184 -91.0156 90.5273 -91.0645 92.1387 -89.6973 L 136.865 -52.0996 L 136.865 15.1367 C 136.865 19.5801 134.619 21.875 130.176 21.875 L 107.617 21.875 Z"/>
  </g>
  <g id="Light-L" transform="matrix(1 0 0 1 1065.68 1556)">
   <path d="M 16.0645 -40.4785 C 16.0645 -38.8184 17.3828 -37.2559 19.5801 -37.2559 C 20.7031 -37.2559 21.5332 -37.8418 22.3633 -38.5254 L 32.6172 -47.0703 L 32.6172 17.0898 C 32.6172 25.0488 37.0605 29.4434 45.1172 29.4434 L 129.785 29.4434 C 137.842 29.4434 142.285 25 142.285 17.0898 L 142.285 -47.168 L 152.588 -38.5254 C 153.418 -37.8418 154.248 -37.2559 155.371 -37.2559 C 157.324 -37.2559 158.838 -38.4766 158.838 -40.3809 C 158.838 -41.6504 158.447 -42.4805 157.422 -43.3105 L 142.285 -56.1035 L 142.285 -82.3242 C 142.285 -84.375 140.918 -85.6934 138.916 -85.6934 L 133.398 -85.6934 C 131.396 -85.6934 129.98 -84.375 129.98 -82.3242 L 129.98 -66.4062 L 93.9453 -96.7285 C 89.9902 -100.146 85.2539 -100.146 81.2012 -96.7285 L 17.5293 -43.3105 C 16.5039 -42.4805 16.0645 -41.5039 16.0645 -40.4785 Z M 105.127 -21.6797 C 105.127 -24.1699 103.516 -25.7812 101.025 -25.7812 L 73.9746 -25.7812 C 71.4844 -25.7812 69.8242 -24.1699 69.8242 -21.6797 L 69.8242 22.8027 L 46.4844 22.8027 C 41.5527 22.8027 39.209 20.459 39.209 15.4785 L 39.209 -52.6367 L 84.9609 -91.0156 C 86.5723 -92.4316 88.3301 -92.627 90.1855 -91.0156 L 135.645 -52.7832 L 135.645 15.4785 C 135.645 20.459 133.301 22.8027 128.369 22.8027 L 105.127 22.8027 Z"/>
  </g>
  <g id="Thin-L" transform="matrix(1 0 0 1 771.876 1556)">
   <path d="M 16.0645 -41.748 C 16.0645 -40.7715 16.8457 -39.9414 18.0664 -39.9414 C 18.75 -39.9414 19.1406 -40.1855 19.6289 -40.5762 L 31.3477 -50.4395 L 31.3477 16.8457 C 31.3477 24.1699 35.2051 27.9785 42.5293 27.9785 L 126.807 27.9785 C 134.131 27.9785 137.988 24.0723 137.988 16.8457 L 137.988 -50.293 L 149.512 -40.5762 C 150 -40.1855 150.342 -39.9414 151.025 -39.9414 C 152.197 -39.9414 153.027 -40.7227 153.027 -41.748 C 153.027 -42.5293 152.734 -43.0176 152.051 -43.6523 L 137.988 -55.4688 L 137.988 -81.8848 C 137.988 -83.3984 136.963 -84.375 135.498 -84.375 L 130.908 -84.375 C 129.492 -84.375 128.418 -83.3984 128.418 -81.8848 L 128.418 -63.5254 L 90.1855 -95.752 C 86.7188 -98.7793 82.8125 -98.7793 79.248 -95.752 L 17.0898 -43.6523 C 16.3574 -43.0176 16.0645 -42.4805 16.0645 -41.748 Z M 101.807 -22.168 C 101.807 -24.3652 100.391 -25.7812 98.1934 -25.7812 L 70.8984 -25.7812 C 68.75 -25.7812 67.334 -24.3652 67.334 -22.168 L 67.334 24.0723 L 43.3594 24.0723 C 37.7441 24.0723 35.3027 21.582 35.3027 15.9668 L 35.3027 -53.7598 L 81.7871 -92.7734 C 83.5938 -94.3359 85.4492 -94.6289 87.5977 -92.7734 L 134.082 -53.6133 L 134.082 15.9668 C 134.082 21.582 131.592 24.0723 125.977 24.0723 L 101.807 24.0723 Z"/>
  </g>
  <g id="Ultralight-L" transform="matrix(1 0 0 1 476.654 1556)">
   <path d="M 16.0645 -42.4316 C 16.0645 -41.7969 16.5527 -41.3086 17.2852 -41.3086 C 17.7734 -41.3086 17.8711 -41.4062 18.2129 -41.6504 L 30.7129 -52.1484 L 30.7129 16.6992 C 30.7129 23.6816 34.2773 27.2461 41.2598 27.2461 L 125.244 27.2461 C 132.227 27.2461 135.791 23.6328 135.791 16.6992 L 135.791 -51.9043 L 147.9 -41.6504 C 148.242 -41.4062 148.34 -41.3086 148.828 -41.3086 C 149.561 -41.3086 150.049 -41.8457 150.049 -42.4316 C 150.049 -42.9688 149.854 -43.2617 149.268 -43.7988 L 135.791 -55.1758 L 135.791 -81.6406 C 135.791 -82.8613 134.912 -83.6914 133.74 -83.6914 L 129.639 -83.6914 C 128.516 -83.6914 127.637 -82.8613 127.637 -81.6406 L 127.637 -62.0605 L 88.2324 -95.2637 C 85.0586 -98.0469 81.543 -98.0469 78.2227 -95.2637 L 16.8457 -43.7988 C 16.2598 -43.2617 16.0645 -42.9688 16.0645 -42.4316 Z M 100.098 -22.4609 C 100.098 -24.4629 98.7793 -25.7812 96.7773 -25.7812 L 69.3359 -25.7812 C 67.334 -25.7812 66.0156 -24.4629 66.0156 -22.4609 L 66.0156 24.707 L 41.748 24.707 C 35.791 24.707 33.252 22.2168 33.252 16.2598 L 33.252 -54.2969 L 80.1758 -93.7012 C 82.0801 -95.3125 83.9355 -95.7031 86.2793 -93.7012 L 133.252 -54.0527 L 133.252 16.2598 C 133.252 22.2168 130.713 24.707 124.756 24.707 L 100.098 24.707 Z"/>
  </g>
  <g id="Black-M" transform="matrix(1 0 0 1 2854.74 1126)">
   <path d="M 12.4512 -36.5723 C 12.4512 -31.3965 16.0645 -27.9785 21.4355 -27.9785 C 23.7305 -27.9785 26.2207 -29.0039 28.3203 -30.7617 L 30.0781 -32.2266 L 30.0781 7.8125 C 30.0781 16.7969 35.9375 22.6562 45.6543 22.6562 L 111.719 22.6562 C 121.436 22.6562 127.246 16.7969 127.246 7.8125 L 127.246 -32.2266 L 129.004 -30.7617 C 131.104 -29.0039 133.594 -27.9785 135.889 -27.9785 C 141.309 -27.9785 144.873 -31.3965 144.873 -36.5723 C 144.873 -39.1113 143.506 -41.9922 141.162 -43.9453 L 127.246 -55.6152 L 127.246 -79.248 C 127.246 -81.6895 125.684 -83.2031 123.242 -83.2031 L 109.668 -83.2031 C 107.227 -83.2031 105.615 -81.6895 105.615 -79.248 L 105.615 -73.7793 L 90.5273 -86.4746 C 83.4473 -92.3828 74.0234 -92.3828 66.9434 -86.4746 L 16.1621 -43.8477 C 13.8184 -41.8457 12.4512 -39.1602 12.4512 -36.5723 Z M 92.4805 -24.3652 C 92.4805 -26.8066 90.918 -28.3691 88.4766 -28.3691 L 68.8965 -28.3691 C 66.4551 -28.3691 64.8438 -26.8066 64.8438 -24.3652 L 64.8438 4.3457 L 52.6367 4.3457 C 49.9512 4.3457 48.3887 2.7832 48.3887 0.146484 L 48.3887 -47.5586 L 74.8047 -69.7266 C 77.3438 -71.875 80.0293 -71.875 82.666 -69.7266 L 108.984 -47.6074 L 108.984 0.146484 C 108.984 2.7832 107.422 4.3457 104.736 4.3457 L 92.4805 4.3457 Z"/>
  </g>
  <g id="Heavy-M" transform="matrix(1 0 0 1 2559.91 1126)">
   <path d="M 12.4512 -36.8652 C 12.4512 -32.4707 15.5762 -29.4434 20.3125 -29.4434 C 22.3633 -29.4434 24.5605 -30.3711 26.3672 -31.8848 L 29.248 -34.3262 L 29.248 7.27539 C 29.248 15.7715 34.668 21.1426 43.75 21.1426 L 109.766 21.1426 C 118.848 21.1426 124.268 15.7715 124.268 7.27539 L 124.268 -34.375 L 127.197 -31.8848 C 129.053 -30.3711 131.201 -29.4434 133.252 -29.4434 C 137.939 -29.4434 141.113 -32.373 141.113 -36.8652 C 141.113 -39.1602 139.941 -41.6016 137.939 -43.2617 L 124.268 -54.7852 L 124.268 -77.5879 C 124.268 -79.9316 122.754 -81.4453 120.41 -81.4453 L 108.789 -81.4453 C 106.396 -81.4453 104.834 -79.9316 104.834 -77.5879 L 104.834 -71.0938 L 87.2559 -85.8887 C 81.0059 -91.1133 72.7051 -91.1133 66.4551 -85.8887 L 15.6738 -43.2129 C 13.623 -41.5039 12.4512 -39.1113 12.4512 -36.8652 Z M 90.6738 -24.3164 C 90.6738 -26.709 89.1602 -28.2715 86.7676 -28.2715 L 66.8945 -28.2715 C 64.502 -28.2715 62.8906 -26.709 62.8906 -24.3164 L 62.8906 5.32227 L 49.4629 5.32227 C 46.6797 5.32227 45.0684 3.75977 45.0684 0.927734 L 45.0684 -47.5586 L 73.4375 -71.3379 C 75.6348 -73.2422 78.0273 -73.2422 80.2734 -71.3379 L 108.447 -47.6562 L 108.447 0.927734 C 108.447 3.75977 106.836 5.32227 104.053 5.32227 L 90.6738 5.32227 Z"/>
  </g>
  <g id="Bold-M" transform="matrix(1 0 0 1 2265.27 1126)">
   <path d="M 12.4512 -37.2559 C 12.4512 -33.6914 15.0391 -31.0059 19.043 -31.0059 C 20.8984 -31.0059 22.7051 -31.8848 24.2188 -33.2031 L 28.3203 -36.6211 L 28.3203 6.68945 C 28.3203 14.5996 33.252 19.4824 41.6016 19.4824 L 107.666 19.4824 C 115.967 19.4824 120.947 14.5996 120.947 6.68945 L 120.947 -36.7676 L 125.195 -33.2031 C 126.709 -31.8848 128.564 -31.0059 130.371 -31.0059 C 134.229 -31.0059 136.963 -33.4473 136.963 -37.207 C 136.963 -39.209 136.035 -41.1133 134.326 -42.5293 L 120.947 -53.8086 L 120.947 -75.7324 C 120.947 -78.0273 119.434 -79.4922 117.188 -79.4922 L 107.764 -79.4922 C 105.518 -79.4922 103.955 -78.0273 103.955 -75.7324 L 103.955 -68.0664 L 83.5938 -85.2051 C 78.2715 -89.6973 71.2891 -89.6973 65.918 -85.2051 L 15.0879 -42.5293 C 13.3789 -41.0645 12.4512 -39.1113 12.4512 -37.2559 Z M 88.6719 -24.2676 C 88.6719 -26.6113 87.1582 -28.125 84.8145 -28.125 L 64.6484 -28.125 C 62.3047 -28.125 60.7422 -26.6113 60.7422 -24.2676 L 60.7422 6.44531 L 45.8984 6.44531 C 43.0176 6.44531 41.4062 4.78516 41.4062 1.85547 L 41.4062 -47.6074 L 71.9238 -73.1934 C 73.7305 -74.7559 75.7324 -74.7559 77.5879 -73.1934 L 107.861 -47.7539 L 107.861 1.85547 C 107.861 4.78516 106.25 6.44531 103.32 6.44531 L 88.6719 6.44531 Z"/>
  </g>
  <g id="Semibold-M" transform="matrix(1 0 0 1 1970 1126)">
   <path d="M 12.4512 -37.5 C 12.4512 -34.5215 14.6484 -32.1289 18.2129 -32.1289 C 19.8242 -32.1289 21.3867 -32.959 22.7539 -34.082 L 27.6855 -38.2324 L 27.6855 6.25 C 27.6855 13.8184 32.2754 18.3594 40.0879 18.3594 L 106.201 18.3594 C 114.014 18.3594 118.604 13.8184 118.604 6.25 L 118.604 -38.4277 L 123.779 -34.082 C 125.146 -32.959 126.709 -32.1289 128.369 -32.1289 C 131.641 -32.1289 134.082 -34.1797 134.082 -37.4023 C 134.082 -39.2578 133.301 -40.8203 131.836 -42.041 L 118.604 -53.1738 L 118.604 -74.4629 C 118.604 -76.6602 117.188 -78.125 114.99 -78.125 L 107.08 -78.125 C 104.883 -78.125 103.369 -76.6602 103.369 -74.4629 L 103.369 -65.9668 L 81.0547 -84.7168 C 76.3672 -88.6719 70.3125 -88.6719 65.5762 -84.7168 L 14.6973 -42.041 C 13.2324 -40.7715 12.4512 -39.1113 12.4512 -37.5 Z M 87.2559 -24.2676 C 87.2559 -26.5625 85.791 -28.0273 83.4961 -28.0273 L 63.1348 -28.0273 C 60.791 -28.0273 59.2773 -26.5625 59.2773 -24.2676 L 59.2773 7.17773 L 43.457 7.17773 C 40.4785 7.17773 38.8184 5.51758 38.8184 2.49023 L 38.8184 -47.6074 L 70.8984 -74.4629 C 72.4121 -75.7812 74.1699 -75.7812 75.7324 -74.4629 L 107.471 -47.8516 L 107.471 2.49023 C 107.471 5.51758 105.811 7.17773 102.832 7.17773 L 87.2559 7.17773 Z"/>
  </g>
  <g id="Medium-M" transform="matrix(1 0 0 1 1674.39 1126)">
   <path d="M 12.4512 -37.6953 C 12.4512 -35.1562 14.4043 -32.959 17.5293 -32.959 C 19.043 -32.959 20.4102 -33.7891 21.6309 -34.7656 L 27.1973 -39.4531 L 27.1973 5.95703 C 27.1973 13.1836 31.543 17.4805 39.0137 17.4805 L 105.078 17.4805 C 112.5 17.4805 116.895 13.1836 116.895 5.95703 L 116.895 -39.6973 L 122.754 -34.7656 C 123.926 -33.7891 125.293 -32.959 126.807 -32.959 C 129.688 -32.959 131.885 -34.7656 131.885 -37.5977 C 131.885 -39.2578 131.25 -40.5762 129.98 -41.6504 L 116.895 -52.6855 L 116.895 -73.4863 C 116.895 -75.6836 115.479 -77.0508 113.281 -77.0508 L 106.543 -77.0508 C 104.395 -77.0508 102.93 -75.6836 102.93 -73.4863 L 102.93 -64.4043 L 79.1504 -84.375 C 74.9023 -87.9395 69.5312 -87.9395 65.2832 -84.375 L 14.4043 -41.6504 C 13.0859 -40.5762 12.4512 -39.1113 12.4512 -37.6953 Z M 86.2305 -24.2188 C 86.2305 -26.5137 84.7656 -27.9785 82.4707 -27.9785 L 61.9629 -27.9785 C 59.668 -27.9785 58.1543 -26.5137 58.1543 -24.2188 L 58.1543 7.76367 L 41.6016 7.76367 C 38.5742 7.76367 36.9141 6.05469 36.9141 2.97852 L 36.9141 -47.6074 L 70.0684 -75.4395 C 71.4355 -76.6113 72.998 -76.6113 74.3652 -75.4395 L 107.129 -47.9004 L 107.129 2.97852 C 107.129 6.05469 105.469 7.76367 102.441 7.76367 L 86.2305 7.76367 Z"/>
  </g>
  <g id="Regular-M" transform="matrix(1 0 0 1 1379.12 1126)">
   <path d="M 12.4512 -37.9883 C 12.4512 -35.9863 14.0137 -34.082 16.6504 -34.082 C 18.0176 -34.082 19.1406 -34.8145 20.166 -35.6445 L 26.5137 -41.0156 L 26.5137 5.56641 C 26.5137 12.4023 30.5664 16.3574 37.5488 16.3574 L 103.613 16.3574 C 110.547 16.3574 114.6 12.4023 114.6 5.56641 L 114.6 -41.3574 L 121.387 -35.6445 C 122.363 -34.8145 123.486 -34.082 124.854 -34.082 C 127.148 -34.082 129.004 -35.498 129.004 -37.8418 C 129.004 -39.3066 128.516 -40.2832 127.49 -41.1621 L 114.6 -52.002 L 114.6 -72.2168 C 114.6 -74.3652 113.232 -75.7324 111.084 -75.7324 L 105.859 -75.7324 C 103.76 -75.7324 102.344 -74.3652 102.344 -72.2168 L 102.344 -62.3047 L 76.6602 -83.8867 C 73.0469 -86.9629 68.5547 -86.9629 64.8926 -83.8867 L 14.0137 -41.1621 C 12.9395 -40.2832 12.4512 -39.1113 12.4512 -37.9883 Z M 84.8633 -24.2188 C 84.8633 -26.4648 83.3984 -27.9297 81.1523 -27.9297 L 60.4492 -27.9297 C 58.1543 -27.9297 56.6895 -26.4648 56.6895 -24.2188 L 56.6895 8.49609 L 39.209 8.49609 C 36.084 8.49609 34.375 6.73828 34.375 3.56445 L 34.375 -47.6074 L 69.043 -76.6602 C 70.1172 -77.6367 71.4355 -77.6367 72.5098 -76.6602 L 106.738 -47.9492 L 106.738 3.56445 C 106.738 6.73828 105.029 8.49609 101.953 8.49609 L 84.8633 8.49609 Z"/>
  </g>
  <g id="Light-M" transform="matrix(1 0 0 1 1084.36 1126)">
   <path d="M 35.791 15.3809 L 101.562 15.3809 C 108.057 15.3809 111.719 11.7676 111.719 5.37109 L 111.719 -43.457 L 119.287 -37.0605 C 120.068 -36.4258 120.85 -35.8887 121.875 -35.8887 C 123.682 -35.8887 125.098 -37.0117 125.098 -38.7695 C 125.098 -39.8926 124.707 -40.6738 123.828 -41.4062 L 111.719 -51.6113 L 111.719 -71.875 C 111.719 -73.6816 110.547 -74.8047 108.789 -74.8047 L 104.199 -74.8047 C 102.49 -74.8047 101.27 -73.6816 101.27 -71.875 L 101.27 -60.3516 L 74.1211 -83.252 C 70.8496 -86.0352 66.8945 -86.0352 63.5742 -83.252 L 13.7207 -41.4062 C 12.8418 -40.6738 12.4512 -39.7461 12.4512 -38.8672 C 12.4512 -37.3047 13.6719 -35.8887 15.6738 -35.8887 C 16.6992 -35.8887 17.5293 -36.4258 18.2617 -37.0605 L 25.6836 -43.3105 L 25.6836 5.37109 C 25.6836 11.8164 29.3457 15.3809 35.791 15.3809 Z M 82.5684 -24.5605 C 82.5684 -26.6113 81.25 -27.9297 79.248 -27.9297 L 58.3496 -27.9297 C 56.2988 -27.9297 54.9805 -26.6113 54.9805 -24.5605 L 54.9805 9.32617 L 37.0605 9.32617 C 33.4961 9.32617 31.7383 7.51953 31.7383 3.90625 L 31.7383 -48.3398 L 66.8945 -77.8809 C 68.1152 -78.9062 69.4336 -79.0039 70.752 -77.8809 L 105.664 -48.5352 L 105.664 3.90625 C 105.664 7.51953 103.906 9.32617 100.293 9.32617 L 82.5684 9.32617 Z"/>
  </g>
  <g id="Thin-M" transform="matrix(1 0 0 1 790.26 1126)">
   <path d="M 33.5449 14.0625 L 98.9258 14.0625 C 104.736 14.0625 107.861 10.9375 107.861 5.17578 L 107.861 -46.2402 L 116.504 -38.916 C 116.992 -38.5742 117.383 -38.2812 118.018 -38.2812 C 119.092 -38.2812 119.873 -39.0137 119.873 -39.9902 C 119.873 -40.6738 119.629 -41.1621 118.994 -41.6504 L 107.861 -51.0254 L 107.861 -71.4844 C 107.861 -72.7539 106.982 -73.584 105.762 -73.584 L 102.002 -73.584 C 100.781 -73.584 99.8535 -72.7539 99.8535 -71.4844 L 99.8535 -57.7637 L 70.7031 -82.373 C 67.9199 -84.7656 64.6973 -84.7656 61.8164 -82.373 L 13.3301 -41.6504 C 12.6953 -41.1621 12.4512 -40.625 12.4512 -39.9902 C 12.4512 -39.1113 13.1836 -38.2812 14.3066 -38.2812 C 14.9414 -38.2812 15.332 -38.5742 15.8203 -38.916 L 24.5605 -46.2891 L 24.5605 5.17578 C 24.5605 10.9863 27.6855 14.0625 33.5449 14.0625 Z M 79.5898 -25 C 79.5898 -26.7578 78.4668 -27.9297 76.709 -27.9297 L 55.6152 -27.9297 C 53.8574 -27.9297 52.7344 -26.7578 52.7344 -25 L 52.7344 10.4492 L 34.2773 10.4492 C 30.0781 10.4492 28.1738 8.54492 28.1738 4.3457 L 28.1738 -49.3164 L 64.0625 -79.4434 C 65.4297 -80.6152 66.8457 -80.8594 68.457 -79.4434 L 104.248 -49.2676 L 104.248 4.3457 C 104.248 8.54492 102.344 10.4492 98.1445 10.4492 L 79.5898 10.4492 Z"/>
  </g>
  <g id="Ultralight-M" transform="matrix(1 0 0 1 494.892 1126)">
   <path d="M 32.373 13.4277 L 97.5586 13.4277 C 103.076 13.4277 105.908 10.498 105.908 5.07812 L 105.908 -47.6562 L 115.088 -39.8926 C 115.43 -39.6484 115.576 -39.5508 116.016 -39.5508 C 116.699 -39.5508 117.188 -40.0391 117.188 -40.625 C 117.188 -41.1133 116.992 -41.4062 116.504 -41.7969 L 105.908 -50.7812 L 105.908 -71.2891 C 105.908 -72.3145 105.176 -72.998 104.199 -72.998 L 100.879 -72.998 C 99.9023 -72.998 99.1699 -72.3145 99.1699 -71.2891 L 99.1699 -56.4453 L 68.9453 -81.8848 C 66.4062 -84.1309 63.5742 -84.1309 60.9375 -81.8848 L 13.1348 -41.7969 C 12.6465 -41.4062 12.4512 -41.1133 12.4512 -40.625 C 12.4512 -39.9902 12.9395 -39.5508 13.623 -39.5508 C 14.0625 -39.5508 14.209 -39.6484 14.5508 -39.8926 L 23.9746 -47.8516 L 23.9746 5.07812 C 23.9746 10.5957 26.8555 13.4277 32.373 13.4277 Z M 78.0762 -25.2441 C 78.0762 -26.8555 77.0508 -27.9297 75.4395 -27.9297 L 54.1992 -27.9297 C 52.5879 -27.9297 51.5625 -26.8555 51.5625 -25.2441 L 51.5625 11.0352 L 32.8613 11.0352 C 28.3203 11.0352 26.3672 9.08203 26.3672 4.58984 L 26.3672 -49.8535 L 62.6465 -80.2734 C 64.0625 -81.4941 65.5273 -81.7871 67.2852 -80.2734 L 103.516 -49.6582 L 103.516 4.58984 C 103.516 9.08203 101.562 11.0352 97.0703 11.0352 L 78.0762 11.0352 Z"/>
  </g>
  <g id="Black-S" transform="matrix(1 0 0 1 2871.88 696)">
   <path d="M 35.6445 10.0098 L 87.4023 10.0098 C 94.9707 10.0098 99.5117 5.46875 99.5117 -1.5625 L 99.5117 -33.0078 L 100.977 -31.7871 C 102.588 -30.4199 104.541 -29.6387 106.299 -29.6387 C 110.498 -29.6387 113.281 -32.2754 113.281 -36.2793 C 113.281 -38.2812 112.207 -40.4785 110.4 -41.9922 L 99.5117 -51.123 L 99.5117 -69.5801 C 99.5117 -71.4844 98.291 -72.7051 96.3867 -72.7051 L 85.8887 -72.7051 C 83.9844 -72.7051 82.7148 -71.4844 82.7148 -69.5801 L 82.7148 -65.2344 L 70.7031 -75.3418 C 65.2344 -79.9316 57.9102 -79.9316 52.4414 -75.3418 L 12.6465 -41.9434 C 10.8398 -40.3809 9.76562 -38.2812 9.76562 -36.2793 C 9.76562 -32.2754 12.5488 -29.6387 16.748 -29.6387 C 18.5059 -29.6387 20.459 -30.4199 22.0703 -31.7871 L 23.5352 -33.0078 L 23.5352 -1.5625 C 23.5352 5.46875 28.0762 10.0098 35.6445 10.0098 Z M 72.3633 -26.709 C 72.3633 -28.6133 71.1426 -29.834 69.2383 -29.834 L 53.8574 -29.834 C 51.9531 -29.834 50.6836 -28.6133 50.6836 -26.709 L 50.6836 -4.15039 L 41.0156 -4.15039 C 38.916 -4.15039 37.6953 -5.37109 37.6953 -7.4707 L 37.6953 -44.873 L 58.5449 -62.3535 C 60.498 -64.0137 62.5977 -64.0137 64.5996 -62.3535 L 85.3516 -44.9219 L 85.3516 -7.4707 C 85.3516 -5.37109 84.1309 -4.15039 82.0312 -4.15039 L 72.3633 -4.15039 Z"/>
  </g>
  <g id="Heavy-S" transform="matrix(1 0 0 1 2576.39 696)">
   <path d="M 34.375 8.98438 L 86.1816 8.98438 C 93.3105 8.98438 97.5586 4.73633 97.5586 -1.95312 L 97.5586 -34.4238 L 99.8047 -32.5195 C 101.27 -31.2988 103.027 -30.5176 104.639 -30.5176 C 108.35 -30.5176 110.84 -32.8613 110.84 -36.4258 C 110.84 -38.2324 109.912 -40.1367 108.35 -41.4551 L 97.5586 -50.5371 L 97.5586 -68.3594 C 97.5586 -70.2148 96.3379 -71.4355 94.4336 -71.4355 L 85.4004 -71.4355 C 83.4961 -71.4355 82.2266 -70.2148 82.2266 -68.3594 L 82.2266 -63.3789 L 68.5059 -74.9512 C 63.5742 -79.0527 57.1289 -79.0527 52.1973 -74.9512 L 12.3047 -41.4551 C 10.6934 -40.0391 9.76562 -38.1836 9.76562 -36.4258 C 9.76562 -32.959 12.207 -30.5176 16.0156 -30.5176 C 17.627 -30.5176 19.3848 -31.2988 20.8008 -32.5195 L 22.998 -34.3262 L 22.998 -1.95312 C 22.998 4.73633 27.2461 8.98438 34.375 8.98438 Z M 71.2402 -26.6602 C 71.2402 -28.5156 70.0195 -29.7363 68.1152 -29.7363 L 52.5391 -29.7363 C 50.6836 -29.7363 49.4141 -28.5156 49.4141 -26.6602 L 49.4141 -3.51562 L 38.8184 -3.51562 C 36.7188 -3.51562 35.4492 -4.73633 35.4492 -6.88477 L 35.4492 -44.8242 L 57.7637 -63.4766 C 59.4238 -64.8926 61.2793 -64.8926 62.9883 -63.4766 L 85.0586 -44.9219 L 85.0586 -6.88477 C 85.0586 -4.73633 83.8379 -3.51562 81.6895 -3.51562 L 71.2402 -3.51562 Z"/>
  </g>
  <g id="Bold-S" transform="matrix(1 0 0 1 2281.02 696)">
   <path d="M 32.959 7.8125 L 84.7656 7.8125 C 91.4062 7.8125 95.3613 3.90625 95.3613 -2.39258 L 95.3613 -36.0352 L 98.5352 -33.3496 C 99.8047 -32.2754 101.27 -31.543 102.783 -31.543 C 105.908 -31.543 108.154 -33.4961 108.154 -36.5234 C 108.154 -38.1836 107.373 -39.7461 106.055 -40.8691 L 95.3613 -49.8535 L 95.3613 -66.9922 C 95.3613 -68.8477 94.1406 -70.0684 92.2852 -70.0684 L 84.8145 -70.0684 C 82.959 -70.0684 81.6895 -68.8477 81.6895 -66.9922 L 81.6895 -61.3281 L 66.0156 -74.5117 C 61.7676 -78.0762 56.2012 -78.0762 51.9531 -74.5117 L 11.9141 -40.8691 C 10.498 -39.6973 9.76562 -38.1348 9.76562 -36.6211 C 9.76562 -33.7402 11.8652 -31.543 15.1367 -31.543 C 16.6504 -31.543 18.1152 -32.2754 19.3848 -33.3496 L 22.3633 -35.8398 L 22.3633 -2.39258 C 22.3633 3.95508 26.3184 7.8125 32.959 7.8125 Z M 69.9707 -26.5625 C 69.9707 -28.4668 68.75 -29.6875 66.8457 -29.6875 L 51.123 -29.6875 C 49.2188 -29.6875 47.9492 -28.4668 47.9492 -26.5625 L 47.9492 -2.7832 L 36.377 -2.7832 C 34.2285 -2.7832 32.959 -4.05273 32.959 -6.20117 L 32.959 -44.7266 L 56.8359 -64.7461 C 58.2031 -65.918 59.7656 -65.918 61.1328 -64.7461 L 84.7656 -44.9219 L 84.7656 -6.20117 C 84.7656 -4.05273 83.4961 -2.7832 81.3477 -2.7832 L 69.9707 -2.7832 Z"/>
  </g>
  <g id="Semibold-S" transform="matrix(1 0 0 1 1985.26 696)">
   <path d="M 31.9824 7.03125 L 83.8379 7.03125 C 90.0879 7.03125 93.8477 3.36914 93.8477 -2.68555 L 93.8477 -37.1094 L 97.6562 -33.8867 C 98.7793 -32.959 100.098 -32.2266 101.514 -32.2266 C 104.248 -32.2266 106.25 -33.9355 106.25 -36.6211 C 106.25 -38.1836 105.664 -39.502 104.443 -40.4785 L 93.8477 -49.4141 L 93.8477 -66.0156 C 93.8477 -67.8711 92.627 -69.0918 90.7715 -69.0918 L 84.4238 -69.0918 C 82.5684 -69.0918 81.3477 -67.8711 81.3477 -66.0156 L 81.3477 -59.9121 L 64.3066 -74.2188 C 60.498 -77.3926 55.6152 -77.3926 51.8066 -74.2188 L 11.6211 -40.4785 C 10.4004 -39.4531 9.76562 -38.0371 9.76562 -36.7188 C 9.76562 -34.2285 11.6211 -32.2266 14.5996 -32.2266 C 15.9668 -32.2266 17.2852 -32.959 18.4082 -33.8867 L 21.9238 -36.8652 L 21.9238 -2.68555 C 21.9238 3.36914 25.6836 7.03125 31.9824 7.03125 Z M 69.0918 -26.5137 C 69.0918 -28.418 67.8711 -29.5898 66.0156 -29.5898 L 50.0977 -29.5898 C 48.2422 -29.5898 46.9727 -28.418 46.9727 -26.5137 L 46.9727 -2.24609 L 34.7168 -2.24609 C 32.5195 -2.24609 31.25 -3.56445 31.25 -5.76172 L 31.25 -44.6777 L 56.2012 -65.625 C 57.373 -66.6016 58.7402 -66.6016 59.8633 -65.625 L 84.5215 -44.9219 L 84.5215 -5.76172 C 84.5215 -3.56445 83.252 -2.24609 81.1035 -2.24609 L 69.0918 -2.24609 Z"/>
  </g>
  <g id="Medium-S" transform="matrix(1 0 0 1 1689.26 696)">
   <path d="M 31.2012 6.44531 L 83.1055 6.44531 C 89.1113 6.44531 92.6758 2.92969 92.6758 -2.88086 L 92.6758 -37.9395 L 96.9727 -34.3262 C 97.998 -33.4473 99.2188 -32.7637 100.537 -32.7637 C 102.979 -32.7637 104.834 -34.2773 104.834 -36.7188 C 104.834 -38.1348 104.297 -39.3066 103.271 -40.1855 L 92.6758 -49.0234 L 92.6758 -65.2832 C 92.6758 -67.1387 91.5039 -68.3594 89.6484 -68.3594 L 84.1309 -68.3594 C 82.2754 -68.3594 81.0547 -67.1387 81.0547 -65.2832 L 81.0547 -58.8379 L 62.9883 -73.9746 C 59.5703 -76.9043 55.127 -76.9043 51.6602 -73.9746 L 11.4258 -40.1855 C 10.3027 -39.2578 9.76562 -37.9883 9.76562 -36.8164 C 9.76562 -34.668 11.4258 -32.7637 14.1602 -32.7637 C 15.4785 -32.7637 16.6504 -33.4473 17.6758 -34.3262 L 21.6309 -37.6465 L 21.6309 -2.88086 C 21.6309 2.92969 25.1953 6.44531 31.2012 6.44531 Z M 68.457 -26.4648 C 68.457 -28.3691 67.2363 -29.541 65.332 -29.541 L 49.3652 -29.541 C 47.4609 -29.541 46.2402 -28.3691 46.2402 -26.4648 L 46.2402 -1.9043 L 33.3984 -1.9043 C 31.2012 -1.9043 29.9316 -3.17383 29.9316 -5.41992 L 29.9316 -44.6289 L 55.7617 -66.2598 C 56.7383 -67.1387 57.959 -67.0898 58.9355 -66.2598 L 84.375 -44.9219 L 84.375 -5.41992 C 84.375 -3.17383 83.1055 -1.9043 80.9082 -1.9043 L 68.457 -1.9043 Z"/>
  </g>
  <g id="Regular-S" transform="matrix(1 0 0 1 1393.47 696)">
   <path d="M 30.2734 5.66406 L 82.1777 5.66406 C 87.8418 5.66406 91.2109 2.39258 91.2109 -3.22266 L 91.2109 -39.0137 L 96.0938 -34.8633 C 97.0215 -34.1309 98.0469 -33.4473 99.2676 -33.4473 C 101.318 -33.4473 102.979 -34.7168 102.979 -36.8164 C 102.979 -38.1348 102.588 -39.0137 101.66 -39.7949 L 91.2109 -48.584 L 91.2109 -64.3555 C 91.2109 -66.2109 89.9902 -67.3828 88.1836 -67.3828 L 83.7891 -67.3828 C 81.9336 -67.3828 80.7129 -66.2109 80.7129 -64.3555 L 80.7129 -57.4219 L 61.3281 -73.6816 C 58.3008 -76.2207 54.541 -76.2207 51.5137 -73.6816 L 11.1328 -39.7949 C 10.2051 -39.0137 9.76562 -37.9395 9.76562 -36.9629 C 9.76562 -35.1562 11.1816 -33.4473 13.5742 -33.4473 C 14.7949 -33.4473 15.8203 -34.1309 16.6992 -34.8633 L 21.1914 -38.6719 L 21.1914 -3.22266 C 21.1914 2.39258 24.5605 5.66406 30.2734 5.66406 Z M 67.5781 -26.416 C 67.5781 -28.2715 66.3574 -29.4922 64.502 -29.4922 L 48.3398 -29.4922 C 46.4844 -29.4922 45.2637 -28.2715 45.2637 -26.416 L 45.2637 -1.36719 L 31.7383 -1.36719 C 29.541 -1.36719 28.2715 -2.73438 28.2715 -4.98047 L 28.2715 -44.5801 L 55.127 -67.1387 C 55.957 -67.8223 56.9336 -67.7734 57.666 -67.1387 L 84.1797 -44.9219 L 84.1797 -4.98047 C 84.1797 -2.73438 82.8613 -1.36719 80.6641 -1.36719 L 67.5781 -1.36719 Z"/>
  </g>
  <g id="Light-S" transform="matrix(1 0 0 1 1098.49 696)">
   <path d="M 28.7109 4.78516 L 80.3711 4.78516 C 85.6445 4.78516 88.623 1.85547 88.623 -3.36914 L 88.623 -40.8691 L 94.2871 -36.1328 C 94.9707 -35.5469 95.7031 -35.0586 96.6309 -35.0586 C 98.2422 -35.0586 99.5117 -36.0352 99.5117 -37.6465 C 99.5117 -38.6719 99.1699 -39.3555 98.4375 -39.9902 L 88.623 -48.1934 L 88.623 -64.0625 C 88.623 -65.625 87.6465 -66.6016 86.1328 -66.6016 L 82.2754 -66.6016 C 80.7617 -66.6016 79.7363 -65.625 79.7363 -64.0625 L 79.7363 -55.6641 L 59.0332 -73.0957 C 56.3477 -75.3906 53.0762 -75.3906 50.3418 -73.0957 L 10.8887 -39.9902 C 10.1074 -39.3555 9.76562 -38.5254 9.76562 -37.7441 C 9.76562 -36.377 10.8398 -35.0586 12.6465 -35.0586 C 13.623 -35.0586 14.3555 -35.5469 15.0391 -36.1328 L 20.459 -40.6738 L 20.459 -3.36914 C 20.459 1.85547 23.4863 4.78516 28.7109 4.78516 Z M 65.5762 -26.709 C 65.5762 -28.418 64.502 -29.4922 62.793 -29.4922 L 46.5332 -29.4922 C 44.8242 -29.4922 43.75 -28.418 43.75 -26.709 L 43.75 -0.634766 L 29.8828 -0.634766 C 27.2461 -0.634766 25.8789 -2.00195 25.8789 -4.6875 L 25.8789 -45.2148 L 53.2227 -68.1641 C 54.1504 -68.9941 55.1758 -68.9941 56.1523 -68.1641 L 83.2031 -45.4102 L 83.2031 -4.6875 C 83.2031 -2.00195 81.8359 -0.634766 79.1992 -0.634766 L 65.5762 -0.634766 Z"/>
  </g>
  <g id="Thin-S" transform="matrix(1 0 0 1 804.078 696)">
   <path d="M 26.709 3.66211 L 78.0273 3.66211 C 82.7148 3.66211 85.2539 1.12305 85.2539 -3.51562 L 85.2539 -43.3105 L 91.8457 -37.793 C 92.2363 -37.4512 92.627 -37.1582 93.2129 -37.1582 C 94.1895 -37.1582 94.9219 -37.793 94.9219 -38.7207 C 94.9219 -39.3555 94.6777 -39.7461 94.1406 -40.2344 L 85.2539 -47.7051 L 85.2539 -63.7207 C 85.2539 -64.7949 84.5215 -65.5273 83.4473 -65.5273 L 80.3223 -65.5273 C 79.2969 -65.5273 78.5156 -64.7949 78.5156 -63.7207 L 78.5156 -53.3691 L 56.0547 -72.3145 C 53.7598 -74.2676 51.123 -74.2676 48.7793 -72.3145 L 10.5469 -40.2344 C 10.0098 -39.7461 9.76562 -39.3066 9.76562 -38.7695 C 9.76562 -37.9395 10.4492 -37.1582 11.4746 -37.1582 C 12.0605 -37.1582 12.4512 -37.4512 12.8418 -37.793 L 19.4824 -43.3105 L 19.4824 -3.51562 C 19.4824 1.12305 22.0215 3.66211 26.709 3.66211 Z M 62.9395 -27.1484 C 62.9395 -28.5645 62.0117 -29.4922 60.5957 -29.4922 L 44.0918 -29.4922 C 42.6758 -29.4922 41.748 -28.5645 41.748 -27.1484 L 41.748 0.341797 L 27.3926 0.341797 C 24.2188 0.341797 22.7539 -1.12305 22.7539 -4.29688 L 22.7539 -46.0938 L 50.7324 -69.5801 C 51.8066 -70.459 52.8809 -70.6055 54.1016 -69.5801 L 81.9336 -46.0938 L 81.9336 -4.29688 C 81.9336 -1.12305 80.5176 0.341797 77.3438 0.341797 L 62.9395 0.341797 Z"/>
  </g>
  <g id="Ultralight-S" transform="matrix(1 0 0 1 508.564 696)">
   <path d="M 25.6836 3.07617 L 76.8066 3.07617 C 81.2012 3.07617 83.4961 0.732422 83.4961 -3.66211 L 83.4961 -44.5801 L 90.5762 -38.623 C 90.8691 -38.3789 91.0156 -38.2812 91.4062 -38.2812 C 92.0898 -38.2812 92.5293 -38.7207 92.5293 -39.2578 C 92.5293 -39.6973 92.3828 -39.9902 91.9434 -40.332 L 83.4961 -47.4609 L 83.4961 -63.5254 C 83.4961 -64.4043 82.9102 -64.9902 82.0312 -64.9902 L 79.3457 -64.9902 C 78.5156 -64.9902 77.8809 -64.4043 77.8809 -63.5254 L 77.8809 -52.1973 L 54.4922 -71.9238 C 52.4414 -73.7305 50.1465 -73.7305 47.998 -71.9238 L 10.3516 -40.332 C 9.91211 -39.9902 9.76562 -39.6973 9.76562 -39.3066 C 9.76562 -38.7207 10.2051 -38.2812 10.8887 -38.2812 C 11.2793 -38.2812 11.4746 -38.3789 11.7188 -38.623 L 18.9453 -44.6777 L 18.9453 -3.66211 C 18.9453 0.78125 21.2891 3.07617 25.6836 3.07617 Z M 61.5723 -27.3438 C 61.5723 -28.6621 60.7422 -29.4922 59.4238 -29.4922 L 42.8711 -29.4922 C 41.5527 -29.4922 40.7227 -28.6621 40.7227 -27.3438 L 40.7227 0.878906 L 26.123 0.878906 C 22.6562 0.878906 21.1914 -0.634766 21.1914 -4.10156 L 21.1914 -46.5332 L 49.4629 -70.3125 C 50.5859 -71.2402 51.709 -71.4355 53.0273 -70.3125 L 81.2988 -46.4355 L 81.2988 -4.10156 C 81.2988 -0.634766 79.7852 0.878906 76.3672 0.878906 L 61.5723 0.878906 Z"/>
  </g>
 </g>
</svg>
