<?xml version="1.0" encoding="UTF-8"?>
<!--Generator: Apple Native CoreSVG 148-->
<!DOCTYPE svg
PUBLIC "-//W3C//DTD SVG 1.1//EN"
       "http://www.w3.org/Graphics/SVG/1.1/DTD/svg11.dtd">
<svg version="1.1" xmlns="http://www.w3.org/2000/svg" xmlns:xlink="http://www.w3.org/1999/xlink" width="3300" height="2200">
 <!--glyph: "uni100985.medium", point size: 100.000000, font version: "Version 16.0d11e1", template writer version: "8"-->
 <g id="Notes">
  <rect height="2200" id="artboard" style="fill:white;opacity:1" width="3300" x="0" y="0"/>
  <line id="" style="fill:none;stroke:black;opacity:1;stroke-width:0.5;" x1="263" x2="3036" y1="292" y2="292"/>
  <text style="stroke:none;fill:black;font-family:-apple-system,&quot;SF Pro Display&quot;,&quot;SF Pro Text&quot;,Helvetica,sans-serif;font-weight:bold;" transform="matrix(1 0 0 1 263 322)">Weight/Scale Variations</text>
  <text style="stroke:none;fill:black;font-family:-apple-system,&quot;SF Pro Display&quot;,&quot;SF Pro Text&quot;,Helvetica,sans-serif;text-anchor:middle;" transform="matrix(1 0 0 1 559.711 322)">Ultralight</text>
  <text style="stroke:none;fill:black;font-family:-apple-system,&quot;SF Pro Display&quot;,&quot;SF Pro Text&quot;,Helvetica,sans-serif;text-anchor:middle;" transform="matrix(1 0 0 1 856.422 322)">Thin</text>
  <text style="stroke:none;fill:black;font-family:-apple-system,&quot;SF Pro Display&quot;,&quot;SF Pro Text&quot;,Helvetica,sans-serif;text-anchor:middle;" transform="matrix(1 0 0 1 1153.13 322)">Light</text>
  <text style="stroke:none;fill:black;font-family:-apple-system,&quot;SF Pro Display&quot;,&quot;SF Pro Text&quot;,Helvetica,sans-serif;text-anchor:middle;" transform="matrix(1 0 0 1 1449.84 322)">Regular</text>
  <text style="stroke:none;fill:black;font-family:-apple-system,&quot;SF Pro Display&quot;,&quot;SF Pro Text&quot;,Helvetica,sans-serif;text-anchor:middle;" transform="matrix(1 0 0 1 1746.56 322)">Medium</text>
  <text style="stroke:none;fill:black;font-family:-apple-system,&quot;SF Pro Display&quot;,&quot;SF Pro Text&quot;,Helvetica,sans-serif;text-anchor:middle;" transform="matrix(1 0 0 1 2043.27 322)">Semibold</text>
  <text style="stroke:none;fill:black;font-family:-apple-system,&quot;SF Pro Display&quot;,&quot;SF Pro Text&quot;,Helvetica,sans-serif;text-anchor:middle;" transform="matrix(1 0 0 1 2339.98 322)">Bold</text>
  <text style="stroke:none;fill:black;font-family:-apple-system,&quot;SF Pro Display&quot;,&quot;SF Pro Text&quot;,Helvetica,sans-serif;text-anchor:middle;" transform="matrix(1 0 0 1 2636.69 322)">Heavy</text>
  <text style="stroke:none;fill:black;font-family:-apple-system,&quot;SF Pro Display&quot;,&quot;SF Pro Text&quot;,Helvetica,sans-serif;text-anchor:middle;" transform="matrix(1 0 0 1 2933.4 322)">Black</text>
  <line id="" style="fill:none;stroke:black;opacity:1;stroke-width:0.5;" x1="263" x2="3036" y1="1903" y2="1903"/>
  <g id="" transform="matrix(1 0 0 1 263 1933)">
   <path d="M 9.24805 0.830078 C 13.5547 0.830078 17.1387 -2.74414 17.1387 -7.05078 C 17.1387 -11.3574 13.5449 -14.9316 9.23828 -14.9316 C 4.94141 -14.9316 1.36719 -11.3574 1.36719 -7.05078 C 1.36719 -2.74414 4.95117 0.830078 9.24805 0.830078 Z M 9.24805 -0.654297 C 5.70312 -0.654297 2.87109 -3.49609 2.87109 -7.05078 C 2.87109 -10.6055 5.69336 -13.4473 9.23828 -13.4473 C 12.793 -13.4473 15.6348 -10.6055 15.6445 -7.05078 C 15.6543 -3.49609 12.8027 -0.654297 9.24805 -0.654297 Z M 9.22852 -3.62305 C 9.69727 -3.62305 9.9707 -3.93555 9.9707 -4.45312 L 9.9707 -6.31836 L 12.002 -6.31836 C 12.5 -6.31836 12.832 -6.57227 12.832 -7.04102 C 12.832 -7.51953 12.5195 -7.7832 12.002 -7.7832 L 9.9707 -7.7832 L 9.9707 -9.81445 C 9.9707 -10.332 9.69727 -10.6543 9.22852 -10.6543 C 8.75977 -10.6543 8.50586 -10.3125 8.50586 -9.81445 L 8.50586 -7.7832 L 6.49414 -7.7832 C 5.97656 -7.7832 5.64453 -7.51953 5.64453 -7.04102 C 5.64453 -6.57227 5.99609 -6.31836 6.49414 -6.31836 L 8.50586 -6.31836 L 8.50586 -4.45312 C 8.50586 -3.95508 8.75977 -3.62305 9.22852 -3.62305 Z"/>
  </g>
  <g id="" transform="matrix(1 0 0 1 281.506 1933)">
   <path d="M 11.709 2.91016 C 17.1582 2.91016 21.6699 -1.61133 21.6699 -7.05078 C 21.6699 -12.5 17.1484 -17.0117 11.6992 -17.0117 C 6.25977 -17.0117 1.74805 -12.5 1.74805 -7.05078 C 1.74805 -1.61133 6.26953 2.91016 11.709 2.91016 Z M 11.709 1.25 C 7.09961 1.25 3.41797 -2.44141 3.41797 -7.05078 C 3.41797 -11.6602 7.08984 -15.3516 11.6992 -15.3516 C 16.3086 -15.3516 20 -11.6602 20.0098 -7.05078 C 20.0195 -2.44141 16.3184 1.25 11.709 1.25 Z M 11.6797 -2.66602 C 12.207 -2.66602 12.5098 -3.01758 12.5098 -3.59375 L 12.5098 -6.23047 L 15.3223 -6.23047 C 15.8691 -6.23047 16.25 -6.51367 16.25 -7.03125 C 16.25 -7.55859 15.8887 -7.86133 15.3223 -7.86133 L 12.5098 -7.86133 L 12.5098 -10.6836 C 12.5098 -11.25 12.207 -11.6113 11.6797 -11.6113 C 11.1621 -11.6113 10.8789 -11.2305 10.8789 -10.6836 L 10.8789 -7.86133 L 8.07617 -7.86133 C 7.50977 -7.86133 7.13867 -7.55859 7.13867 -7.03125 C 7.13867 -6.51367 7.5293 -6.23047 8.07617 -6.23047 L 10.8789 -6.23047 L 10.8789 -3.59375 C 10.8789 -3.03711 11.1621 -2.66602 11.6797 -2.66602 Z"/>
  </g>
  <g id="" transform="matrix(1 0 0 1 304.924 1933)">
   <path d="M 14.9707 5.66406 C 21.9336 5.66406 27.6953 -0.0976562 27.6953 -7.05078 C 27.6953 -14.0137 21.9238 -19.7754 14.9609 -19.7754 C 8.00781 -19.7754 2.25586 -14.0137 2.25586 -7.05078 C 2.25586 -0.0976562 8.01758 5.66406 14.9707 5.66406 Z M 14.9707 3.84766 C 8.93555 3.84766 4.08203 -1.01562 4.08203 -7.05078 C 4.08203 -13.0957 8.92578 -17.9492 14.9609 -17.9492 C 21.0059 -17.9492 25.8594 -13.0957 25.8691 -7.05078 C 25.8789 -1.01562 21.0156 3.84766 14.9707 3.84766 Z M 14.9414 -1.38672 C 15.5176 -1.38672 15.8594 -1.77734 15.8594 -2.38281 L 15.8594 -6.13281 L 19.7754 -6.13281 C 20.3711 -6.13281 20.7812 -6.46484 20.7812 -7.02148 C 20.7812 -7.59766 20.3906 -7.93945 19.7754 -7.93945 L 15.8594 -7.93945 L 15.8594 -11.8652 C 15.8594 -12.4805 15.5176 -12.8711 14.9414 -12.8711 C 14.375 -12.8711 14.0527 -12.4609 14.0527 -11.8652 L 14.0527 -7.93945 L 10.1465 -7.93945 C 9.53125 -7.93945 9.13086 -7.59766 9.13086 -7.02148 C 9.13086 -6.46484 9.55078 -6.13281 10.1465 -6.13281 L 14.0527 -6.13281 L 14.0527 -2.38281 C 14.0527 -1.79688 14.375 -1.38672 14.9414 -1.38672 Z"/>
  </g>
  <text style="stroke:none;fill:black;font-family:-apple-system,&quot;SF Pro Display&quot;,&quot;SF Pro Text&quot;,Helvetica,sans-serif;font-weight:bold;" transform="matrix(1 0 0 1 263 1953)">Design Variations</text>
  <text style="stroke:none;fill:black;font-family:-apple-system,&quot;SF Pro Display&quot;,&quot;SF Pro Text&quot;,Helvetica,sans-serif;" transform="matrix(1 0 0 1 263 1971)">Symbols are supported in up to nine weights and three scales.</text>
  <text style="stroke:none;fill:black;font-family:-apple-system,&quot;SF Pro Display&quot;,&quot;SF Pro Text&quot;,Helvetica,sans-serif;" transform="matrix(1 0 0 1 263 1989)">For optimal layout with text and other symbols, vertically align</text>
  <text style="stroke:none;fill:black;font-family:-apple-system,&quot;SF Pro Display&quot;,&quot;SF Pro Text&quot;,Helvetica,sans-serif;" transform="matrix(1 0 0 1 263 2007)">symbols with the adjacent text.</text>
  <line id="" style="fill:none;stroke:#00AEEF;stroke-width:0.5;opacity:1.0;" x1="776" x2="776" y1="1919" y2="1933"/>
  <g id="" transform="matrix(1 0 0 1 776 1933)">
   <path d="M 3.31055 0.126953 C 3.82812 0.126953 4.08203 -0.0683594 4.26758 -0.605469 L 5.52734 -4.0625 L 11.2891 -4.0625 L 12.5488 -0.605469 C 12.7344 -0.0683594 12.9883 0.126953 13.4961 0.126953 C 14.0137 0.126953 14.3457 -0.185547 14.3457 -0.673828 C 14.3457 -0.839844 14.3164 -0.986328 14.2383 -1.20117 L 9.6582 -13.3887 C 9.43359 -13.9941 9.0332 -14.2871 8.4082 -14.2871 C 7.80273 -14.2871 7.39258 -13.9941 7.17773 -13.3984 L 2.59766 -1.19141 C 2.51953 -0.976562 2.49023 -0.830078 2.49023 -0.664062 C 2.49023 -0.175781 2.80273 0.126953 3.31055 0.126953 Z M 6.00586 -5.53711 L 8.37891 -12.1094 L 8.42773 -12.1094 L 10.8008 -5.53711 Z"/>
  </g>
  <line id="" style="fill:none;stroke:#00AEEF;stroke-width:0.5;opacity:1.0;" x1="792.836" x2="792.836" y1="1919" y2="1933"/>
  <text style="stroke:none;fill:black;font-family:-apple-system,&quot;SF Pro Display&quot;,&quot;SF Pro Text&quot;,Helvetica,sans-serif;font-weight:bold;" transform="matrix(1 0 0 1 776 1953)">Margins</text>
  <text style="stroke:none;fill:black;font-family:-apple-system,&quot;SF Pro Display&quot;,&quot;SF Pro Text&quot;,Helvetica,sans-serif;" transform="matrix(1 0 0 1 776 1971)">Leading and trailing margins on the left and right side of each symbol</text>
  <text style="stroke:none;fill:black;font-family:-apple-system,&quot;SF Pro Display&quot;,&quot;SF Pro Text&quot;,Helvetica,sans-serif;" transform="matrix(1 0 0 1 776 1989)">can be adjusted by modifying the x-location of the margin guidelines.</text>
  <text style="stroke:none;fill:black;font-family:-apple-system,&quot;SF Pro Display&quot;,&quot;SF Pro Text&quot;,Helvetica,sans-serif;" transform="matrix(1 0 0 1 776 2007)">Modifications are automatically applied proportionally to all</text>
  <text style="stroke:none;fill:black;font-family:-apple-system,&quot;SF Pro Display&quot;,&quot;SF Pro Text&quot;,Helvetica,sans-serif;" transform="matrix(1 0 0 1 776 2025)">scales and weights.</text>
  <g id="" transform="matrix(1 0 0 1 1289 1933)">
   <path d="M 2.8418 1.86523 L 4.54102 3.57422 C 5.40039 4.44336 6.38672 4.38477 7.31445 3.35938 L 17.4902 -7.85156 C 17.7539 -7.76367 18.0273 -7.7832 18.3398 -7.8418 L 19.4043 -8.03711 L 20.0684 -7.36328 L 20.0293 -6.80664 C 19.9902 -6.30859 20.1172 -5.92773 20.6055 -5.44922 L 21.3672 -4.70703 C 21.8457 -4.22852 22.4609 -4.19922 22.9297 -4.66797 L 25.8398 -7.58789 C 26.3086 -8.05664 26.2891 -8.65234 25.8105 -9.13086 L 25.0391 -9.89258 C 24.5605 -10.3711 24.1895 -10.5273 23.7109 -10.4883 L 23.1348 -10.4395 L 22.4902 -11.0742 L 22.7344 -12.1973 C 22.8613 -12.7637 22.7051 -13.2031 22.1191 -13.7891 L 19.9219 -15.9766 C 16.582 -19.2969 12.1484 -19.2188 9.25781 -16.3281 C 8.83789 -15.918 8.80859 -15.3418 9.04297 -14.9512 C 9.27734 -14.5898 9.73633 -14.3555 10.3809 -14.5215 C 11.8457 -14.8633 13.3691 -14.9219 14.7949 -13.9844 L 14.209 -12.5293 C 14.0137 -12.0508 13.9844 -11.6504 14.1113 -11.2891 L 3.04688 -0.898438 C 2.06055 0.0195312 1.98242 0.996094 2.8418 1.86523 Z M 10.752 -15.957 C 13.1836 -17.7344 16.4746 -17.4316 18.7012 -15.2051 L 21.1328 -12.793 C 21.3672 -12.5586 21.4062 -12.373 21.3379 -12.0312 L 21.0156 -10.5469 L 22.5195 -9.0625 L 23.5059 -9.12109 C 23.7598 -9.13086 23.8379 -9.11133 24.0332 -8.91602 L 24.6094 -8.33984 L 22.168 -5.89844 L 21.5918 -6.47461 C 21.3965 -6.66992 21.3672 -6.74805 21.377 -7.01172 L 21.4453 -7.98828 L 19.9512 -9.47266 L 18.4277 -9.21875 C 18.1055 -9.15039 17.959 -9.17969 17.7148 -9.41406 L 15.7129 -11.416 C 15.459 -11.6504 15.4297 -11.8164 15.5859 -12.1875 L 16.4648 -14.2773 C 14.9023 -15.7324 12.8711 -16.3574 10.8398 -15.7617 C 10.6836 -15.7227 10.625 -15.8496 10.752 -15.957 Z M 5.27344 2.30469 L 4.10156 1.14258 C 3.63281 0.683594 3.74023 0.341797 4.14062 -0.0195312 L 14.9512 -10.1953 L 16.416 -8.71094 L 6.42578 2.27539 C 6.07422 2.67578 5.74219 2.77344 5.27344 2.30469 Z"/>
  </g>
  <text style="stroke:none;fill:black;font-family:-apple-system,&quot;SF Pro Display&quot;,&quot;SF Pro Text&quot;,Helvetica,sans-serif;font-weight:bold;" transform="matrix(1 0 0 1 1289 1953)">Exporting</text>
  <text style="stroke:none;fill:black;font-family:-apple-system,&quot;SF Pro Display&quot;,&quot;SF Pro Text&quot;,Helvetica,sans-serif;" transform="matrix(1 0 0 1 1289 1971)">Symbols should be outlined when exporting to ensure the</text>
  <text style="stroke:none;fill:black;font-family:-apple-system,&quot;SF Pro Display&quot;,&quot;SF Pro Text&quot;,Helvetica,sans-serif;" transform="matrix(1 0 0 1 1289 1989)">design is preserved when submitting to Xcode.</text>
  <text id="template-version" style="stroke:none;fill:black;font-family:-apple-system,&quot;SF Pro Display&quot;,&quot;SF Pro Text&quot;,Helvetica,sans-serif;text-anchor:end;" transform="matrix(1 0 0 1 3036 1933)">Template v.2.0</text>
  <text style="stroke:none;fill:black;font-family:-apple-system,&quot;SF Pro Display&quot;,&quot;SF Pro Text&quot;,Helvetica,sans-serif;text-anchor:end;" transform="matrix(1 0 0 1 3036 1951)">Requires Xcode 12 or greater</text>
  <text style="stroke:none;fill:black;font-family:-apple-system,&quot;SF Pro Display&quot;,&quot;SF Pro Text&quot;,Helvetica,sans-serif;text-anchor:end;" transform="matrix(1 0 0 1 3036 1969)">Generated from crown</text>
  <text style="stroke:none;fill:black;font-family:-apple-system,&quot;SF Pro Display&quot;,&quot;SF Pro Text&quot;,Helvetica,sans-serif;text-anchor:end;" transform="matrix(1 0 0 1 3036 1987)">Typeset at 100 points</text>
  <text style="stroke:none;fill:black;font-family:-apple-system,&quot;SF Pro Display&quot;,&quot;SF Pro Text&quot;,Helvetica,sans-serif;" transform="matrix(1 0 0 1 263 726)">Small</text>
  <text style="stroke:none;fill:black;font-family:-apple-system,&quot;SF Pro Display&quot;,&quot;SF Pro Text&quot;,Helvetica,sans-serif;" transform="matrix(1 0 0 1 263 1156)">Medium</text>
  <text style="stroke:none;fill:black;font-family:-apple-system,&quot;SF Pro Display&quot;,&quot;SF Pro Text&quot;,Helvetica,sans-serif;" transform="matrix(1 0 0 1 263 1586)">Large</text>
 </g>
 <g id="Guides">
  <g id="H-reference" style="fill:#27AAE1;stroke:none;" transform="matrix(1 0 0 1 339 696)">
   <path d="M 0.976562 0 L 3.66211 0 L 12.9883 -24.4629 L 45.7031 -24.4629 L 55.0781 0 L 57.7148 0 L 30.6152 -70.459 L 28.125 -70.459 Z M 29.2969 -67.1387 L 29.3945 -67.1387 L 44.873 -26.709 L 13.8672 -26.709 Z"/>
  </g>
  <line id="Baseline-S" style="fill:none;stroke:#27AAE1;opacity:1;stroke-width:0.5;" x1="263" x2="3036" y1="696" y2="696"/>
  <line id="Capline-S" style="fill:none;stroke:#27AAE1;opacity:1;stroke-width:0.5;" x1="263" x2="3036" y1="625.541" y2="625.541"/>
  <g id="H-reference" style="fill:#27AAE1;stroke:none;" transform="matrix(1 0 0 1 339 1126)">
   <path d="M 0.976562 0 L 3.66211 0 L 12.9883 -24.4629 L 45.7031 -24.4629 L 55.0781 0 L 57.7148 0 L 30.6152 -70.459 L 28.125 -70.459 Z M 29.2969 -67.1387 L 29.3945 -67.1387 L 44.873 -26.709 L 13.8672 -26.709 Z"/>
  </g>
  <line id="Baseline-M" style="fill:none;stroke:#27AAE1;opacity:1;stroke-width:0.5;" x1="263" x2="3036" y1="1126" y2="1126"/>
  <line id="Capline-M" style="fill:none;stroke:#27AAE1;opacity:1;stroke-width:0.5;" x1="263" x2="3036" y1="1055.54" y2="1055.54"/>
  <g id="H-reference" style="fill:#27AAE1;stroke:none;" transform="matrix(1 0 0 1 339 1556)">
   <path d="M 0.976562 0 L 3.66211 0 L 12.9883 -24.4629 L 45.7031 -24.4629 L 55.0781 0 L 57.7148 0 L 30.6152 -70.459 L 28.125 -70.459 Z M 29.2969 -67.1387 L 29.3945 -67.1387 L 44.873 -26.709 L 13.8672 -26.709 Z"/>
  </g>
  <line id="Baseline-L" style="fill:none;stroke:#27AAE1;opacity:1;stroke-width:0.5;" x1="263" x2="3036" y1="1556" y2="1556"/>
  <line id="Capline-L" style="fill:none;stroke:#27AAE1;opacity:1;stroke-width:0.5;" x1="263" x2="3036" y1="1485.54" y2="1485.54"/>
  <line id="left-margin" style="fill:none;stroke:#00AEEF;stroke-width:0.5;opacity:1.0;" x1="1374.77" x2="1374.77" y1="1030.79" y2="1150.12"/>
  <line id="right-margin" style="fill:none;stroke:#00AEEF;stroke-width:0.5;opacity:1.0;" x1="1524.92" x2="1524.92" y1="1030.79" y2="1150.12"/>
 </g>
 <g id="Symbols">
  <g id="Black-L" transform="matrix(1 0 0 1 2828.44 1556)">
   <path d="M 162.402 11.6699 L 175.293 -40.8203 C 185.693 -41.9434 193.848 -50.7324 193.848 -61.5234 C 193.848 -72.9492 184.521 -82.2266 173.096 -82.2266 C 161.621 -82.2266 152.344 -72.9004 152.344 -61.5234 C 152.344 -60.0586 152.49 -58.5938 152.783 -57.2266 L 139.404 -48.877 C 138.33 -48.2422 137.646 -48.3887 137.061 -49.2188 L 118.848 -73.9746 C 123.047 -77.7832 125.684 -83.3008 125.684 -89.4043 C 125.684 -100.83 116.406 -110.107 104.98 -110.107 C 93.5059 -110.107 84.1797 -100.83 84.1797 -89.4043 C 84.1797 -83.3008 86.8164 -77.7832 91.0645 -73.9746 L 73.291 -49.8047 C 72.7051 -48.9746 72.0215 -48.7793 70.9473 -49.4629 L 57.2754 -58.0078 C 57.4707 -59.1309 57.5684 -60.3027 57.5684 -61.5234 C 57.5684 -72.9004 48.291 -82.2266 36.8652 -82.2266 C 25.3418 -82.2266 16.0645 -72.9492 16.0645 -61.5234 C 16.0645 -50.7324 24.2188 -41.9434 34.668 -40.8203 L 47.5586 11.6699 C 50.4883 23.7793 57.666 29.8828 69.8242 29.8828 L 140.137 29.8828 C 152.295 29.8828 159.473 23.7793 162.402 11.6699 Z M 104.98 -83.8867 C 101.904 -83.8867 99.4629 -86.377 99.4629 -89.4043 C 99.4629 -92.4316 101.904 -94.873 104.98 -94.873 C 107.959 -94.873 110.4 -92.3828 110.4 -89.4043 C 110.4 -86.377 108.008 -83.8867 104.98 -83.8867 Z M 36.8652 -56.0059 C 33.7891 -56.0059 31.3477 -58.4473 31.3477 -61.5234 C 31.3477 -64.5508 33.7891 -66.9434 36.8652 -66.9434 C 39.8438 -66.9434 42.2852 -64.502 42.2852 -61.5234 C 42.2852 -58.4473 39.8926 -56.0059 36.8652 -56.0059 Z M 173.096 -56.0059 C 170.02 -56.0059 167.627 -58.4473 167.627 -61.5234 C 167.627 -64.502 170.068 -66.9434 173.096 -66.9434 C 176.074 -66.9434 178.564 -64.5508 178.564 -61.5234 C 178.564 -58.4473 176.074 -56.0059 173.096 -56.0059 Z M 64.6973 -32.7637 C 72.5098 -28.2715 81.0547 -29.5898 86.2305 -36.6699 L 104.98 -62.0605 L 124.121 -36.084 C 129.297 -29.0039 137.891 -27.6855 145.703 -32.1777 L 155.762 -38.0371 L 150.342 -15.8203 L 59.6191 -15.8203 L 53.9551 -39.0137 Z M 69.7754 11.5723 C 67.5293 11.5723 66.0156 10.4492 65.4785 8.39844 L 64.0625 2.44141 L 145.898 2.44141 L 144.434 8.39844 C 143.945 10.4492 142.432 11.5723 140.186 11.5723 Z"/>
  </g>
  <g id="Heavy-L" transform="matrix(1 0 0 1 2534.05 1556)">
   <path d="M 158.398 10.5957 L 171.143 -41.2598 C 181.201 -41.9922 189.209 -50.4395 189.209 -60.7422 C 189.209 -71.4844 180.42 -80.2246 169.678 -80.2246 C 158.887 -80.2246 150.146 -71.4844 150.146 -60.7422 C 150.146 -59.082 150.342 -57.4219 150.732 -55.8594 L 136.865 -47.2656 C 135.498 -46.3867 134.57 -46.6309 133.74 -47.7051 L 115.137 -72.9004 C 119.434 -76.5137 122.168 -81.8848 122.168 -87.9395 C 122.168 -98.6328 113.379 -107.422 102.637 -107.422 C 91.8457 -107.422 83.1055 -98.6816 83.1055 -87.9395 C 83.1055 -81.8848 85.8398 -76.4648 90.1367 -72.9004 L 71.7773 -48.0469 C 70.9961 -47.0215 70.1172 -46.7773 68.7988 -47.6562 L 54.6387 -56.4453 C 54.9805 -57.8125 55.127 -59.2773 55.127 -60.7422 C 55.127 -71.4844 46.3867 -80.2246 35.6445 -80.2246 C 24.8047 -80.2246 16.0645 -71.4844 16.0645 -60.7422 C 16.0645 -50.4395 24.0723 -41.9922 34.1797 -41.2598 L 46.875 10.5957 C 49.707 22.168 56.3477 27.9297 68.0176 27.9297 L 137.305 27.9297 C 148.926 27.9297 155.615 22.168 158.398 10.5957 Z M 102.637 -82.0312 C 99.4141 -82.0312 96.7285 -84.668 96.7285 -87.9395 C 96.7285 -91.1621 99.4141 -93.75 102.637 -93.75 C 105.859 -93.75 108.496 -91.1133 108.496 -87.9395 C 108.496 -84.668 105.908 -82.0312 102.637 -82.0312 Z M 35.6445 -54.834 C 32.373 -54.834 29.7363 -57.4707 29.7363 -60.7422 C 29.7363 -64.0137 32.373 -66.6016 35.6445 -66.6016 C 38.8184 -66.6016 41.4551 -63.916 41.4551 -60.7422 C 41.4551 -57.4707 38.8672 -54.834 35.6445 -54.834 Z M 169.678 -54.834 C 166.357 -54.834 163.77 -57.4707 163.77 -60.7422 C 163.77 -63.916 166.455 -66.6016 169.678 -66.6016 C 172.9 -66.6016 175.537 -64.0137 175.537 -60.7422 C 175.537 -57.4707 172.9 -54.834 169.678 -54.834 Z M 63.2324 -33.1055 C 70.166 -29.0527 78.2227 -30.0781 83.1055 -36.7676 L 102.637 -63.1348 L 122.559 -36.2793 C 127.393 -29.6875 135.4 -28.6133 142.188 -32.5684 L 154.395 -39.7461 L 148.145 -14.0625 L 57.1777 -14.0625 L 50.7324 -40.4297 Z M 67.9199 12.0117 C 65.0391 12.0117 63.1836 10.5957 62.5488 7.91016 L 61.0352 1.80664 L 144.287 1.80664 L 142.773 7.91016 C 142.139 10.5957 140.283 12.0117 137.354 12.0117 Z"/>
  </g>
  <g id="Bold-L" transform="matrix(1 0 0 1 2239.95 1556)">
   <path d="M 153.955 9.42383 L 166.553 -41.6992 C 176.221 -42.0898 183.984 -50.0977 183.984 -59.9121 C 183.984 -69.873 175.879 -78.0273 165.82 -78.0273 C 155.811 -78.0273 147.656 -69.873 147.656 -59.9121 C 147.656 -57.959 147.949 -56.1523 148.535 -54.3945 L 134.082 -45.459 C 132.275 -44.3359 131.104 -44.6289 130.078 -46.0449 L 110.986 -71.7285 C 115.332 -75.0488 118.164 -80.3223 118.164 -86.2793 C 118.164 -96.2402 110.059 -104.395 100.049 -104.395 C 89.9902 -104.395 81.8848 -96.2402 81.8848 -86.2793 C 81.8848 -80.3223 84.7168 -75.0488 89.1602 -71.7285 L 70.0684 -46.0938 C 69.0918 -44.7754 68.0176 -44.5312 66.3574 -45.6055 L 51.6113 -54.6875 C 52.0996 -56.3477 52.3926 -58.1055 52.3926 -59.9121 C 52.3926 -69.873 44.2383 -78.0273 34.2773 -78.0273 C 24.2188 -78.0273 16.0645 -69.873 16.0645 -59.9121 C 16.0645 -50.0488 23.877 -42.0898 33.5938 -41.6992 L 46.1426 9.42383 C 48.8281 20.3125 54.8828 25.7324 65.9668 25.7324 L 134.131 25.7324 C 145.215 25.7324 151.318 20.3125 153.955 9.42383 Z M 100.049 -79.9316 C 96.582 -79.9316 93.7012 -82.7637 93.7012 -86.2793 C 93.7012 -89.7461 96.582 -92.5293 100.049 -92.5293 C 103.467 -92.5293 106.348 -89.6973 106.348 -86.2793 C 106.348 -82.7637 103.564 -79.9316 100.049 -79.9316 Z M 34.2773 -53.5645 C 30.7617 -53.5645 27.9297 -56.3965 27.9297 -59.9121 C 27.9297 -63.3789 30.7617 -66.1621 34.2773 -66.1621 C 37.6953 -66.1621 40.5273 -63.3301 40.5273 -59.9121 C 40.5273 -56.3965 37.7441 -53.5645 34.2773 -53.5645 Z M 165.82 -53.5645 C 162.305 -53.5645 159.521 -56.3965 159.521 -59.9121 C 159.521 -63.3301 162.354 -66.1621 165.82 -66.1621 C 169.287 -66.1621 172.168 -63.3789 172.168 -59.9121 C 172.168 -56.3965 169.287 -53.5645 165.82 -53.5645 Z M 61.5723 -33.4473 C 67.5781 -29.9316 75 -30.6152 79.5898 -36.8164 L 100.098 -64.2578 L 120.801 -36.4258 C 125.293 -30.4199 132.617 -29.6875 138.33 -33.0078 L 152.881 -41.6992 L 145.654 -12.0605 L 54.4434 -12.0605 L 47.1191 -42.0898 Z M 65.918 12.5 C 62.2559 12.5 60.0098 10.791 59.1797 7.37305 L 57.666 1.12305 L 142.432 1.12305 L 140.918 7.37305 C 140.088 10.791 137.842 12.5 134.229 12.5 Z"/>
  </g>
  <g id="Semibold-L" transform="matrix(1 0 0 1 1945.02 1556)">
   <path d="M 150.879 8.64258 L 163.33 -42.0898 C 172.656 -42.0898 180.42 -49.8047 180.42 -59.3262 C 180.42 -68.7988 172.705 -76.5137 163.184 -76.5137 C 153.711 -76.5137 145.996 -68.75 145.996 -59.3262 C 145.996 -57.2266 146.338 -55.2246 147.021 -53.418 L 132.129 -44.2383 C 130.078 -42.9199 128.711 -43.2617 127.49 -44.9219 L 108.057 -70.9473 C 112.549 -74.0723 115.43 -79.248 115.43 -85.1074 C 115.43 -94.5312 107.715 -102.295 98.291 -102.295 C 88.7207 -102.295 81.0059 -94.5801 81.0059 -85.1074 C 81.0059 -79.248 83.9844 -74.0234 88.4766 -70.8984 L 68.8965 -44.7754 C 67.8223 -43.2617 66.5527 -43.0176 64.6973 -44.1895 L 49.5117 -53.5645 C 50.1465 -55.3711 50.4883 -57.2754 50.4883 -59.3262 C 50.4883 -68.75 42.7734 -76.5137 33.3008 -76.5137 C 23.7793 -76.5137 16.0645 -68.7988 16.0645 -59.3262 C 16.0645 -49.8047 23.7305 -42.1387 33.2031 -42.0898 L 45.6543 8.64258 C 48.1934 19.0918 53.9062 24.2188 64.5996 24.2188 L 131.934 24.2188 C 142.627 24.2188 148.34 19.0918 150.879 8.64258 Z M 98.291 -78.4668 C 94.6289 -78.4668 91.6016 -81.4941 91.6016 -85.1074 C 91.6016 -88.7695 94.6289 -91.6992 98.291 -91.6992 C 101.855 -91.6992 104.834 -88.7207 104.834 -85.1074 C 104.834 -81.4941 101.953 -78.4668 98.291 -78.4668 Z M 33.3008 -52.6367 C 29.6387 -52.6367 26.6602 -55.6641 26.6602 -59.3262 C 26.6602 -62.9883 29.6387 -65.918 33.3008 -65.918 C 36.9141 -65.918 39.8926 -62.8906 39.8926 -59.3262 C 39.8926 -55.6641 36.9629 -52.6367 33.3008 -52.6367 Z M 163.184 -52.6367 C 159.473 -52.6367 156.592 -55.6641 156.592 -59.3262 C 156.592 -62.8906 159.57 -65.918 163.184 -65.918 C 166.797 -65.918 169.824 -62.9883 169.824 -59.3262 C 169.824 -55.6641 166.797 -52.6367 163.184 -52.6367 Z M 60.4492 -33.6914 C 65.8203 -30.5176 72.8027 -31.0059 77.1484 -36.8652 L 98.291 -65.0879 L 119.629 -36.5723 C 123.779 -30.9082 130.713 -30.3711 135.645 -33.3008 L 151.855 -43.0664 L 143.945 -10.7422 L 52.5879 -10.7422 L 44.6289 -43.2617 Z M 64.502 12.8418 C 60.3516 12.8418 57.8613 10.8887 56.8848 7.03125 L 55.3711 0.634766 L 141.162 0.634766 L 139.648 7.03125 C 138.672 10.8887 136.182 12.8418 132.031 12.8418 Z"/>
  </g>
  <g id="Medium-L" transform="matrix(1 0 0 1 1649.68 1556)">
   <path d="M 32.5684 -42.334 C 32.666 -42.334 32.7637 -42.334 32.8613 -42.334 L 45.2637 8.00781 C 47.7539 18.1152 53.125 23.0469 63.5254 23.0469 L 130.273 23.0469 C 140.674 23.0469 146.094 18.1152 148.535 8.00781 L 160.938 -42.334 C 161.035 -42.334 161.084 -42.334 161.182 -42.334 C 170.264 -42.334 177.686 -49.7559 177.686 -58.8867 C 177.686 -67.9199 170.312 -75.3418 161.182 -75.3418 C 152.1 -75.3418 144.678 -67.8711 144.678 -58.8867 C 144.678 -56.6895 145.117 -54.5898 145.898 -52.6367 L 130.664 -43.2617 C 128.369 -41.8457 126.904 -42.2363 125.586 -44.043 L 105.859 -70.3613 C 110.4 -73.3398 113.379 -78.418 113.379 -84.2285 C 113.379 -93.2617 106.006 -100.732 96.9238 -100.732 C 87.793 -100.732 80.3711 -93.3105 80.3711 -84.2285 C 80.3711 -78.418 83.4473 -73.291 88.0371 -70.3125 L 68.0176 -43.75 C 66.7969 -42.1387 65.4297 -41.8457 63.4277 -43.1152 L 47.8516 -52.6855 C 48.6328 -54.5898 49.0723 -56.6895 49.0723 -58.8867 C 49.0723 -67.8711 41.6504 -75.3418 32.5684 -75.3418 C 23.4375 -75.3418 16.0645 -67.9199 16.0645 -58.8867 C 16.0645 -49.7559 23.4863 -42.334 32.5684 -42.334 Z M 96.9238 -77.3926 C 93.1641 -77.3926 90.0391 -80.4688 90.0391 -84.2285 C 90.0391 -88.0371 93.1641 -91.0645 96.9238 -91.0645 C 100.635 -91.0645 103.711 -87.9395 103.711 -84.2285 C 103.711 -80.4688 100.732 -77.3926 96.9238 -77.3926 Z M 32.5684 -52.002 C 28.8086 -52.002 25.6836 -55.0781 25.6836 -58.8867 C 25.6836 -62.6465 28.8086 -65.6738 32.5684 -65.6738 C 36.2793 -65.6738 39.4043 -62.5977 39.4043 -58.8867 C 39.4043 -55.0781 36.377 -52.002 32.5684 -52.002 Z M 161.182 -52.002 C 157.373 -52.002 154.346 -55.0781 154.346 -58.8867 C 154.346 -62.5977 157.471 -65.6738 161.182 -65.6738 C 164.941 -65.6738 168.066 -62.6465 168.066 -58.8867 C 168.066 -55.0781 164.941 -52.002 161.182 -52.002 Z M 59.6191 -33.8867 C 64.4531 -30.957 71.1426 -31.2988 75.3418 -36.9141 L 96.9727 -65.6738 L 118.701 -36.6699 C 122.705 -31.2988 129.297 -30.9082 133.594 -33.5449 L 151.074 -44.1406 L 142.676 -9.7168 L 51.1719 -9.7168 L 42.7246 -44.1406 Z M 63.4277 13.0859 C 58.8867 13.0859 56.2012 10.9863 55.1758 6.73828 L 53.5645 0.292969 L 140.234 0.292969 L 138.672 6.73828 C 137.598 10.9863 134.912 13.0859 130.371 13.0859 Z"/>
  </g>
  <g id="Regular-L" transform="matrix(1 0 0 1 1354.73 1556)">
   <path d="M 31.6406 -42.6758 C 31.9336 -42.6758 32.1777 -42.7246 32.4707 -42.7246 L 44.7754 7.22656 C 47.1191 16.8945 52.1484 21.582 62.1094 21.582 L 128.125 21.582 C 138.135 21.582 143.164 16.8945 145.508 7.22656 L 157.812 -42.7246 C 158.057 -42.7246 158.301 -42.6758 158.545 -42.6758 C 167.139 -42.6758 174.17 -49.6582 174.17 -58.3008 C 174.17 -66.8457 167.188 -73.8281 158.545 -73.8281 C 150 -73.8281 143.018 -66.7969 143.018 -58.3008 C 143.018 -55.9082 143.555 -53.7109 144.482 -51.709 L 128.76 -42.041 C 126.221 -40.4785 124.561 -40.8691 123.047 -42.9199 L 102.93 -69.6289 C 107.568 -72.3633 110.693 -77.3438 110.693 -83.1055 C 110.693 -91.6504 103.711 -98.6328 95.1172 -98.6328 C 86.5234 -98.6328 79.541 -91.6992 79.541 -83.1055 C 79.541 -77.3438 82.7148 -72.2656 87.4023 -69.5801 L 66.8945 -42.4316 C 65.5273 -40.625 64.0137 -40.2832 61.7676 -41.6992 L 45.6543 -51.5625 C 46.6309 -53.6133 47.168 -55.9082 47.168 -58.3008 C 47.168 -66.7969 40.1855 -73.8281 31.6406 -73.8281 C 23.0469 -73.8281 16.0645 -66.8457 16.0645 -58.3008 C 16.0645 -49.6582 23.0957 -42.6758 31.6406 -42.6758 Z M 95.1172 -75.9277 C 91.2109 -75.9277 87.9395 -79.1992 87.9395 -83.1055 C 87.9395 -87.1094 91.2109 -90.2344 95.1172 -90.2344 C 99.0234 -90.2344 102.246 -87.0117 102.246 -83.1055 C 102.246 -79.1992 99.1211 -75.9277 95.1172 -75.9277 Z M 58.4961 -34.1309 C 62.6953 -31.543 68.9941 -31.6406 72.9492 -36.9629 L 95.2148 -66.4062 L 117.529 -36.7676 C 121.24 -31.8359 127.393 -31.6406 130.908 -33.8379 L 149.805 -45.4102 C 149.854 -45.3613 149.951 -45.3125 150 -45.2637 L 140.967 -8.34961 L 49.3164 -8.34961 L 40.2832 -45.3125 Z M 31.6406 -51.123 C 27.7344 -51.123 24.4629 -54.3457 24.4629 -58.3008 C 24.4629 -62.2559 27.7344 -65.4297 31.6406 -65.4297 C 35.5469 -65.4297 38.7695 -62.1582 38.7695 -58.3008 C 38.7695 -54.3457 35.6445 -51.123 31.6406 -51.123 Z M 158.545 -51.123 C 154.59 -51.123 151.416 -54.3457 151.416 -58.3008 C 151.416 -62.1582 154.688 -65.4297 158.545 -65.4297 C 162.5 -65.4297 165.723 -62.2559 165.723 -58.3008 C 165.723 -54.3457 162.5 -51.123 158.545 -51.123 Z M 62.0605 13.4277 C 56.9824 13.4277 54.0527 11.084 52.8809 6.34766 L 51.2695 -0.195312 L 138.965 -0.195312 L 137.402 6.34766 C 136.23 11.084 133.301 13.4277 128.223 13.4277 Z"/>
  </g>
  <g id="Light-L" transform="matrix(1 0 0 1 1060.43 1556)">
   <path d="M 30.6152 -43.5059 C 31.1523 -43.5059 31.6406 -43.5547 32.1289 -43.6035 L 44.5312 6.83594 C 46.8262 16.2109 51.5625 20.459 61.0352 20.459 L 124.463 20.459 C 133.936 20.459 138.672 16.2109 140.967 6.83594 L 153.369 -43.6035 C 153.857 -43.5547 154.297 -43.5059 154.785 -43.5059 C 162.793 -43.5059 169.336 -50.0488 169.336 -58.1055 C 169.336 -66.1133 162.793 -72.6562 154.785 -72.6562 C 146.777 -72.6562 140.234 -66.0645 140.234 -58.1055 C 140.234 -55.2734 141.016 -52.6855 142.383 -50.4395 L 126.27 -40.5762 C 123.34 -38.7695 121.24 -39.209 119.336 -41.6992 L 99.1699 -68.0176 C 103.955 -70.4102 107.275 -75.3906 107.275 -81.1035 C 107.275 -89.0625 100.781 -95.6543 92.7734 -95.6543 C 84.7168 -95.6543 78.1738 -89.1113 78.1738 -81.1035 C 78.1738 -75.293 81.5918 -70.3125 86.4746 -67.9688 L 65.625 -40.8691 C 63.9648 -38.7695 62.0605 -38.5254 59.6191 -39.9902 L 42.8711 -50.293 C 44.3359 -52.5391 45.166 -55.2246 45.166 -58.1055 C 45.166 -66.0645 38.623 -72.6562 30.6152 -72.6562 C 22.6074 -72.6562 16.0645 -66.1133 16.0645 -58.1055 C 16.0645 -50.0488 22.6074 -43.5059 30.6152 -43.5059 Z M 92.7734 -72.998 C 88.3301 -72.998 84.668 -76.6602 84.668 -81.1035 C 84.668 -85.5957 88.3301 -89.1602 92.7734 -89.1602 C 97.168 -89.1602 100.83 -85.498 100.83 -81.1035 C 100.83 -76.6602 97.2168 -72.998 92.7734 -72.998 Z M 30.6152 -50 C 26.1719 -50 22.5098 -53.6621 22.5098 -58.1055 C 22.5098 -62.5488 26.1719 -66.1621 30.6152 -66.1621 C 35.0586 -66.1621 38.7207 -62.5 38.7207 -58.1055 C 38.7207 -53.6621 35.1074 -50 30.6152 -50 Z M 154.785 -50 C 150.293 -50 146.68 -53.6621 146.68 -58.1055 C 146.68 -62.5 150.342 -66.1621 154.785 -66.1621 C 159.229 -66.1621 162.891 -62.5488 162.891 -58.1055 C 162.891 -53.6621 159.229 -50 154.785 -50 Z M 56.6895 -34.4238 C 61.084 -31.6895 66.7969 -32.0312 70.5078 -36.9141 L 92.8223 -65.918 L 115.332 -36.6211 C 118.604 -32.2754 124.121 -31.8359 127.49 -33.8867 L 146.924 -45.8496 C 147.07 -45.752 147.217 -45.6543 147.314 -45.6055 L 137.842 -6.68945 L 47.7051 -6.68945 L 38.1836 -45.6543 L 38.2812 -45.7031 Z M 60.9375 14.1602 C 55.4688 14.1602 52.1484 11.5723 50.8789 6.39648 L 49.2188 -0.390625 L 136.279 -0.390625 L 134.619 6.39648 C 133.35 11.5723 130.029 14.1602 124.561 14.1602 Z"/>
  </g>
  <g id="Thin-L" transform="matrix(1 0 0 1 766.896 1556)">
   <path d="M 29.2969 -44.6289 C 30.0781 -44.6289 30.8594 -44.6777 31.6406 -44.8242 L 44.2871 6.29883 C 46.4844 15.332 50.8301 18.9941 59.5703 18.9941 L 119.629 18.9941 C 128.369 18.9941 132.715 15.332 134.912 6.29883 L 147.559 -44.8242 C 148.291 -44.6777 149.023 -44.6289 149.756 -44.6289 C 157.031 -44.6289 162.988 -50.5859 162.988 -57.8613 C 162.988 -65.1367 157.031 -71.0449 149.756 -71.0449 C 142.48 -71.0449 136.523 -65.1367 136.523 -57.8613 C 136.523 -54.4434 137.842 -51.3184 139.99 -48.9746 L 122.998 -38.623 C 119.58 -36.5234 116.797 -36.9629 114.453 -40.0391 L 94.043 -65.9668 C 99.1699 -67.8223 102.832 -72.7051 102.832 -78.418 C 102.832 -85.6934 96.875 -91.6504 89.5996 -91.6504 C 82.3242 -91.6504 76.3672 -85.6934 76.3672 -78.418 C 76.3672 -72.6562 80.1758 -67.6758 85.3516 -65.918 L 63.9648 -38.8672 C 61.9629 -36.3281 59.4727 -36.1328 56.7871 -37.793 L 38.8672 -48.7793 C 41.1133 -51.123 42.4805 -54.3457 42.4805 -57.8613 C 42.4805 -65.1367 36.5723 -71.0449 29.2969 -71.0449 C 22.0215 -71.0449 16.0645 -65.1367 16.0645 -57.8613 C 16.0645 -50.5859 22.0215 -44.6289 29.2969 -44.6289 Z M 89.5996 -69.0918 C 84.4727 -69.0918 80.2734 -73.291 80.2734 -78.418 C 80.2734 -83.5938 84.4727 -87.7441 89.5996 -87.7441 C 94.7266 -87.7441 98.9258 -83.5449 98.9258 -78.418 C 98.9258 -73.291 94.7266 -69.0918 89.5996 -69.0918 Z M 29.2969 -48.5352 C 24.1699 -48.5352 19.9707 -52.7344 19.9707 -57.8613 C 19.9707 -62.9883 24.1699 -67.1875 29.2969 -67.1875 C 34.4238 -67.1875 38.623 -62.9883 38.623 -57.8613 C 38.623 -52.7344 34.4238 -48.5352 29.2969 -48.5352 Z M 149.756 -48.5352 C 144.629 -48.5352 140.43 -52.7344 140.43 -57.8613 C 140.43 -62.9883 144.629 -67.1875 149.756 -67.1875 C 154.883 -67.1875 159.082 -62.9883 159.082 -57.8613 C 159.082 -52.7344 154.883 -48.5352 149.756 -48.5352 Z M 54.248 -34.7656 C 58.9844 -31.8359 63.9648 -32.5684 67.2852 -36.8164 L 89.6973 -65.2344 L 89.7949 -65.2344 L 112.402 -36.4258 C 115.088 -32.9102 119.775 -32.0801 122.949 -34.0332 L 143.164 -46.4355 C 143.359 -46.2891 143.604 -46.1914 143.799 -46.0449 L 133.643 -4.49219 L 45.5566 -4.49219 L 35.4004 -46.1426 C 35.4492 -46.1426 35.498 -46.1914 35.5957 -46.2402 Z M 59.4727 15.1367 C 53.418 15.1367 49.6094 12.1582 48.1934 6.44531 L 46.4844 -0.634766 L 132.715 -0.634766 L 131.006 6.44531 C 129.59 12.1582 125.781 15.1367 119.727 15.1367 Z"/>
  </g>
  <g id="Ultralight-L" transform="matrix(1 0 0 1 471.82 1556)">
   <path d="M 28.6133 -45.2148 C 29.541 -45.2148 30.5176 -45.3125 31.3965 -45.5078 L 44.1406 6.00586 C 46.2891 14.8438 50.4395 18.2617 58.7891 18.2617 L 117.139 18.2617 C 125.488 18.2617 129.688 14.8438 131.836 6.00586 L 144.58 -45.459 C 145.41 -45.3125 146.289 -45.2148 147.217 -45.2148 C 154.102 -45.2148 159.717 -50.8301 159.717 -57.7148 C 159.717 -64.5996 154.102 -70.2637 147.217 -70.2637 C 140.283 -70.2637 134.668 -64.6484 134.668 -57.7148 C 134.668 -54.0039 136.279 -50.6348 138.916 -48.3398 L 121.338 -37.5977 C 117.676 -35.3516 114.551 -35.8398 111.914 -39.209 L 91.3574 -64.9902 C 96.6309 -66.5039 100.537 -71.3379 100.537 -77.0508 C 100.537 -83.9844 94.873 -89.5996 87.9883 -89.5996 C 81.1035 -89.5996 75.4395 -83.9844 75.4395 -77.0508 C 75.4395 -71.2402 79.4922 -66.3086 84.8633 -64.9414 L 63.0859 -37.8418 C 60.9375 -35.0586 58.1055 -34.9121 55.3223 -36.6699 L 36.6211 -48.0957 C 39.3555 -50.3906 41.1621 -53.8574 41.1621 -57.7148 C 41.1621 -64.6484 35.498 -70.2637 28.6133 -70.2637 C 21.7285 -70.2637 16.0645 -64.5996 16.0645 -57.7148 C 16.0645 -50.8301 21.6797 -45.2148 28.6133 -45.2148 Z M 87.9883 -67.1387 C 82.5195 -67.1387 78.0273 -71.582 78.0273 -77.0508 C 78.0273 -82.5195 82.5195 -87.0117 87.9883 -87.0117 C 93.457 -87.0117 97.9492 -82.5684 97.9492 -77.0508 C 97.9492 -71.582 93.457 -67.1387 87.9883 -67.1387 Z M 28.6133 -47.7539 C 23.1445 -47.7539 18.6523 -52.2461 18.6523 -57.7148 C 18.6523 -63.1836 23.1445 -67.6758 28.6133 -67.6758 C 34.082 -67.6758 38.5742 -63.2324 38.5742 -57.7148 C 38.5742 -52.2461 34.082 -47.7539 28.6133 -47.7539 Z M 147.217 -47.7539 C 141.748 -47.7539 137.256 -52.2461 137.256 -57.7148 C 137.256 -63.2324 141.699 -67.6758 147.217 -67.6758 C 152.686 -67.6758 157.129 -63.1836 157.129 -57.7148 C 157.129 -52.2461 152.686 -47.7539 147.217 -47.7539 Z M 87.9883 -64.5508 C 88.1348 -64.5508 88.2812 -64.5508 88.4277 -64.5508 L 110.889 -36.3281 C 113.33 -33.252 117.529 -32.1777 120.605 -34.082 L 141.211 -46.7285 C 141.504 -46.582 141.748 -46.4355 141.992 -46.3379 L 131.543 -3.36914 L 44.4336 -3.36914 L 33.9355 -46.3867 C 34.0332 -46.4355 34.1309 -46.4844 34.1797 -46.5332 L 53.0273 -34.9609 C 57.9102 -31.9336 62.5 -32.8125 65.625 -36.7676 L 87.8418 -64.4531 L 87.6953 -64.5508 C 87.793 -64.5508 87.8906 -64.5508 87.9883 -64.5508 Z M 58.7402 15.625 C 52.3926 15.625 48.3398 12.5 46.8262 6.49414 L 45.0684 -0.732422 L 130.859 -0.732422 L 129.102 6.49414 C 127.637 12.5 123.584 15.625 117.236 15.625 Z"/>
  </g>
  <g id="Black-M" transform="matrix(1 0 0 1 2850.22 1126)">
   <path d="M 128.809 2.29492 L 139.062 -39.4531 C 147.412 -40.5762 153.906 -47.8027 153.906 -56.543 C 153.906 -65.9668 146.191 -73.6816 136.768 -73.6816 C 127.246 -73.6816 119.531 -65.9668 119.531 -56.543 C 119.531 -55.4199 119.629 -54.3457 119.824 -53.2715 L 110.107 -47.2168 C 109.57 -46.875 109.082 -46.9238 108.691 -47.4121 L 95.166 -65.7715 C 98.3887 -68.8965 100.391 -73.291 100.391 -78.1738 C 100.391 -87.5977 92.6758 -95.3125 83.2031 -95.3125 C 73.6816 -95.3125 65.9668 -87.5977 65.9668 -78.1738 C 65.9668 -73.291 68.0176 -68.8965 71.2402 -65.7715 L 58.2031 -48.0469 C 57.8125 -47.5586 57.3242 -47.5098 56.7871 -47.8516 L 46.6797 -54.1504 C 46.7773 -54.9316 46.8262 -55.7129 46.8262 -56.543 C 46.8262 -65.9668 39.1602 -73.6816 29.6875 -73.6816 C 20.166 -73.6816 12.4512 -65.9668 12.4512 -56.543 C 12.4512 -47.8027 18.9453 -40.5762 27.3926 -39.4531 L 37.6465 2.29492 C 40.0879 12.3047 46.1426 17.2363 55.957 17.2363 L 110.449 17.2363 C 120.264 17.2363 126.367 12.3047 128.809 2.29492 Z M 83.2031 -73.9258 C 80.8594 -73.9258 79.0039 -75.7812 79.0039 -78.1738 C 79.0039 -80.4688 80.8594 -82.3242 83.2031 -82.3242 C 85.5469 -82.3242 87.4023 -80.4688 87.4023 -78.1738 C 87.4023 -75.7812 85.498 -73.9258 83.2031 -73.9258 Z M 29.6875 -52.2949 C 27.2949 -52.2949 25.4395 -54.1504 25.4395 -56.543 C 25.4395 -58.8379 27.2949 -60.6934 29.6875 -60.6934 C 31.9824 -60.6934 33.8379 -58.8379 33.8379 -56.543 C 33.8379 -54.1504 31.9824 -52.2949 29.6875 -52.2949 Z M 136.768 -52.2949 C 134.375 -52.2949 132.52 -54.1504 132.52 -56.543 C 132.52 -58.8379 134.375 -60.6934 136.768 -60.6934 C 139.062 -60.6934 140.918 -58.8379 140.918 -56.543 C 140.918 -54.1504 139.062 -52.2949 136.768 -52.2949 Z M 51.123 -33.0566 C 58.4473 -28.9062 65.5273 -30.4199 69.7754 -36.2305 L 83.2031 -54.4434 L 97.1191 -35.5957 C 101.367 -29.7852 108.447 -28.2715 115.771 -32.4219 L 121.191 -35.498 L 117.822 -21.6797 L 48.584 -21.6797 L 44.9707 -36.5234 Z M 55.9082 0.878906 C 54.834 0.878906 53.9551 0.195312 53.7109 -0.732422 L 52.5879 -5.27344 L 113.818 -5.27344 L 112.744 -0.732422 C 112.5 0.195312 111.572 0.878906 110.498 0.878906 Z"/>
  </g>
  <g id="Heavy-M" transform="matrix(1 0 0 1 2555.41 1126)">
   <path d="M 125.635 1.26953 L 135.693 -39.6973 C 143.75 -40.5273 150.098 -47.4121 150.098 -55.7617 C 150.098 -64.5996 142.871 -71.8262 133.984 -71.8262 C 125.049 -71.8262 117.871 -64.5996 117.871 -55.7617 C 117.871 -54.541 117.969 -53.3203 118.213 -52.1973 L 108.008 -45.8496 C 107.178 -45.3125 106.543 -45.4102 106.055 -46.0938 L 92.0898 -65.0391 C 95.3125 -68.0176 97.4121 -72.3145 97.4121 -77.0508 C 97.4121 -85.8887 90.1855 -93.1641 81.2988 -93.1641 C 72.3633 -93.1641 65.1367 -85.9375 65.1367 -77.0508 C 65.1367 -72.2656 67.2363 -68.0176 70.5078 -65.0391 L 56.8359 -46.5332 C 56.3477 -45.8984 55.7617 -45.752 54.9805 -46.2891 L 44.4336 -52.832 C 44.6289 -53.7598 44.6777 -54.7363 44.6777 -55.7617 C 44.6777 -64.5996 37.4512 -71.8262 28.6133 -71.8262 C 19.6777 -71.8262 12.4512 -64.5996 12.4512 -55.7617 C 12.4512 -47.3633 18.7988 -40.5273 26.9043 -39.6973 L 36.9629 1.26953 C 39.2578 10.7422 44.873 15.4297 54.2969 15.4297 L 108.301 15.4297 C 117.725 15.4297 123.34 10.7422 125.635 1.26953 Z M 81.2988 -72.6074 C 78.8574 -72.6074 76.8555 -74.6094 76.8555 -77.0508 C 76.8555 -79.4922 78.8574 -81.3965 81.2988 -81.3965 C 83.6914 -81.3965 85.6445 -79.4434 85.6445 -77.0508 C 85.6445 -74.6094 83.7402 -72.6074 81.2988 -72.6074 Z M 28.6133 -51.3184 C 26.123 -51.3184 24.1699 -53.2715 24.1699 -55.7617 C 24.1699 -58.1543 26.123 -60.1074 28.6133 -60.1074 C 31.0059 -60.1074 32.959 -58.1543 32.959 -55.7617 C 32.959 -53.2715 31.0059 -51.3184 28.6133 -51.3184 Z M 133.984 -51.3184 C 131.543 -51.3184 129.59 -53.2715 129.59 -55.7617 C 129.59 -58.1543 131.543 -60.1074 133.984 -60.1074 C 136.377 -60.1074 138.379 -58.1543 138.379 -55.7617 C 138.379 -53.2715 136.377 -51.3184 133.984 -51.3184 Z M 50 -33.3496 C 56.3477 -29.6875 62.9883 -30.8594 66.9922 -36.3281 L 81.2988 -55.6641 L 95.9961 -35.8398 C 99.9512 -30.3711 106.592 -29.1992 112.842 -32.8125 L 120.361 -37.1582 L 116.211 -20.166 L 46.3867 -20.166 L 42.041 -37.9395 Z M 54.1992 1.17188 C 52.5391 1.17188 51.3672 0.244141 50.9766 -1.26953 L 49.8535 -5.9082 L 112.744 -5.9082 L 111.621 -1.26953 C 111.23 0.244141 110.059 1.17188 108.398 1.17188 Z"/>
  </g>
  <g id="Bold-M" transform="matrix(1 0 0 1 2260.85 1126)">
   <path d="M 122.07 0.0976562 L 131.934 -39.9414 C 139.648 -40.4785 145.801 -46.9727 145.801 -54.8828 C 145.801 -63.0859 139.111 -69.7266 130.908 -69.7266 C 122.656 -69.7266 115.967 -63.0371 115.967 -54.8828 C 115.967 -53.5156 116.162 -52.2461 116.504 -51.0254 L 105.664 -44.2871 C 104.492 -43.5547 103.76 -43.75 103.076 -44.6289 L 88.5742 -64.2578 C 91.8945 -66.9922 94.043 -71.1426 94.043 -75.8301 C 94.043 -83.9844 87.3535 -90.7227 79.1504 -90.7227 C 70.8984 -90.7227 64.209 -84.0332 64.209 -75.8301 C 64.209 -71.1426 66.3574 -66.9922 69.7266 -64.2578 L 55.3711 -44.873 C 54.7363 -43.9941 54.0039 -43.8477 52.9297 -44.5312 L 41.8945 -51.3672 C 42.1387 -52.4902 42.2852 -53.6621 42.2852 -54.8828 C 42.2852 -63.0371 35.5957 -69.7266 27.3926 -69.7266 C 19.1406 -69.7266 12.4512 -63.0859 12.4512 -54.8828 C 12.4512 -46.9238 18.6035 -40.4785 26.3672 -39.9414 L 36.2305 0.0976562 C 38.3789 8.93555 43.457 13.3301 52.3926 13.3301 L 105.908 13.3301 C 114.844 13.3301 119.922 8.93555 122.07 0.0976562 Z M 79.1504 -71.1914 C 76.6113 -71.1914 74.5117 -73.2422 74.5117 -75.8301 C 74.5117 -78.3691 76.6113 -80.4199 79.1504 -80.4199 C 81.6406 -80.4199 83.7402 -78.3203 83.7402 -75.8301 C 83.7402 -73.2422 81.6895 -71.1914 79.1504 -71.1914 Z M 27.3926 -50.2441 C 24.8535 -50.2441 22.7539 -52.2949 22.7539 -54.8828 C 22.7539 -57.4219 24.8535 -59.4238 27.3926 -59.4238 C 29.8828 -59.4238 31.9824 -57.373 31.9824 -54.8828 C 31.9824 -52.2949 29.9316 -50.2441 27.3926 -50.2441 Z M 130.908 -50.2441 C 128.32 -50.2441 126.27 -52.2949 126.27 -54.8828 C 126.27 -57.373 128.369 -59.4238 130.908 -59.4238 C 133.398 -59.4238 135.498 -57.4219 135.498 -54.8828 C 135.498 -52.2949 133.398 -50.2441 130.908 -50.2441 Z M 48.7305 -33.6426 C 53.9551 -30.6152 60.1074 -31.3477 63.8672 -36.4258 L 79.1504 -57.0312 L 94.7266 -36.084 C 98.3887 -31.0547 104.541 -30.2734 109.619 -33.252 L 119.434 -39.0625 L 114.453 -18.5059 L 43.8477 -18.5059 L 38.7207 -39.5508 Z M 52.3438 1.46484 C 49.9512 1.46484 48.4375 0.292969 47.9004 -1.85547 L 46.7773 -6.64062 L 111.523 -6.64062 L 110.4 -1.85547 C 109.863 0.292969 108.35 1.46484 106.006 1.46484 Z"/>
  </g>
  <g id="Semibold-M" transform="matrix(1 0 0 1 1965.61 1126)">
   <path d="M 119.629 -0.683594 L 129.346 -40.1367 C 136.816 -40.4785 142.871 -46.6309 142.871 -54.248 C 142.871 -62.0117 136.523 -68.3105 128.76 -68.3105 C 120.996 -68.3105 114.697 -61.9629 114.697 -54.248 C 114.697 -52.832 114.893 -51.4648 115.283 -50.1953 L 104.004 -43.2129 C 102.637 -42.334 101.807 -42.5781 101.074 -43.6523 L 86.1816 -63.7207 C 89.5508 -66.3086 91.748 -70.3613 91.748 -74.9512 C 91.748 -82.666 85.4004 -89.0137 77.6855 -89.0137 C 69.873 -89.0137 63.5742 -82.7148 63.5742 -74.9512 C 63.5742 -70.3613 65.7715 -66.2598 69.1895 -63.7207 L 54.3457 -43.7012 C 53.6133 -42.7246 52.832 -42.5293 51.5137 -43.3105 L 40.0879 -50.3906 C 40.4297 -51.6113 40.625 -52.9297 40.625 -54.248 C 40.625 -61.9629 34.3262 -68.3105 26.5625 -68.3105 C 18.75 -68.3105 12.4512 -62.0117 12.4512 -54.248 C 12.4512 -46.6309 18.5059 -40.4297 26.0254 -40.1367 L 35.6934 -0.683594 C 37.7441 7.71484 42.4316 11.9141 51.0742 11.9141 L 104.248 11.9141 C 112.891 11.9141 117.578 7.71484 119.629 -0.683594 Z M 77.6855 -70.166 C 75.0488 -70.166 72.9004 -72.3633 72.9004 -74.9512 C 72.9004 -77.5879 75.0488 -79.6875 77.6855 -79.6875 C 80.2246 -79.6875 82.4219 -77.5391 82.4219 -74.9512 C 82.4219 -72.3633 80.3223 -70.166 77.6855 -70.166 Z M 26.5625 -49.4629 C 23.9258 -49.4629 21.7773 -51.6113 21.7773 -54.248 C 21.7773 -56.8848 23.9258 -58.9844 26.5625 -58.9844 C 29.1504 -58.9844 31.2988 -56.8359 31.2988 -54.248 C 31.2988 -51.6113 29.1992 -49.4629 26.5625 -49.4629 Z M 128.76 -49.4629 C 126.123 -49.4629 124.023 -51.6113 124.023 -54.248 C 124.023 -56.8359 126.172 -58.9844 128.76 -58.9844 C 131.348 -58.9844 133.545 -56.8848 133.545 -54.248 C 133.545 -51.6113 131.348 -49.4629 128.76 -49.4629 Z M 47.9004 -33.8379 C 52.3438 -31.2012 58.1543 -31.6406 61.6699 -36.4746 L 77.6855 -58.0078 L 93.8477 -36.2305 C 97.3633 -31.4941 103.076 -31.0547 107.373 -33.5449 L 118.848 -40.4297 L 113.184 -17.334 L 42.1387 -17.334 L 36.4258 -40.6738 Z M 51.0254 1.66016 C 48.1445 1.66016 46.4355 0.341797 45.8008 -2.29492 L 44.6289 -7.12891 L 110.693 -7.12891 L 109.521 -2.29492 C 108.887 0.341797 107.178 1.66016 104.346 1.66016 Z"/>
  </g>
  <g id="Medium-M" transform="matrix(1 0 0 1 1670.02 1126)">
   <path d="M 117.773 -1.31836 L 127.393 -40.332 C 134.57 -40.332 140.625 -46.3379 140.625 -53.8086 C 140.625 -61.1816 134.57 -67.2363 127.148 -67.2363 C 119.727 -67.2363 113.721 -61.1816 113.721 -53.8086 C 113.721 -52.2949 113.965 -50.8789 114.404 -49.5605 L 102.783 -42.3828 C 101.27 -41.4551 100.342 -41.6992 99.5117 -42.8711 L 84.3262 -63.3301 C 87.7441 -65.7715 89.9902 -69.7754 89.9902 -74.3164 C 89.9902 -81.6895 83.9355 -87.7441 76.5625 -87.7441 C 69.0918 -87.7441 63.0859 -81.7383 63.0859 -74.3164 C 63.0859 -69.7754 65.332 -65.7715 68.7988 -63.3301 L 53.5645 -42.8223 C 52.7832 -41.748 51.9043 -41.5039 50.4883 -42.3828 L 38.7207 -49.6582 C 39.1113 -50.9766 39.3555 -52.3438 39.3555 -53.8086 C 39.3555 -61.1816 33.3496 -67.2363 25.9277 -67.2363 C 18.457 -67.2363 12.4512 -61.1816 12.4512 -53.8086 C 12.4512 -46.4355 18.4082 -40.4297 25.7324 -40.332 L 35.3027 -1.31836 C 37.3047 6.78711 41.6992 10.8398 50.0977 10.8398 L 103.027 10.8398 C 111.426 10.8398 115.82 6.78711 117.773 -1.31836 Z M 76.5625 -69.4336 C 73.877 -69.4336 71.6797 -71.6309 71.6797 -74.3164 C 71.6797 -77.0508 73.877 -79.1504 76.5625 -79.1504 C 79.1992 -79.1504 81.3965 -76.9531 81.3965 -74.3164 C 81.3965 -71.6309 79.248 -69.4336 76.5625 -69.4336 Z M 47.2168 -33.9844 C 51.123 -31.6895 56.6406 -31.9336 60.0586 -36.5234 L 76.5625 -58.7402 L 93.2129 -36.377 C 96.5332 -31.8359 102.002 -31.5918 105.664 -33.7891 L 118.359 -41.4551 L 112.256 -16.5039 L 40.8203 -16.5039 L 34.7168 -41.6016 Z M 25.9277 -48.9258 C 23.2422 -48.9258 21.0449 -51.123 21.0449 -53.8086 C 21.0449 -56.4941 23.2422 -58.6426 25.9277 -58.6426 C 28.5645 -58.6426 30.7617 -56.4453 30.7617 -53.8086 C 30.7617 -51.123 28.6133 -48.9258 25.9277 -48.9258 Z M 127.148 -48.9258 C 124.414 -48.9258 122.314 -51.123 122.314 -53.8086 C 122.314 -56.4453 124.512 -58.6426 127.148 -58.6426 C 129.834 -58.6426 132.031 -56.4941 132.031 -53.8086 C 132.031 -51.123 129.834 -48.9258 127.148 -48.9258 Z M 50 1.85547 C 46.8262 1.85547 44.9219 0.390625 44.2383 -2.58789 L 43.0176 -7.4707 L 110.059 -7.4707 L 108.887 -2.58789 C 108.154 0.390625 106.299 1.85547 103.076 1.85547 Z"/>
  </g>
  <g id="Regular-M" transform="matrix(1 0 0 1 1374.77 1126)">
   <path d="M 25.0977 -40.5273 L 25.3418 -40.5273 L 34.8145 -2.09961 C 36.6699 5.56641 40.7227 9.42383 48.7793 9.42383 L 101.367 9.42383 C 109.473 9.42383 113.477 5.56641 115.381 -2.09961 L 124.805 -40.5273 C 124.902 -40.5273 124.951 -40.5273 125.049 -40.5273 C 131.982 -40.5273 137.695 -46.1914 137.695 -53.2227 C 137.695 -60.1562 132.031 -65.8203 125.049 -65.8203 C 118.115 -65.8203 112.451 -60.1074 112.451 -53.2227 C 112.451 -51.6602 112.695 -50.1465 113.232 -48.7793 L 101.172 -41.3574 C 99.4141 -40.2344 98.4375 -40.5762 97.4609 -41.8945 L 81.9336 -62.8418 C 85.4004 -65.0879 87.6953 -69.043 87.6953 -73.4863 C 87.6953 -80.3711 82.0312 -86.084 75.0977 -86.084 C 68.0664 -86.084 62.4512 -80.4199 62.4512 -73.4863 C 62.4512 -68.9941 64.7949 -65.0879 68.3105 -62.8418 L 52.5391 -41.6992 C 51.6602 -40.4297 50.7324 -40.1855 49.0723 -41.2109 L 36.9141 -48.6816 C 37.4023 -50.0977 37.6953 -51.6113 37.6953 -53.2227 C 37.6953 -60.1074 32.0312 -65.8203 25.0977 -65.8203 C 18.1152 -65.8203 12.4512 -60.1562 12.4512 -53.2227 C 12.4512 -46.1914 18.1641 -40.5273 25.0977 -40.5273 Z M 75.0977 -68.457 C 72.3633 -68.457 70.0684 -70.752 70.0684 -73.4863 C 70.0684 -76.2695 72.3633 -78.4668 75.0977 -78.4668 C 77.7832 -78.4668 80.0781 -76.1719 80.0781 -73.4863 C 80.0781 -70.752 77.8809 -68.457 75.0977 -68.457 Z M 46.3867 -34.2285 C 49.5117 -32.3242 54.6875 -32.2266 57.9102 -36.5723 L 75.0977 -59.668 L 92.334 -36.5234 C 95.459 -32.3242 100.586 -32.3242 103.418 -34.082 L 117.725 -42.8711 L 117.773 -42.8711 L 111.035 -15.332 L 39.1113 -15.332 L 32.4219 -42.7734 Z M 25.0977 -48.1445 C 22.3633 -48.1445 20.0684 -50.4395 20.0684 -53.2227 C 20.0684 -56.0059 22.3633 -58.2031 25.0977 -58.2031 C 27.7832 -58.2031 30.0781 -55.9082 30.0781 -53.2227 C 30.0781 -50.4395 27.8809 -48.1445 25.0977 -48.1445 Z M 125.049 -48.1445 C 122.266 -48.1445 120.068 -50.4395 120.068 -53.2227 C 120.068 -55.9082 122.363 -58.2031 125.049 -58.2031 C 127.783 -58.2031 130.078 -56.0059 130.078 -53.2227 C 130.078 -50.4395 127.783 -48.1445 125.049 -48.1445 Z M 48.7305 2.05078 C 45.0684 2.05078 42.9688 0.439453 42.1387 -3.02734 L 40.918 -7.95898 L 109.229 -7.95898 L 108.057 -3.02734 C 107.227 0.439453 105.127 2.05078 101.465 2.05078 Z"/>
  </g>
  <g id="Light-M" transform="matrix(1 0 0 1 1080.21 1126)">
   <path d="M 24.2188 -41.3086 C 24.4629 -41.3086 24.7559 -41.3086 25.0488 -41.3086 L 34.6191 -2.44141 C 36.4258 4.93164 40.2344 8.44727 47.8027 8.44727 L 98.0957 8.44727 C 105.664 8.44727 109.473 4.93164 111.279 -2.44141 L 120.85 -41.3086 C 121.094 -41.3086 121.387 -41.3086 121.631 -41.3086 C 128.076 -41.3086 133.398 -46.5332 133.398 -53.0273 C 133.398 -59.4727 128.125 -64.7461 121.631 -64.7461 C 115.186 -64.7461 109.912 -59.4727 109.912 -53.0273 C 109.912 -51.0742 110.4 -49.2188 111.279 -47.5586 L 98.9746 -40.0391 C 96.875 -38.7207 95.459 -39.0625 94.1406 -40.7715 L 78.5645 -61.377 C 82.1777 -63.3789 84.668 -67.2363 84.668 -71.6797 C 84.668 -78.0762 79.3945 -83.3984 72.9492 -83.3984 C 66.4551 -83.3984 61.1816 -78.125 61.1816 -71.6797 C 61.1816 -67.1875 63.7207 -63.2812 67.4316 -61.3281 L 51.416 -40.2832 C 50.293 -38.8184 48.9746 -38.5742 47.168 -39.6973 L 34.5215 -47.4609 C 35.4004 -49.1211 35.8887 -51.0254 35.8887 -53.0273 C 35.8887 -59.4727 30.6641 -64.7461 24.2188 -64.7461 C 17.7246 -64.7461 12.4512 -59.4727 12.4512 -53.0273 C 12.4512 -46.5332 17.7246 -41.3086 24.2188 -41.3086 Z M 72.9492 -65.8203 C 69.7266 -65.8203 67.0898 -68.457 67.0898 -71.6797 C 67.0898 -74.9023 69.7266 -77.5391 72.9492 -77.5391 C 76.123 -77.5391 78.8086 -74.8535 78.8086 -71.6797 C 78.8086 -68.457 76.1719 -65.8203 72.9492 -65.8203 Z M 44.7266 -34.4727 C 48.0469 -32.4219 52.7344 -32.5684 55.7129 -36.5234 L 72.998 -59.2285 L 90.3809 -36.377 C 93.1152 -32.7637 97.6562 -32.5195 100.342 -34.1797 L 115.137 -43.2617 C 115.234 -43.2129 115.283 -43.1641 115.381 -43.1152 L 108.203 -13.8672 L 37.6953 -13.8672 L 30.5176 -43.1641 L 30.5664 -43.1641 Z M 24.2188 -47.168 C 20.9961 -47.168 18.3105 -49.8047 18.3105 -53.0273 C 18.3105 -56.2988 20.9961 -58.8867 24.2188 -58.8867 C 27.3926 -58.8867 30.0293 -56.2012 30.0293 -53.0273 C 30.0293 -49.8047 27.4414 -47.168 24.2188 -47.168 Z M 121.631 -47.168 C 118.408 -47.168 115.82 -49.8047 115.82 -53.0273 C 115.82 -56.2012 118.457 -58.8867 121.631 -58.8867 C 124.854 -58.8867 127.49 -56.2988 127.49 -53.0273 C 127.49 -49.8047 124.854 -47.168 121.631 -47.168 Z M 47.7051 2.73438 C 43.6523 2.73438 41.2598 0.830078 40.332 -2.97852 L 39.0625 -8.1543 L 106.836 -8.1543 L 105.566 -2.97852 C 104.639 0.830078 102.246 2.73438 98.1934 2.73438 Z"/>
  </g>
  <g id="Thin-M" transform="matrix(1 0 0 1 786.354 1126)">
   <path d="M 22.998 -42.2852 C 23.5352 -42.2852 24.0723 -42.334 24.6094 -42.3828 L 34.375 -2.92969 C 36.084 4.15039 39.5508 7.12891 46.4844 7.12891 L 93.75 7.12891 C 100.684 7.12891 104.15 4.15039 105.859 -2.92969 L 115.625 -42.3828 C 116.113 -42.334 116.65 -42.2852 117.139 -42.2852 C 122.949 -42.2852 127.686 -47.0215 127.686 -52.832 C 127.686 -58.5938 122.949 -63.3301 117.139 -63.3301 C 111.377 -63.3301 106.641 -58.5938 106.641 -52.832 C 106.641 -50.293 107.52 -47.998 108.984 -46.1914 L 96.0449 -38.2812 C 93.5059 -36.7188 91.4551 -37.0605 89.7461 -39.3066 L 74.0234 -59.5215 C 77.8809 -61.0352 80.6641 -64.8438 80.6641 -69.2871 C 80.6641 -75.0977 75.9277 -79.834 70.1172 -79.834 C 64.3066 -79.834 59.5703 -75.0977 59.5703 -69.2871 C 59.5703 -64.7949 62.4023 -60.9375 66.4062 -59.4238 L 49.9023 -38.4766 C 48.4375 -36.6211 46.6309 -36.4258 44.6289 -37.6953 L 31.0059 -46.0449 C 32.5684 -47.8516 33.4961 -50.2441 33.4961 -52.832 C 33.4961 -58.5938 28.7598 -63.3301 22.998 -63.3301 C 17.1875 -63.3301 12.4512 -58.5938 12.4512 -52.832 C 12.4512 -47.0215 17.1875 -42.2852 22.998 -42.2852 Z M 70.1172 -62.3047 C 66.3086 -62.3047 63.1836 -65.4785 63.1836 -69.2871 C 63.1836 -73.1445 66.3086 -76.2207 70.1172 -76.2207 C 73.9258 -76.2207 77.0996 -73.0957 77.0996 -69.2871 C 77.0996 -65.4785 73.9746 -62.3047 70.1172 -62.3047 Z M 22.998 -45.8496 C 19.1895 -45.8496 16.0156 -48.9746 16.0156 -52.832 C 16.0156 -56.6406 19.1895 -59.7656 22.998 -59.7656 C 26.8066 -59.7656 29.9316 -56.6406 29.9316 -52.832 C 29.9316 -48.9746 26.8066 -45.8496 22.998 -45.8496 Z M 117.139 -45.8496 C 113.33 -45.8496 110.205 -48.9746 110.205 -52.832 C 110.205 -56.6406 113.33 -59.7656 117.139 -59.7656 C 120.996 -59.7656 124.121 -56.6406 124.121 -52.832 C 124.121 -48.9746 120.996 -45.8496 117.139 -45.8496 Z M 42.5781 -34.8145 C 46.1914 -32.5684 50.1953 -33.0566 52.832 -36.4746 L 70.2148 -58.6426 L 87.7441 -36.2305 C 89.9414 -33.3008 93.75 -32.7148 96.2402 -34.2773 L 111.768 -43.75 C 111.914 -43.7012 112.061 -43.6035 112.207 -43.5059 L 104.492 -11.8652 L 35.7422 -11.8652 L 28.0273 -43.5547 L 28.1738 -43.6523 Z M 46.4355 3.61328 C 41.8457 3.61328 39.0137 1.36719 37.9395 -2.92969 L 36.6211 -8.34961 L 103.613 -8.34961 L 102.295 -2.92969 C 101.221 1.36719 98.3887 3.61328 93.8477 3.61328 Z"/>
  </g>
  <g id="Ultralight-M" transform="matrix(1 0 0 1 491.108 1126)">
   <path d="M 22.3633 -42.7734 C 23.0469 -42.7734 23.7305 -42.8711 24.4141 -42.9688 L 34.2773 -3.17383 C 35.9375 3.71094 39.209 6.44531 45.8008 6.44531 L 91.5527 6.44531 C 98.1445 6.44531 101.416 3.71094 103.076 -3.17383 L 112.939 -42.9688 C 113.574 -42.8223 114.209 -42.7734 114.844 -42.7734 C 120.312 -42.7734 124.756 -47.2656 124.756 -52.6855 C 124.756 -58.1543 120.312 -62.6465 114.844 -62.6465 C 109.375 -62.6465 104.932 -58.1543 104.932 -52.6855 C 104.932 -49.9023 106.104 -47.4121 107.959 -45.6055 L 94.5312 -37.3535 C 91.7969 -35.6934 89.4531 -36.0352 87.5 -38.5742 L 71.6309 -58.5938 C 75.6348 -59.8633 78.6133 -63.623 78.6133 -68.0664 C 78.6133 -73.5352 74.1211 -77.9785 68.6523 -77.9785 C 63.2324 -77.9785 58.7402 -73.5352 58.7402 -68.0664 C 58.7402 -63.5742 61.8164 -59.7168 65.918 -58.5449 L 49.1699 -37.5488 C 47.5098 -35.498 45.459 -35.3516 43.3105 -36.6699 L 29.0527 -45.4102 C 31.0547 -47.2168 32.2754 -49.8047 32.2754 -52.6855 C 32.2754 -58.1543 27.832 -62.6465 22.3633 -62.6465 C 16.8945 -62.6465 12.4512 -58.1543 12.4512 -52.6855 C 12.4512 -47.2656 16.8945 -42.7734 22.3633 -42.7734 Z M 68.6523 -60.5469 C 64.5508 -60.5469 61.1328 -63.916 61.1328 -68.0664 C 61.1328 -72.2168 64.5508 -75.5859 68.6523 -75.5859 C 72.8027 -75.5859 76.2207 -72.2168 76.2207 -68.0664 C 76.2207 -63.916 72.8027 -60.5469 68.6523 -60.5469 Z M 22.3633 -45.166 C 18.2129 -45.166 14.8438 -48.584 14.8438 -52.6855 C 14.8438 -56.8359 18.2129 -60.2051 22.3633 -60.2051 C 26.5137 -60.2051 29.8828 -56.8359 29.8828 -52.6855 C 29.8828 -48.584 26.5137 -45.166 22.3633 -45.166 Z M 114.844 -45.166 C 110.693 -45.166 107.324 -48.584 107.324 -52.6855 C 107.324 -56.8359 110.693 -60.2051 114.844 -60.2051 C 118.994 -60.2051 122.363 -56.8359 122.363 -52.6855 C 122.363 -48.584 118.994 -45.166 114.844 -45.166 Z M 68.6523 -58.1543 L 68.9453 -58.1543 L 86.377 -36.1328 C 88.3789 -33.5938 91.748 -32.8613 94.1895 -34.3262 L 110.01 -44.043 C 110.205 -43.9453 110.4 -43.8477 110.596 -43.75 L 102.588 -10.8887 L 34.7656 -10.8887 L 26.7578 -43.7988 C 26.8066 -43.8477 26.8555 -43.8477 26.9043 -43.8965 L 41.4551 -34.9609 C 45.2148 -32.666 48.877 -33.3008 51.3672 -36.4258 Z M 45.752 4.05273 C 40.918 4.05273 37.8418 1.66016 36.7188 -2.92969 L 35.3516 -8.44727 L 102.002 -8.44727 L 100.635 -2.92969 C 99.5117 1.66016 96.4355 4.05273 91.6016 4.05273 Z"/>
  </g>
  <g id="Black-S" transform="matrix(1 0 0 1 2868.34 696)">
   <path d="M 100.732 -5.9082 L 108.74 -38.5254 C 115.283 -39.4043 120.361 -45.0195 120.361 -51.8555 C 120.361 -59.2285 114.355 -65.2344 106.982 -65.2344 C 99.5605 -65.2344 93.5547 -59.2285 93.5547 -51.8555 C 93.5547 -50.9766 93.6523 -50.1465 93.7988 -49.3164 L 86.1328 -44.5312 C 85.6934 -44.2383 85.3027 -44.2871 85.0098 -44.6777 L 74.3652 -59.1309 C 76.9043 -61.5723 78.4668 -64.9902 78.4668 -68.7988 C 78.4668 -76.1719 72.4609 -82.1777 65.0879 -82.1777 C 57.666 -82.1777 51.6602 -76.1719 51.6602 -68.7988 C 51.6602 -64.9902 53.2227 -61.5723 55.7617 -59.1309 L 45.5078 -45.166 C 45.2148 -44.7754 44.8242 -44.7266 44.3848 -45.0195 L 36.4258 -50 C 36.5234 -50.5859 36.5723 -51.2207 36.5723 -51.8555 C 36.5723 -59.2285 30.5664 -65.2344 23.1934 -65.2344 C 15.7715 -65.2344 9.76562 -59.2285 9.76562 -51.8555 C 9.76562 -45.0195 14.8438 -39.4043 21.4355 -38.5254 L 29.4434 -5.9082 C 31.3477 1.9043 36.084 5.76172 43.75 5.76172 L 86.4258 5.76172 C 94.0918 5.76172 98.8281 1.9043 100.732 -5.9082 Z M 65.0879 -65.4785 C 63.2324 -65.4785 61.7676 -66.9434 61.7676 -68.7988 C 61.7676 -70.6055 63.2324 -72.0703 65.0879 -72.0703 C 66.8945 -72.0703 68.3594 -70.6055 68.3594 -68.7988 C 68.3594 -66.9434 66.8945 -65.4785 65.0879 -65.4785 Z M 23.1934 -48.5352 C 21.3379 -48.5352 19.873 -50 19.873 -51.8555 C 19.873 -53.6621 21.3379 -55.127 23.1934 -55.127 C 25 -55.127 26.4648 -53.6621 26.4648 -51.8555 C 26.4648 -50 25 -48.5352 23.1934 -48.5352 Z M 106.982 -48.5352 C 105.127 -48.5352 103.662 -50 103.662 -51.8555 C 103.662 -53.6621 105.127 -55.127 106.982 -55.127 C 108.789 -55.127 110.254 -53.6621 110.254 -51.8555 C 110.254 -50 108.789 -48.5352 106.982 -48.5352 Z M 39.9902 -33.5449 C 45.6543 -30.3223 51.1719 -31.4941 54.4922 -36.0352 L 65.0879 -50.3906 L 76.0254 -35.5469 C 79.3457 -31.0059 84.8633 -29.834 90.5273 -33.0566 L 94.9219 -35.5469 L 92.2363 -24.5117 L 37.9395 -24.5117 L 35.0586 -36.377 Z M 43.7012 -6.93359 C 42.8223 -6.93359 42.0898 -7.4707 41.8945 -8.25195 L 41.0156 -11.8164 L 89.1602 -11.8164 L 88.2812 -8.25195 C 88.0859 -7.4707 87.3535 -6.93359 86.4746 -6.93359 Z"/>
  </g>
  <g id="Heavy-S" transform="matrix(1 0 0 1 2572.85 696)">
   <path d="M 98.7793 -6.64062 L 106.592 -38.623 C 112.939 -39.3066 117.92 -44.7266 117.92 -51.2695 C 117.92 -58.252 112.207 -63.916 105.225 -63.916 C 98.2422 -63.916 92.5293 -58.252 92.5293 -51.2695 C 92.5293 -50.3906 92.627 -49.4629 92.8223 -48.6328 L 84.7656 -43.6035 C 84.1309 -43.2129 83.7402 -43.3105 83.3496 -43.7988 L 72.3633 -58.7402 C 74.9023 -61.084 76.5137 -64.4531 76.5137 -68.1641 C 76.5137 -75.0977 70.8496 -80.8105 63.8672 -80.8105 C 56.8359 -80.8105 51.1719 -75.1465 51.1719 -68.1641 C 51.1719 -64.4043 52.7832 -61.084 55.3223 -58.7402 L 44.6289 -44.1895 C 44.2383 -43.7012 43.8477 -43.6035 43.2129 -43.9941 L 34.9609 -49.1211 C 35.0586 -49.8047 35.1074 -50.5371 35.1074 -51.2695 C 35.1074 -58.252 29.4434 -63.916 22.4609 -63.916 C 15.4297 -63.916 9.76562 -58.252 9.76562 -51.2695 C 9.76562 -44.7266 14.7461 -39.3066 21.0938 -38.623 L 28.9551 -6.64062 C 30.7617 0.732422 35.1562 4.44336 42.5781 4.44336 L 85.1562 4.44336 C 92.5781 4.44336 96.9727 0.732422 98.7793 -6.64062 Z M 63.8672 -64.7949 C 61.9629 -64.7949 60.498 -66.2598 60.498 -68.1641 C 60.498 -70.0195 61.9629 -71.4844 63.8672 -71.4844 C 65.6738 -71.4844 67.1875 -69.9707 67.1875 -68.1641 C 67.1875 -66.2598 65.7227 -64.7949 63.8672 -64.7949 Z M 22.4609 -47.9004 C 20.6055 -47.9004 19.0918 -49.4141 19.0918 -51.2695 C 19.0918 -53.125 20.6055 -54.5898 22.4609 -54.5898 C 24.3164 -54.5898 25.7812 -53.0762 25.7812 -51.2695 C 25.7812 -49.4141 24.3164 -47.9004 22.4609 -47.9004 Z M 105.225 -47.9004 C 103.369 -47.9004 101.904 -49.4141 101.904 -51.2695 C 101.904 -53.0762 103.369 -54.5898 105.225 -54.5898 C 107.08 -54.5898 108.594 -53.125 108.594 -51.2695 C 108.594 -49.4141 107.08 -47.9004 105.225 -47.9004 Z M 39.3066 -33.7402 C 44.1895 -30.9082 49.4141 -31.7871 52.5879 -36.084 L 63.8672 -51.3672 L 75.3906 -35.7422 C 78.5645 -31.3965 83.7891 -30.5664 88.623 -33.3496 L 94.5801 -36.7676 L 91.3086 -23.5352 L 36.377 -23.5352 L 33.0078 -37.3535 Z M 42.5293 -6.78711 C 41.2109 -6.78711 40.2832 -7.4707 39.9902 -8.64258 L 39.1113 -12.3047 L 88.5742 -12.3047 L 87.6953 -8.64258 C 87.4023 -7.4707 86.5234 -6.78711 85.2051 -6.78711 Z"/>
  </g>
  <g id="Bold-S" transform="matrix(1 0 0 1 2277.5 696)">
   <path d="M 96.582 -7.51953 L 104.248 -38.7695 C 110.303 -39.2578 115.186 -44.3359 115.186 -50.6348 C 115.186 -57.1289 109.863 -62.4512 103.32 -62.4512 C 96.7285 -62.4512 91.4551 -57.1289 91.4551 -50.6348 C 91.4551 -49.6582 91.5527 -48.7305 91.748 -47.8516 L 83.252 -42.5781 C 82.4219 -42.0898 81.9336 -42.2363 81.4941 -42.8223 L 70.1172 -58.3496 C 72.7051 -60.5469 74.3164 -63.7695 74.3164 -67.4316 C 74.3164 -73.9258 68.9941 -79.2969 62.5 -79.2969 C 55.9082 -79.2969 50.5859 -73.9746 50.5859 -67.4316 C 50.5859 -63.7695 52.2461 -60.498 54.834 -58.3496 L 43.6035 -43.0664 C 43.1641 -42.4316 42.7246 -42.2852 41.8945 -42.8223 L 33.252 -48.1934 C 33.3984 -48.9746 33.4961 -49.8047 33.4961 -50.6348 C 33.4961 -57.1289 28.1738 -62.4512 21.6797 -62.4512 C 15.0879 -62.4512 9.76562 -57.1289 9.76562 -50.6348 C 9.76562 -44.3359 14.5996 -39.2578 20.752 -38.7695 L 28.418 -7.51953 C 30.127 -0.537109 34.1309 2.97852 41.2109 2.97852 L 83.7402 2.97852 C 90.8691 2.97852 94.873 -0.537109 96.582 -7.51953 Z M 62.5 -64.0137 C 60.5957 -64.0137 59.0332 -65.5273 59.0332 -67.4316 C 59.0332 -69.3359 60.5957 -70.8008 62.5 -70.8008 C 64.3066 -70.8008 65.8691 -69.2871 65.8691 -67.4316 C 65.8691 -65.5273 64.3555 -64.0137 62.5 -64.0137 Z M 21.6797 -47.168 C 19.7754 -47.168 18.2129 -48.7305 18.2129 -50.6348 C 18.2129 -52.4902 19.7754 -54.0039 21.6797 -54.0039 C 23.4863 -54.0039 25.0488 -52.4902 25.0488 -50.6348 C 25.0488 -48.7305 23.5352 -47.168 21.6797 -47.168 Z M 103.32 -47.168 C 101.367 -47.168 99.9023 -48.7305 99.9023 -50.6348 C 99.9023 -52.4902 101.416 -54.0039 103.32 -54.0039 C 105.176 -54.0039 106.689 -52.4902 106.689 -50.6348 C 106.689 -48.7305 105.176 -47.168 103.32 -47.168 Z M 38.5742 -33.9355 C 42.5781 -31.5918 47.4609 -32.1289 50.4883 -36.1816 L 62.5 -52.4414 L 74.6582 -35.9375 C 77.6367 -31.8848 82.5684 -31.3477 86.5234 -33.6914 L 94.1406 -38.1836 L 90.332 -22.4609 L 34.668 -22.4609 L 30.7129 -38.5742 Z M 41.1621 -6.64062 C 39.4043 -6.64062 38.2812 -7.4707 37.8906 -9.13086 L 37.0117 -12.793 L 87.9395 -12.793 L 87.0605 -9.13086 C 86.6699 -7.4707 85.5469 -6.64062 83.7891 -6.64062 Z"/>
  </g>
  <g id="Semibold-S" transform="matrix(1 0 0 1 1981.74 696)">
   <path d="M 95.0195 -8.05664 L 102.588 -38.8672 C 108.496 -39.1602 113.281 -44.0918 113.281 -50.1953 C 113.281 -56.3965 108.203 -61.4746 101.953 -61.4746 C 95.7031 -61.4746 90.6738 -56.3477 90.6738 -50.1953 C 90.6738 -49.2188 90.7715 -48.2422 91.0156 -47.3633 L 82.1777 -41.8945 C 81.25 -41.2598 80.7129 -41.4551 80.2246 -42.1387 L 68.5547 -58.0566 C 71.1426 -60.1562 72.8027 -63.3301 72.8027 -66.9434 C 72.8027 -73.1445 67.7734 -78.2227 61.5234 -78.2227 C 55.2734 -78.2227 50.1953 -73.1445 50.1953 -66.9434 C 50.1953 -63.3301 51.9043 -60.1074 54.4922 -58.0566 L 42.9199 -42.2852 C 42.4316 -41.6016 41.9434 -41.4062 40.9668 -42.041 L 32.0801 -47.5586 C 32.2754 -48.3887 32.373 -49.2676 32.373 -50.1953 C 32.373 -56.3477 27.3438 -61.4746 21.0938 -61.4746 C 14.8438 -61.4746 9.76562 -56.3965 9.76562 -50.1953 C 9.76562 -44.0918 14.5508 -39.1602 20.459 -38.8672 L 28.0273 -8.05664 C 29.6387 -1.41602 33.3984 2.00195 40.332 2.00195 L 82.7637 2.00195 C 89.6484 2.00195 93.4082 -1.41602 95.0195 -8.05664 Z M 61.5234 -63.4766 C 59.6191 -63.4766 58.0566 -65.0391 58.0566 -66.9434 C 58.0566 -68.8477 59.6191 -70.3613 61.5234 -70.3613 C 63.3789 -70.3613 64.9414 -68.7988 64.9414 -66.9434 C 64.9414 -65.0391 63.4766 -63.4766 61.5234 -63.4766 Z M 21.0938 -46.6797 C 19.1895 -46.6797 17.627 -48.291 17.627 -50.1953 C 17.627 -52.0996 19.1895 -53.6133 21.0938 -53.6133 C 22.9492 -53.6133 24.5117 -52.0508 24.5117 -50.1953 C 24.5117 -48.291 22.998 -46.6797 21.0938 -46.6797 Z M 101.953 -46.6797 C 100.049 -46.6797 98.5352 -48.291 98.5352 -50.1953 C 98.5352 -52.0508 100.098 -53.6133 101.953 -53.6133 C 103.857 -53.6133 105.42 -52.0996 105.42 -50.1953 C 105.42 -48.291 103.857 -46.6797 101.953 -46.6797 Z M 38.0371 -34.082 C 41.4551 -32.0801 46.1426 -32.3242 49.0234 -36.2305 L 61.5234 -53.2227 L 74.1699 -36.084 C 77.0508 -32.1777 81.7383 -31.9336 85.0586 -33.8867 L 93.8965 -39.1602 L 89.5996 -21.6797 L 33.4473 -21.6797 L 29.1504 -39.4043 Z M 40.2832 -6.54297 C 38.1348 -6.54297 36.9141 -7.4707 36.4258 -9.42383 L 35.5469 -13.1836 L 87.5488 -13.1836 L 86.6211 -9.42383 C 86.1328 -7.4707 84.9121 -6.54297 82.8125 -6.54297 Z"/>
  </g>
  <g id="Medium-S" transform="matrix(1 0 0 1 1685.74 696)">
   <path d="M 93.8965 -8.49609 L 101.318 -38.916 C 107.129 -39.1602 111.865 -43.9453 111.865 -49.8535 C 111.865 -55.8105 106.982 -60.6934 100.928 -60.6934 C 94.9707 -60.6934 90.0879 -55.7617 90.0879 -49.8535 C 90.0879 -48.8281 90.1855 -47.8516 90.4785 -46.9727 L 81.3965 -41.3574 C 80.3223 -40.6738 79.7852 -40.8691 79.248 -41.6504 L 67.3828 -57.8613 C 69.9707 -59.8633 71.6797 -62.9883 71.6797 -66.5527 C 71.6797 -72.5098 66.7969 -77.4414 60.791 -77.4414 C 54.7852 -77.4414 49.9023 -72.5586 49.9023 -66.5527 C 49.9023 -62.9883 51.6113 -59.8633 54.248 -57.8613 L 42.3828 -41.6992 C 41.8945 -40.9668 41.3574 -40.7715 40.2832 -41.4062 L 31.2012 -47.0703 C 31.3965 -47.9492 31.543 -48.877 31.543 -49.8535 C 31.543 -55.7617 26.6602 -60.6934 20.6543 -60.6934 C 14.6484 -60.6934 9.76562 -55.8105 9.76562 -49.8535 C 9.76562 -43.9453 14.4531 -39.1602 20.2637 -38.916 L 27.7344 -8.49609 C 29.2969 -2.09961 32.8613 1.2207 39.5996 1.2207 L 81.9824 1.2207 C 88.7695 1.2207 92.334 -2.09961 93.8965 -8.49609 Z M 60.791 -63.0371 C 58.8867 -63.0371 57.3242 -64.6484 57.3242 -66.5527 C 57.3242 -68.5059 58.8867 -70.0195 60.791 -70.0195 C 62.6953 -70.0195 64.2578 -68.457 64.2578 -66.5527 C 64.2578 -64.6484 62.7441 -63.0371 60.791 -63.0371 Z M 37.6465 -34.1797 C 40.5762 -32.4219 45.1172 -32.5195 47.9004 -36.2793 L 60.791 -53.8086 L 73.8281 -36.1816 C 76.5625 -32.4219 81.1035 -32.3242 83.9844 -34.082 L 93.6523 -39.9414 L 89.0625 -21.1426 L 32.5684 -21.1426 L 27.9297 -40.0879 Z M 20.6543 -46.3379 C 18.75 -46.3379 17.1875 -47.9004 17.1875 -49.8535 C 17.1875 -51.7578 18.75 -53.2715 20.6543 -53.2715 C 22.5586 -53.2715 24.1211 -51.709 24.1211 -49.8535 C 24.1211 -47.9004 22.6074 -46.3379 20.6543 -46.3379 Z M 100.928 -46.3379 C 98.9746 -46.3379 97.4609 -47.9004 97.4609 -49.8535 C 97.4609 -51.709 99.0723 -53.2715 100.928 -53.2715 C 102.832 -53.2715 104.443 -51.7578 104.443 -49.8535 C 104.443 -47.9004 102.832 -46.3379 100.928 -46.3379 Z M 39.5508 -6.44531 C 37.207 -6.44531 35.8887 -7.51953 35.3516 -9.66797 L 34.4238 -13.4277 L 87.207 -13.4277 L 86.2793 -9.66797 C 85.7422 -7.51953 84.4238 -6.44531 82.0312 -6.44531 Z"/>
  </g>
  <g id="Regular-S" transform="matrix(1 0 0 1 1389.98 696)">
   <path d="M 92.3828 -9.08203 L 99.707 -39.0137 C 105.322 -39.0137 109.961 -43.6523 109.961 -49.3652 C 109.961 -55.0781 105.371 -59.7168 99.6094 -59.7168 C 93.9453 -59.7168 89.3066 -55.0293 89.3066 -49.3652 C 89.3066 -48.3398 89.4531 -47.3633 89.7461 -46.4355 L 80.3711 -40.6738 C 79.1504 -39.8926 78.5645 -40.1367 77.9785 -40.9668 L 65.8203 -57.6172 C 68.457 -59.4727 70.166 -62.5488 70.166 -66.0645 C 70.166 -71.7285 65.5762 -76.3672 59.8633 -76.3672 C 54.1504 -76.3672 49.5117 -71.7773 49.5117 -66.0645 C 49.5117 -62.5488 51.2695 -59.4727 53.9551 -57.6172 L 41.6992 -40.9668 C 41.1621 -40.1367 40.5762 -39.8926 39.4043 -40.625 L 30.0293 -46.4355 C 30.2734 -47.3633 30.4199 -48.3398 30.4199 -49.3652 C 30.4199 -55.0293 25.8301 -59.7168 20.1172 -59.7168 C 14.4043 -59.7168 9.76562 -55.0781 9.76562 -49.3652 C 9.76562 -43.7012 14.4043 -39.0625 20.0195 -39.0137 L 27.3438 -9.08203 C 28.8574 -2.97852 32.1289 0.244141 38.7207 0.244141 L 81.0547 0.244141 C 87.5977 0.244141 90.8691 -2.97852 92.3828 -9.08203 Z M 59.8633 -62.5488 C 57.959 -62.5488 56.3477 -64.1602 56.3477 -66.0645 C 56.3477 -68.0664 57.959 -69.5801 59.8633 -69.5801 C 61.7676 -69.5801 63.3789 -67.9688 63.3789 -66.0645 C 63.3789 -64.1602 61.8652 -62.5488 59.8633 -62.5488 Z M 37.1582 -34.3262 C 39.4531 -32.8613 43.7988 -32.7148 46.4355 -36.3281 L 59.8633 -54.541 L 73.3398 -36.3281 C 75.9277 -32.7148 80.2734 -32.9102 82.5195 -34.2773 L 93.4082 -40.9668 L 88.3789 -20.3613 L 31.3477 -20.3613 L 26.3184 -40.9668 Z M 20.1172 -45.8496 C 18.2129 -45.8496 16.5527 -47.4609 16.5527 -49.3652 C 16.5527 -51.3672 18.2129 -52.8809 20.1172 -52.8809 C 22.0215 -52.8809 23.6328 -51.2695 23.6328 -49.3652 C 23.6328 -47.4609 22.1191 -45.8496 20.1172 -45.8496 Z M 99.6094 -45.8496 C 97.6562 -45.8496 96.1426 -47.4609 96.1426 -49.3652 C 96.1426 -51.2695 97.7539 -52.8809 99.6094 -52.8809 C 101.562 -52.8809 103.174 -51.3672 103.174 -49.3652 C 103.174 -47.4609 101.562 -45.8496 99.6094 -45.8496 Z M 38.6719 -6.34766 C 35.9863 -6.34766 34.5215 -7.51953 33.8867 -10.0098 L 32.959 -13.8184 L 86.7676 -13.8184 L 85.8398 -10.0098 C 85.2539 -7.51953 83.7891 -6.34766 81.1035 -6.34766 Z"/>
  </g>
  <g id="Light-S" transform="matrix(1 0 0 1 1095.17 696)">
   <path d="M 19.3359 -39.6973 C 19.4824 -39.6973 19.6289 -39.6973 19.7754 -39.6973 L 27.1973 -9.42383 C 28.6621 -3.51562 31.6895 -0.634766 37.8418 -0.634766 L 78.125 -0.634766 C 84.2773 -0.634766 87.3047 -3.51562 88.7695 -9.42383 L 96.1914 -39.6973 C 96.3379 -39.6973 96.4844 -39.6973 96.6309 -39.6973 C 101.855 -39.6973 106.152 -43.9453 106.152 -49.2188 C 106.152 -54.4922 101.904 -58.7402 96.6309 -58.7402 C 91.3574 -58.7402 87.1094 -54.4434 87.1094 -49.2188 C 87.1094 -47.8516 87.4023 -46.5332 87.9395 -45.3613 L 78.418 -39.502 C 76.9043 -38.5742 75.9277 -38.8184 75.0488 -39.9902 L 62.8418 -56.25 C 65.625 -57.9102 67.4805 -60.9863 67.4805 -64.502 C 67.4805 -69.6777 63.2324 -73.9746 57.959 -73.9746 C 52.6855 -73.9746 48.4375 -69.7266 48.4375 -64.502 C 48.4375 -60.9863 50.3418 -57.9102 53.1738 -56.25 L 40.7227 -39.7461 C 39.9414 -38.6719 39.0625 -38.4766 37.6953 -39.3066 L 27.9785 -45.2637 C 28.5156 -46.4844 28.8574 -47.8516 28.8574 -49.2188 C 28.8574 -54.4434 24.5605 -58.7402 19.3359 -58.7402 C 14.0625 -58.7402 9.76562 -54.4922 9.76562 -49.2188 C 9.76562 -43.9453 14.0625 -39.6973 19.3359 -39.6973 Z M 57.959 -60.2051 C 55.6641 -60.2051 53.7109 -62.1582 53.7109 -64.502 C 53.7109 -66.8457 55.6641 -68.75 57.959 -68.75 C 60.3027 -68.75 62.207 -66.7969 62.207 -64.502 C 62.207 -62.1582 60.3516 -60.2051 57.959 -60.2051 Z M 35.6934 -34.5215 C 38.2324 -32.959 42.0898 -33.0078 44.4824 -36.2793 L 58.0078 -54.1992 L 71.582 -36.1816 C 73.877 -33.1055 77.6367 -33.0566 79.7852 -34.375 L 91.2109 -41.3574 C 91.2598 -41.3574 91.3086 -41.3086 91.3086 -41.3086 L 85.8887 -19.043 L 30.0781 -19.043 L 24.6582 -41.3086 Z M 19.3359 -44.9707 C 16.9922 -44.9707 15.0391 -46.9238 15.0391 -49.2188 C 15.0391 -51.6113 16.9922 -53.4668 19.3359 -53.4668 C 21.6309 -53.4668 23.584 -51.5625 23.584 -49.2188 C 23.584 -46.9238 21.6797 -44.9707 19.3359 -44.9707 Z M 96.6309 -44.9707 C 94.2383 -44.9707 92.3828 -46.9238 92.3828 -49.2188 C 92.3828 -51.5625 94.2871 -53.4668 96.6309 -53.4668 C 98.9746 -53.4668 100.879 -51.6113 100.879 -49.2188 C 100.879 -46.9238 98.9746 -44.9707 96.6309 -44.9707 Z M 37.793 -5.76172 C 34.7656 -5.76172 33.0078 -7.12891 32.3242 -9.96094 L 31.3477 -13.9648 L 84.6191 -13.9648 L 83.6426 -9.96094 C 82.959 -7.12891 81.2012 -5.76172 78.1738 -5.76172 Z"/>
  </g>
  <g id="Thin-S" transform="matrix(1 0 0 1 800.978 696)">
   <path d="M 18.2617 -40.5762 C 18.6523 -40.5762 18.9941 -40.5762 19.3848 -40.625 L 27.002 -9.81445 C 28.3691 -4.24805 31.1523 -1.80664 36.6699 -1.80664 L 74.3164 -1.80664 C 79.834 -1.80664 82.6172 -4.24805 83.9844 -9.81445 L 91.5527 -40.625 C 91.9434 -40.5762 92.2852 -40.5762 92.627 -40.5762 C 97.3145 -40.5762 101.123 -44.3848 101.123 -49.0723 C 101.123 -53.7109 97.3145 -57.5195 92.627 -57.5195 C 87.9883 -57.5195 84.1797 -53.7109 84.1797 -49.0723 C 84.1797 -47.168 84.7656 -45.459 85.791 -44.043 L 75.8301 -37.9395 C 73.9258 -36.7676 72.4121 -37.0605 71.1426 -38.7207 L 58.8379 -54.5898 C 61.8652 -55.9082 63.9648 -58.8867 63.9648 -62.3535 C 63.9648 -67.041 60.1562 -70.8496 55.4688 -70.8496 C 50.8301 -70.8496 47.0215 -67.041 47.0215 -62.3535 C 47.0215 -58.8379 49.1699 -55.8105 52.1973 -54.541 L 39.4043 -38.1348 C 38.3301 -36.7188 37.0117 -36.5723 35.4492 -37.5488 L 25 -43.9453 C 26.0742 -45.3613 26.709 -47.1191 26.709 -49.0723 C 26.709 -53.7109 22.9004 -57.5195 18.2617 -57.5195 C 13.5742 -57.5195 9.76562 -53.7109 9.76562 -49.0723 C 9.76562 -44.3848 13.5742 -40.5762 18.2617 -40.5762 Z M 55.4688 -57.1289 C 52.5879 -57.1289 50.2441 -59.4727 50.2441 -62.3535 C 50.2441 -65.2832 52.5879 -67.627 55.4688 -67.627 C 58.3496 -67.627 60.7422 -65.2344 60.7422 -62.3535 C 60.7422 -59.4727 58.3984 -57.1289 55.4688 -57.1289 Z M 18.2617 -43.7988 C 15.3809 -43.7988 12.9883 -46.1914 12.9883 -49.0723 C 12.9883 -51.9531 15.3809 -54.2969 18.2617 -54.2969 C 21.1426 -54.2969 23.4863 -51.9043 23.4863 -49.0723 C 23.4863 -46.1914 21.1426 -43.7988 18.2617 -43.7988 Z M 92.627 -43.7988 C 89.7461 -43.7988 87.4023 -46.1914 87.4023 -49.0723 C 87.4023 -51.9043 89.7949 -54.2969 92.627 -54.2969 C 95.5078 -54.2969 97.9004 -51.9531 97.9004 -49.0723 C 97.9004 -46.1914 95.5078 -43.7988 92.627 -43.7988 Z M 33.7891 -34.8145 C 36.5723 -33.1055 39.7949 -33.4473 41.9434 -36.2305 L 55.5664 -53.7109 L 69.2383 -36.0352 C 71.0938 -33.5938 74.2188 -33.2031 76.2207 -34.4727 L 88.2324 -41.8457 C 88.3301 -41.748 88.4277 -41.6992 88.5254 -41.6504 L 82.5684 -17.334 L 28.3691 -17.334 L 22.4609 -41.6992 C 22.4609 -41.6992 22.5098 -41.6992 22.5098 -41.748 Z M 36.6211 -4.98047 C 33.1543 -4.98047 31.0059 -6.64062 30.1758 -9.96094 L 29.1504 -14.1113 L 81.7871 -14.1113 L 80.7617 -9.96094 C 79.9805 -6.64062 77.832 -4.98047 74.3652 -4.98047 Z"/>
  </g>
  <g id="Ultralight-S" transform="matrix(1 0 0 1 505.561 696)">
   <path d="M 17.7246 -41.0156 C 18.2129 -41.0156 18.7012 -41.0645 19.1895 -41.1621 L 26.9043 -10.0586 C 28.2227 -4.58984 30.8105 -2.39258 36.084 -2.39258 L 72.3145 -2.39258 C 77.5879 -2.39258 80.1758 -4.58984 81.543 -10.0586 L 89.209 -41.1133 C 89.6484 -41.0645 90.1367 -41.0156 90.625 -41.0156 C 94.9707 -41.0156 98.5352 -44.5801 98.5352 -48.9258 C 98.5352 -53.3203 94.9707 -56.8848 90.625 -56.8848 C 86.2305 -56.8848 82.666 -53.3203 82.666 -48.9258 C 82.666 -46.8262 83.4961 -44.9219 84.8633 -43.5059 L 74.4629 -37.1582 C 72.3633 -35.8398 70.6055 -36.1328 69.1406 -38.0371 L 56.7871 -53.7598 C 59.8633 -54.834 62.1582 -57.8125 62.1582 -61.2793 C 62.1582 -65.625 58.5449 -69.2383 54.1992 -69.2383 C 49.8535 -69.2383 46.2402 -65.625 46.2402 -61.2793 C 46.2402 -57.7637 48.584 -54.7363 51.7578 -53.7109 L 38.7207 -37.3047 C 37.5 -35.7422 35.9375 -35.6445 34.2773 -36.6211 L 23.3398 -43.3594 C 24.7559 -44.7754 25.6348 -46.7773 25.6348 -48.9258 C 25.6348 -53.3203 22.0703 -56.8848 17.7246 -56.8848 C 13.3301 -56.8848 9.76562 -53.3203 9.76562 -48.9258 C 9.76562 -44.5801 13.3301 -41.0156 17.7246 -41.0156 Z M 54.1992 -55.5176 C 51.0254 -55.5176 48.4375 -58.1055 48.4375 -61.2793 C 48.4375 -64.4531 51.0254 -67.041 54.1992 -67.041 C 57.373 -67.041 59.9609 -64.4531 59.9609 -61.2793 C 59.9609 -58.1055 57.373 -55.5176 54.1992 -55.5176 Z M 17.7246 -43.2129 C 14.5508 -43.2129 11.9629 -45.8008 11.9629 -48.9258 C 11.9629 -52.0996 14.5508 -54.6875 17.7246 -54.6875 C 20.8496 -54.6875 23.4375 -52.0996 23.4375 -48.9258 C 23.4375 -45.8008 20.8496 -43.2129 17.7246 -43.2129 Z M 90.625 -43.2129 C 87.4512 -43.2129 84.8633 -45.8008 84.8633 -48.9258 C 84.8633 -52.0996 87.4512 -54.6875 90.625 -54.6875 C 93.75 -54.6875 96.3379 -52.0996 96.3379 -48.9258 C 96.3379 -45.8008 93.75 -43.2129 90.625 -43.2129 Z M 32.8125 -34.9609 C 35.6934 -33.2031 38.623 -33.6426 40.625 -36.1816 L 54.248 -53.3691 L 54.3457 -53.3691 L 68.0664 -35.9375 C 69.6777 -33.8867 72.4121 -33.3496 74.3652 -34.5215 L 86.6699 -42.041 C 86.8164 -41.9922 86.9629 -41.8945 87.1094 -41.8457 L 80.8594 -16.4062 L 27.5391 -16.4062 L 21.2891 -41.8945 L 21.4355 -41.9434 Z M 36.0352 -4.58984 C 32.3242 -4.58984 29.9805 -6.39648 29.1016 -9.91211 L 28.0762 -14.2578 L 80.3711 -14.2578 L 79.2969 -9.91211 C 78.418 -6.39648 76.0742 -4.58984 72.3633 -4.58984 Z"/>
  </g>
 </g>
</svg>
