<?xml version="1.0" encoding="UTF-8"?>
<!--Generator: Apple Native CoreSVG 148-->
<!DOCTYPE svg
PUBLIC "-//W3C//DTD SVG 1.1//EN"
       "http://www.w3.org/Graphics/SVG/1.1/DTD/svg11.dtd">
<svg version="1.1" xmlns="http://www.w3.org/2000/svg" xmlns:xlink="http://www.w3.org/1999/xlink" width="3300" height="2200">
 <!--glyph: "uni100986.medium", point size: 100.000000, font version: "Version 16.0d11e1", template writer version: "8"-->
 <g id="Notes">
  <rect height="2200" id="artboard" style="fill:white;opacity:1" width="3300" x="0" y="0"/>
  <line id="" style="fill:none;stroke:black;opacity:1;stroke-width:0.5;" x1="263" x2="3036" y1="292" y2="292"/>
  <text style="stroke:none;fill:black;font-family:-apple-system,&quot;SF Pro Display&quot;,&quot;SF Pro Text&quot;,Helvetica,sans-serif;font-weight:bold;" transform="matrix(1 0 0 1 263 322)">Weight/Scale Variations</text>
  <text style="stroke:none;fill:black;font-family:-apple-system,&quot;SF Pro Display&quot;,&quot;SF Pro Text&quot;,Helvetica,sans-serif;text-anchor:middle;" transform="matrix(1 0 0 1 559.711 322)">Ultralight</text>
  <text style="stroke:none;fill:black;font-family:-apple-system,&quot;SF Pro Display&quot;,&quot;SF Pro Text&quot;,Helvetica,sans-serif;text-anchor:middle;" transform="matrix(1 0 0 1 856.422 322)">Thin</text>
  <text style="stroke:none;fill:black;font-family:-apple-system,&quot;SF Pro Display&quot;,&quot;SF Pro Text&quot;,Helvetica,sans-serif;text-anchor:middle;" transform="matrix(1 0 0 1 1153.13 322)">Light</text>
  <text style="stroke:none;fill:black;font-family:-apple-system,&quot;SF Pro Display&quot;,&quot;SF Pro Text&quot;,Helvetica,sans-serif;text-anchor:middle;" transform="matrix(1 0 0 1 1449.84 322)">Regular</text>
  <text style="stroke:none;fill:black;font-family:-apple-system,&quot;SF Pro Display&quot;,&quot;SF Pro Text&quot;,Helvetica,sans-serif;text-anchor:middle;" transform="matrix(1 0 0 1 1746.56 322)">Medium</text>
  <text style="stroke:none;fill:black;font-family:-apple-system,&quot;SF Pro Display&quot;,&quot;SF Pro Text&quot;,Helvetica,sans-serif;text-anchor:middle;" transform="matrix(1 0 0 1 2043.27 322)">Semibold</text>
  <text style="stroke:none;fill:black;font-family:-apple-system,&quot;SF Pro Display&quot;,&quot;SF Pro Text&quot;,Helvetica,sans-serif;text-anchor:middle;" transform="matrix(1 0 0 1 2339.98 322)">Bold</text>
  <text style="stroke:none;fill:black;font-family:-apple-system,&quot;SF Pro Display&quot;,&quot;SF Pro Text&quot;,Helvetica,sans-serif;text-anchor:middle;" transform="matrix(1 0 0 1 2636.69 322)">Heavy</text>
  <text style="stroke:none;fill:black;font-family:-apple-system,&quot;SF Pro Display&quot;,&quot;SF Pro Text&quot;,Helvetica,sans-serif;text-anchor:middle;" transform="matrix(1 0 0 1 2933.4 322)">Black</text>
  <line id="" style="fill:none;stroke:black;opacity:1;stroke-width:0.5;" x1="263" x2="3036" y1="1903" y2="1903"/>
  <g id="" transform="matrix(1 0 0 1 263 1933)">
   <path d="M 9.24805 0.830078 C 13.5547 0.830078 17.1387 -2.74414 17.1387 -7.05078 C 17.1387 -11.3574 13.5449 -14.9316 9.23828 -14.9316 C 4.94141 -14.9316 1.36719 -11.3574 1.36719 -7.05078 C 1.36719 -2.74414 4.95117 0.830078 9.24805 0.830078 Z M 9.24805 -0.654297 C 5.70312 -0.654297 2.87109 -3.49609 2.87109 -7.05078 C 2.87109 -10.6055 5.69336 -13.4473 9.23828 -13.4473 C 12.793 -13.4473 15.6348 -10.6055 15.6445 -7.05078 C 15.6543 -3.49609 12.8027 -0.654297 9.24805 -0.654297 Z M 9.22852 -3.62305 C 9.69727 -3.62305 9.9707 -3.93555 9.9707 -4.45312 L 9.9707 -6.31836 L 12.002 -6.31836 C 12.5 -6.31836 12.832 -6.57227 12.832 -7.04102 C 12.832 -7.51953 12.5195 -7.7832 12.002 -7.7832 L 9.9707 -7.7832 L 9.9707 -9.81445 C 9.9707 -10.332 9.69727 -10.6543 9.22852 -10.6543 C 8.75977 -10.6543 8.50586 -10.3125 8.50586 -9.81445 L 8.50586 -7.7832 L 6.49414 -7.7832 C 5.97656 -7.7832 5.64453 -7.51953 5.64453 -7.04102 C 5.64453 -6.57227 5.99609 -6.31836 6.49414 -6.31836 L 8.50586 -6.31836 L 8.50586 -4.45312 C 8.50586 -3.95508 8.75977 -3.62305 9.22852 -3.62305 Z"/>
  </g>
  <g id="" transform="matrix(1 0 0 1 281.506 1933)">
   <path d="M 11.709 2.91016 C 17.1582 2.91016 21.6699 -1.61133 21.6699 -7.05078 C 21.6699 -12.5 17.1484 -17.0117 11.6992 -17.0117 C 6.25977 -17.0117 1.74805 -12.5 1.74805 -7.05078 C 1.74805 -1.61133 6.26953 2.91016 11.709 2.91016 Z M 11.709 1.25 C 7.09961 1.25 3.41797 -2.44141 3.41797 -7.05078 C 3.41797 -11.6602 7.08984 -15.3516 11.6992 -15.3516 C 16.3086 -15.3516 20 -11.6602 20.0098 -7.05078 C 20.0195 -2.44141 16.3184 1.25 11.709 1.25 Z M 11.6797 -2.66602 C 12.207 -2.66602 12.5098 -3.01758 12.5098 -3.59375 L 12.5098 -6.23047 L 15.3223 -6.23047 C 15.8691 -6.23047 16.25 -6.51367 16.25 -7.03125 C 16.25 -7.55859 15.8887 -7.86133 15.3223 -7.86133 L 12.5098 -7.86133 L 12.5098 -10.6836 C 12.5098 -11.25 12.207 -11.6113 11.6797 -11.6113 C 11.1621 -11.6113 10.8789 -11.2305 10.8789 -10.6836 L 10.8789 -7.86133 L 8.07617 -7.86133 C 7.50977 -7.86133 7.13867 -7.55859 7.13867 -7.03125 C 7.13867 -6.51367 7.5293 -6.23047 8.07617 -6.23047 L 10.8789 -6.23047 L 10.8789 -3.59375 C 10.8789 -3.03711 11.1621 -2.66602 11.6797 -2.66602 Z"/>
  </g>
  <g id="" transform="matrix(1 0 0 1 304.924 1933)">
   <path d="M 14.9707 5.66406 C 21.9336 5.66406 27.6953 -0.0976562 27.6953 -7.05078 C 27.6953 -14.0137 21.9238 -19.7754 14.9609 -19.7754 C 8.00781 -19.7754 2.25586 -14.0137 2.25586 -7.05078 C 2.25586 -0.0976562 8.01758 5.66406 14.9707 5.66406 Z M 14.9707 3.84766 C 8.93555 3.84766 4.08203 -1.01562 4.08203 -7.05078 C 4.08203 -13.0957 8.92578 -17.9492 14.9609 -17.9492 C 21.0059 -17.9492 25.8594 -13.0957 25.8691 -7.05078 C 25.8789 -1.01562 21.0156 3.84766 14.9707 3.84766 Z M 14.9414 -1.38672 C 15.5176 -1.38672 15.8594 -1.77734 15.8594 -2.38281 L 15.8594 -6.13281 L 19.7754 -6.13281 C 20.3711 -6.13281 20.7812 -6.46484 20.7812 -7.02148 C 20.7812 -7.59766 20.3906 -7.93945 19.7754 -7.93945 L 15.8594 -7.93945 L 15.8594 -11.8652 C 15.8594 -12.4805 15.5176 -12.8711 14.9414 -12.8711 C 14.375 -12.8711 14.0527 -12.4609 14.0527 -11.8652 L 14.0527 -7.93945 L 10.1465 -7.93945 C 9.53125 -7.93945 9.13086 -7.59766 9.13086 -7.02148 C 9.13086 -6.46484 9.55078 -6.13281 10.1465 -6.13281 L 14.0527 -6.13281 L 14.0527 -2.38281 C 14.0527 -1.79688 14.375 -1.38672 14.9414 -1.38672 Z"/>
  </g>
  <text style="stroke:none;fill:black;font-family:-apple-system,&quot;SF Pro Display&quot;,&quot;SF Pro Text&quot;,Helvetica,sans-serif;font-weight:bold;" transform="matrix(1 0 0 1 263 1953)">Design Variations</text>
  <text style="stroke:none;fill:black;font-family:-apple-system,&quot;SF Pro Display&quot;,&quot;SF Pro Text&quot;,Helvetica,sans-serif;" transform="matrix(1 0 0 1 263 1971)">Symbols are supported in up to nine weights and three scales.</text>
  <text style="stroke:none;fill:black;font-family:-apple-system,&quot;SF Pro Display&quot;,&quot;SF Pro Text&quot;,Helvetica,sans-serif;" transform="matrix(1 0 0 1 263 1989)">For optimal layout with text and other symbols, vertically align</text>
  <text style="stroke:none;fill:black;font-family:-apple-system,&quot;SF Pro Display&quot;,&quot;SF Pro Text&quot;,Helvetica,sans-serif;" transform="matrix(1 0 0 1 263 2007)">symbols with the adjacent text.</text>
  <line id="" style="fill:none;stroke:#00AEEF;stroke-width:0.5;opacity:1.0;" x1="776" x2="776" y1="1919" y2="1933"/>
  <g id="" transform="matrix(1 0 0 1 776 1933)">
   <path d="M 3.31055 0.126953 C 3.82812 0.126953 4.08203 -0.0683594 4.26758 -0.605469 L 5.52734 -4.0625 L 11.2891 -4.0625 L 12.5488 -0.605469 C 12.7344 -0.0683594 12.9883 0.126953 13.4961 0.126953 C 14.0137 0.126953 14.3457 -0.185547 14.3457 -0.673828 C 14.3457 -0.839844 14.3164 -0.986328 14.2383 -1.20117 L 9.6582 -13.3887 C 9.43359 -13.9941 9.0332 -14.2871 8.4082 -14.2871 C 7.80273 -14.2871 7.39258 -13.9941 7.17773 -13.3984 L 2.59766 -1.19141 C 2.51953 -0.976562 2.49023 -0.830078 2.49023 -0.664062 C 2.49023 -0.175781 2.80273 0.126953 3.31055 0.126953 Z M 6.00586 -5.53711 L 8.37891 -12.1094 L 8.42773 -12.1094 L 10.8008 -5.53711 Z"/>
  </g>
  <line id="" style="fill:none;stroke:#00AEEF;stroke-width:0.5;opacity:1.0;" x1="792.836" x2="792.836" y1="1919" y2="1933"/>
  <text style="stroke:none;fill:black;font-family:-apple-system,&quot;SF Pro Display&quot;,&quot;SF Pro Text&quot;,Helvetica,sans-serif;font-weight:bold;" transform="matrix(1 0 0 1 776 1953)">Margins</text>
  <text style="stroke:none;fill:black;font-family:-apple-system,&quot;SF Pro Display&quot;,&quot;SF Pro Text&quot;,Helvetica,sans-serif;" transform="matrix(1 0 0 1 776 1971)">Leading and trailing margins on the left and right side of each symbol</text>
  <text style="stroke:none;fill:black;font-family:-apple-system,&quot;SF Pro Display&quot;,&quot;SF Pro Text&quot;,Helvetica,sans-serif;" transform="matrix(1 0 0 1 776 1989)">can be adjusted by modifying the x-location of the margin guidelines.</text>
  <text style="stroke:none;fill:black;font-family:-apple-system,&quot;SF Pro Display&quot;,&quot;SF Pro Text&quot;,Helvetica,sans-serif;" transform="matrix(1 0 0 1 776 2007)">Modifications are automatically applied proportionally to all</text>
  <text style="stroke:none;fill:black;font-family:-apple-system,&quot;SF Pro Display&quot;,&quot;SF Pro Text&quot;,Helvetica,sans-serif;" transform="matrix(1 0 0 1 776 2025)">scales and weights.</text>
  <g id="" transform="matrix(1 0 0 1 1289 1933)">
   <path d="M 2.8418 1.86523 L 4.54102 3.57422 C 5.40039 4.44336 6.38672 4.38477 7.31445 3.35938 L 17.4902 -7.85156 C 17.7539 -7.76367 18.0273 -7.7832 18.3398 -7.8418 L 19.4043 -8.03711 L 20.0684 -7.36328 L 20.0293 -6.80664 C 19.9902 -6.30859 20.1172 -5.92773 20.6055 -5.44922 L 21.3672 -4.70703 C 21.8457 -4.22852 22.4609 -4.19922 22.9297 -4.66797 L 25.8398 -7.58789 C 26.3086 -8.05664 26.2891 -8.65234 25.8105 -9.13086 L 25.0391 -9.89258 C 24.5605 -10.3711 24.1895 -10.5273 23.7109 -10.4883 L 23.1348 -10.4395 L 22.4902 -11.0742 L 22.7344 -12.1973 C 22.8613 -12.7637 22.7051 -13.2031 22.1191 -13.7891 L 19.9219 -15.9766 C 16.582 -19.2969 12.1484 -19.2188 9.25781 -16.3281 C 8.83789 -15.918 8.80859 -15.3418 9.04297 -14.9512 C 9.27734 -14.5898 9.73633 -14.3555 10.3809 -14.5215 C 11.8457 -14.8633 13.3691 -14.9219 14.7949 -13.9844 L 14.209 -12.5293 C 14.0137 -12.0508 13.9844 -11.6504 14.1113 -11.2891 L 3.04688 -0.898438 C 2.06055 0.0195312 1.98242 0.996094 2.8418 1.86523 Z M 10.752 -15.957 C 13.1836 -17.7344 16.4746 -17.4316 18.7012 -15.2051 L 21.1328 -12.793 C 21.3672 -12.5586 21.4062 -12.373 21.3379 -12.0312 L 21.0156 -10.5469 L 22.5195 -9.0625 L 23.5059 -9.12109 C 23.7598 -9.13086 23.8379 -9.11133 24.0332 -8.91602 L 24.6094 -8.33984 L 22.168 -5.89844 L 21.5918 -6.47461 C 21.3965 -6.66992 21.3672 -6.74805 21.377 -7.01172 L 21.4453 -7.98828 L 19.9512 -9.47266 L 18.4277 -9.21875 C 18.1055 -9.15039 17.959 -9.17969 17.7148 -9.41406 L 15.7129 -11.416 C 15.459 -11.6504 15.4297 -11.8164 15.5859 -12.1875 L 16.4648 -14.2773 C 14.9023 -15.7324 12.8711 -16.3574 10.8398 -15.7617 C 10.6836 -15.7227 10.625 -15.8496 10.752 -15.957 Z M 5.27344 2.30469 L 4.10156 1.14258 C 3.63281 0.683594 3.74023 0.341797 4.14062 -0.0195312 L 14.9512 -10.1953 L 16.416 -8.71094 L 6.42578 2.27539 C 6.07422 2.67578 5.74219 2.77344 5.27344 2.30469 Z"/>
  </g>
  <text style="stroke:none;fill:black;font-family:-apple-system,&quot;SF Pro Display&quot;,&quot;SF Pro Text&quot;,Helvetica,sans-serif;font-weight:bold;" transform="matrix(1 0 0 1 1289 1953)">Exporting</text>
  <text style="stroke:none;fill:black;font-family:-apple-system,&quot;SF Pro Display&quot;,&quot;SF Pro Text&quot;,Helvetica,sans-serif;" transform="matrix(1 0 0 1 1289 1971)">Symbols should be outlined when exporting to ensure the</text>
  <text style="stroke:none;fill:black;font-family:-apple-system,&quot;SF Pro Display&quot;,&quot;SF Pro Text&quot;,Helvetica,sans-serif;" transform="matrix(1 0 0 1 1289 1989)">design is preserved when submitting to Xcode.</text>
  <text id="template-version" style="stroke:none;fill:black;font-family:-apple-system,&quot;SF Pro Display&quot;,&quot;SF Pro Text&quot;,Helvetica,sans-serif;text-anchor:end;" transform="matrix(1 0 0 1 3036 1933)">Template v.2.0</text>
  <text style="stroke:none;fill:black;font-family:-apple-system,&quot;SF Pro Display&quot;,&quot;SF Pro Text&quot;,Helvetica,sans-serif;text-anchor:end;" transform="matrix(1 0 0 1 3036 1951)">Requires Xcode 12 or greater</text>
  <text style="stroke:none;fill:black;font-family:-apple-system,&quot;SF Pro Display&quot;,&quot;SF Pro Text&quot;,Helvetica,sans-serif;text-anchor:end;" transform="matrix(1 0 0 1 3036 1969)">Generated from crown.fill</text>
  <text style="stroke:none;fill:black;font-family:-apple-system,&quot;SF Pro Display&quot;,&quot;SF Pro Text&quot;,Helvetica,sans-serif;text-anchor:end;" transform="matrix(1 0 0 1 3036 1987)">Typeset at 100 points</text>
  <text style="stroke:none;fill:black;font-family:-apple-system,&quot;SF Pro Display&quot;,&quot;SF Pro Text&quot;,Helvetica,sans-serif;" transform="matrix(1 0 0 1 263 726)">Small</text>
  <text style="stroke:none;fill:black;font-family:-apple-system,&quot;SF Pro Display&quot;,&quot;SF Pro Text&quot;,Helvetica,sans-serif;" transform="matrix(1 0 0 1 263 1156)">Medium</text>
  <text style="stroke:none;fill:black;font-family:-apple-system,&quot;SF Pro Display&quot;,&quot;SF Pro Text&quot;,Helvetica,sans-serif;" transform="matrix(1 0 0 1 263 1586)">Large</text>
 </g>
 <g id="Guides">
  <g id="H-reference" style="fill:#27AAE1;stroke:none;" transform="matrix(1 0 0 1 339 696)">
   <path d="M 0.976562 0 L 3.66211 0 L 12.9883 -24.4629 L 45.7031 -24.4629 L 55.0781 0 L 57.7148 0 L 30.6152 -70.459 L 28.125 -70.459 Z M 29.2969 -67.1387 L 29.3945 -67.1387 L 44.873 -26.709 L 13.8672 -26.709 Z"/>
  </g>
  <line id="Baseline-S" style="fill:none;stroke:#27AAE1;opacity:1;stroke-width:0.5;" x1="263" x2="3036" y1="696" y2="696"/>
  <line id="Capline-S" style="fill:none;stroke:#27AAE1;opacity:1;stroke-width:0.5;" x1="263" x2="3036" y1="625.541" y2="625.541"/>
  <g id="H-reference" style="fill:#27AAE1;stroke:none;" transform="matrix(1 0 0 1 339 1126)">
   <path d="M 0.976562 0 L 3.66211 0 L 12.9883 -24.4629 L 45.7031 -24.4629 L 55.0781 0 L 57.7148 0 L 30.6152 -70.459 L 28.125 -70.459 Z M 29.2969 -67.1387 L 29.3945 -67.1387 L 44.873 -26.709 L 13.8672 -26.709 Z"/>
  </g>
  <line id="Baseline-M" style="fill:none;stroke:#27AAE1;opacity:1;stroke-width:0.5;" x1="263" x2="3036" y1="1126" y2="1126"/>
  <line id="Capline-M" style="fill:none;stroke:#27AAE1;opacity:1;stroke-width:0.5;" x1="263" x2="3036" y1="1055.54" y2="1055.54"/>
  <g id="H-reference" style="fill:#27AAE1;stroke:none;" transform="matrix(1 0 0 1 339 1556)">
   <path d="M 0.976562 0 L 3.66211 0 L 12.9883 -24.4629 L 45.7031 -24.4629 L 55.0781 0 L 57.7148 0 L 30.6152 -70.459 L 28.125 -70.459 Z M 29.2969 -67.1387 L 29.3945 -67.1387 L 44.873 -26.709 L 13.8672 -26.709 Z"/>
  </g>
  <line id="Baseline-L" style="fill:none;stroke:#27AAE1;opacity:1;stroke-width:0.5;" x1="263" x2="3036" y1="1556" y2="1556"/>
  <line id="Capline-L" style="fill:none;stroke:#27AAE1;opacity:1;stroke-width:0.5;" x1="263" x2="3036" y1="1485.54" y2="1485.54"/>
  <line id="left-margin" style="fill:none;stroke:#00AEEF;stroke-width:0.5;opacity:1.0;" x1="1374.77" x2="1374.77" y1="1030.79" y2="1150.12"/>
  <line id="right-margin" style="fill:none;stroke:#00AEEF;stroke-width:0.5;opacity:1.0;" x1="1524.92" x2="1524.92" y1="1030.79" y2="1150.12"/>
 </g>
 <g id="Symbols">
  <g id="Black-L" transform="matrix(1 0 0 1 2828.61 1556)">
   <path d="M 41.3574 -13.623 L 168.604 -13.623 L 176.221 -44.5801 C 185.84 -45.4102 193.506 -53.5156 193.506 -63.4277 C 193.506 -73.7793 185.01 -82.2266 174.658 -82.2266 C 164.209 -82.2266 155.762 -73.7305 155.762 -63.4277 C 155.762 -61.4258 156.104 -59.5215 156.641 -57.7148 L 139.404 -45.7031 C 138.379 -44.9707 137.646 -45.166 137.061 -45.9961 L 115.186 -76.6113 C 120.361 -79.9805 123.779 -85.8398 123.779 -92.4805 C 123.779 -102.832 115.332 -111.279 104.98 -111.279 C 94.5312 -111.279 86.084 -102.832 86.084 -92.4805 C 86.084 -85.8398 89.5508 -79.9805 94.7754 -76.6113 L 73.291 -46.582 C 72.7539 -45.752 72.0215 -45.5078 70.9473 -46.2891 L 53.1738 -58.6914 C 53.5645 -60.2051 53.7598 -61.7676 53.7598 -63.4277 C 53.7598 -73.7305 45.3125 -82.2266 34.9609 -82.2266 C 24.5117 -82.2266 16.0645 -73.7793 16.0645 -63.4277 C 16.0645 -53.3691 23.9258 -45.166 33.7402 -44.5312 Z M 44.873 0.78125 L 47.5586 11.6699 C 50.4883 23.7305 57.666 29.8828 69.8242 29.8828 L 140.137 29.8828 C 152.295 29.8828 159.375 23.7793 162.402 11.6699 L 165.088 0.78125 Z"/>
  </g>
  <g id="Heavy-L" transform="matrix(1 0 0 1 2534.2 1556)">
   <path d="M 41.2598 -12.3047 L 164.062 -12.3047 L 171.973 -44.5801 C 181.396 -45.0684 188.916 -52.8809 188.916 -62.4512 C 188.916 -72.2168 180.908 -80.2246 171.094 -80.2246 C 161.23 -80.2246 153.223 -72.2168 153.223 -62.4512 C 153.223 -60.2539 153.613 -58.2031 154.346 -56.25 L 136.865 -44.0918 C 135.547 -43.1152 134.521 -43.4082 133.74 -44.5312 L 112.012 -75.293 C 117.09 -78.4668 120.459 -84.082 120.459 -90.5273 C 120.459 -100.293 112.451 -108.301 102.637 -108.301 C 92.7734 -108.301 84.7656 -100.293 84.7656 -90.5273 C 84.7656 -84.082 88.1836 -78.418 93.2617 -75.293 L 71.7773 -44.873 C 71.0449 -43.8477 70.1172 -43.5547 68.7988 -44.4824 L 50.9277 -56.9824 C 51.4648 -58.6914 51.7578 -60.5469 51.7578 -62.4512 C 51.7578 -72.2168 43.75 -80.2246 33.9355 -80.2246 C 24.0723 -80.2246 16.0645 -72.2168 16.0645 -62.4512 C 16.0645 -52.7344 23.7793 -44.873 33.3496 -44.5801 Z M 44.3848 0.537109 L 46.875 10.5957 C 49.707 22.1191 56.3477 27.9297 68.0176 27.9297 L 137.305 27.9297 C 148.926 27.9297 155.566 22.168 158.398 10.5957 L 160.889 0.537109 Z"/>
  </g>
  <g id="Bold-L" transform="matrix(1 0 0 1 2240.03 1556)">
   <path d="M 41.2109 -10.8398 L 158.984 -10.8398 L 167.236 -44.5801 C 176.27 -44.5801 183.838 -52.0996 183.838 -61.3281 C 183.838 -70.5078 176.318 -78.0273 167.09 -78.0273 C 157.861 -78.0273 150.391 -70.5078 150.391 -61.3281 C 150.391 -58.9844 150.879 -56.7383 151.758 -54.6875 L 134.082 -42.2852 C 132.324 -41.0645 131.055 -41.4551 130.078 -42.8711 L 108.447 -73.8281 C 113.428 -76.7578 116.748 -82.1289 116.748 -88.2812 C 116.748 -97.4609 109.229 -104.98 100.049 -104.98 C 90.8203 -104.98 83.3008 -97.4609 83.3008 -88.2812 C 83.3008 -82.1289 86.6699 -76.709 91.6504 -73.8281 L 70.0684 -42.9688 C 69.1406 -41.6504 68.0176 -41.3086 66.3574 -42.4805 L 48.3398 -55.1758 C 49.0723 -57.0801 49.5117 -59.1797 49.5117 -61.3281 C 49.5117 -70.5078 41.9922 -78.0273 32.8125 -78.0273 C 23.5352 -78.0273 16.0645 -70.5078 16.0645 -61.3281 C 16.0645 -52.0996 23.584 -44.5801 32.8125 -44.5801 L 32.8613 -44.5801 Z M 43.8965 0.292969 L 46.1426 9.42383 C 48.8281 20.3125 54.8828 25.7324 65.9668 25.7324 L 134.131 25.7324 C 145.215 25.7324 151.27 20.3613 153.955 9.42383 L 156.25 0.292969 Z"/>
  </g>
  <g id="Semibold-L" transform="matrix(1 0 0 1 1945.1 1556)">
   <path d="M 41.1133 -9.81445 L 155.469 -9.81445 L 163.965 -44.6289 C 164.111 -44.6289 164.209 -44.6289 164.355 -44.6289 C 173.096 -44.6289 180.273 -51.7578 180.273 -60.5957 C 180.273 -69.3359 173.145 -76.5137 164.355 -76.5137 C 155.566 -76.5137 148.438 -69.2871 148.438 -60.5957 C 148.438 -58.1055 149.023 -55.7129 150 -53.6133 L 132.129 -41.0156 C 130.127 -39.6484 128.711 -40.0879 127.49 -41.6992 L 106.006 -72.8027 C 110.889 -75.5371 114.16 -80.7617 114.16 -86.7676 C 114.16 -95.5078 107.031 -102.686 98.291 -102.686 C 89.4531 -102.686 82.3242 -95.5078 82.3242 -86.7676 C 82.3242 -80.7617 85.6445 -75.5371 90.5273 -72.8027 L 68.8965 -41.6504 C 67.8711 -40.1855 66.5527 -39.7949 64.6973 -41.0645 L 46.4844 -53.9551 C 47.4121 -55.957 47.9492 -58.2031 47.9492 -60.5957 C 47.9492 -69.2871 40.7715 -76.5137 32.0312 -76.5137 C 23.1934 -76.5137 16.0645 -69.3359 16.0645 -60.5957 C 16.0645 -51.7578 23.2422 -44.6289 32.0312 -44.6289 C 32.2266 -44.6289 32.373 -44.6289 32.5684 -44.6289 Z M 43.5547 0.0976562 L 45.6543 8.64258 C 48.1934 19.043 53.9062 24.2188 64.5996 24.2188 L 131.934 24.2188 C 142.627 24.2188 148.291 19.1406 150.879 8.64258 L 152.979 0.0976562 Z"/>
  </g>
  <g id="Medium-L" transform="matrix(1 0 0 1 1649.7 1556)">
   <path d="M 41.0645 -9.0332 L 152.783 -9.0332 L 161.523 -44.6777 C 161.768 -44.6289 162.012 -44.6289 162.256 -44.6289 C 170.703 -44.6289 177.637 -51.5137 177.637 -60.0098 C 177.637 -68.457 170.752 -75.3418 162.256 -75.3418 C 153.809 -75.3418 146.924 -68.4082 146.924 -60.0098 C 146.924 -57.4219 147.607 -54.9805 148.73 -52.832 L 130.664 -40.0879 C 128.467 -38.5742 126.855 -39.0625 125.586 -40.8691 L 104.15 -72.0703 C 108.936 -74.6582 112.207 -79.7363 112.207 -85.5957 C 112.207 -93.9941 105.322 -100.928 96.9238 -100.928 C 88.4277 -100.928 81.543 -94.043 81.543 -85.5957 C 81.543 -79.7363 84.8145 -74.6582 89.6484 -72.0703 L 68.0176 -40.6738 C 66.8457 -39.0625 65.4297 -38.623 63.4277 -40.0391 L 45.0684 -53.0273 C 46.1426 -55.127 46.7285 -57.4707 46.7285 -60.0098 C 46.7285 -68.4082 39.8926 -75.3418 31.4453 -75.3418 C 22.9492 -75.3418 16.0645 -68.457 16.0645 -60.0098 C 16.0645 -51.5137 22.998 -44.6289 31.4453 -44.6289 C 31.7383 -44.6289 32.0312 -44.6777 32.3242 -44.6777 Z M 43.2617 0 L 45.2637 8.00781 C 47.7539 18.1152 53.125 23.0469 63.5254 23.0469 L 130.273 23.0469 C 140.674 23.0469 146.094 18.1641 148.535 8.00781 L 150.537 0 Z"/>
  </g>
  <g id="Regular-L" transform="matrix(1 0 0 1 1354.73 1556)">
   <path d="M 41.0156 -8.00781 L 149.316 -8.00781 L 158.301 -44.7266 C 158.691 -44.6777 159.131 -44.6777 159.57 -44.6777 C 167.578 -44.6777 174.17 -51.2207 174.17 -59.2773 C 174.17 -67.2852 167.627 -73.8281 159.57 -73.8281 C 151.514 -73.8281 145.02 -67.2363 145.02 -59.2773 C 145.02 -56.543 145.752 -54.0039 147.021 -51.8066 L 128.76 -38.8184 C 126.318 -37.1582 124.512 -37.6953 123.047 -39.7461 L 101.709 -71.0938 C 106.445 -73.4863 109.668 -78.418 109.668 -84.082 C 109.668 -92.0898 103.174 -98.6328 95.1172 -98.6328 C 87.0605 -98.6328 80.5176 -92.1387 80.5176 -84.082 C 80.5176 -78.418 83.7891 -73.4863 88.5254 -71.0938 L 66.8945 -39.4043 C 65.5762 -37.5488 64.0137 -37.1094 61.7676 -38.6719 L 43.1641 -51.8555 C 44.4824 -54.0039 45.2148 -56.543 45.2148 -59.2773 C 45.2148 -67.2363 38.6719 -73.8281 30.6641 -73.8281 C 22.6074 -73.8281 16.0645 -67.2852 16.0645 -59.2773 C 16.0645 -51.2207 22.6562 -44.6777 30.6641 -44.6777 C 31.1035 -44.6777 31.543 -44.6777 31.9824 -44.7266 Z M 42.9199 -0.195312 L 44.7754 7.22656 C 47.1191 16.8457 52.1484 21.582 62.1094 21.582 L 128.125 21.582 C 138.135 21.582 143.164 16.9434 145.508 7.22656 L 147.363 -0.195312 Z"/>
  </g>
  <g id="Light-L" transform="matrix(1 0 0 1 1060.43 1556)">
   <path d="M 41.1133 -7.12891 L 144.385 -7.12891 L 153.711 -44.873 C 154.248 -44.8242 154.834 -44.7754 155.371 -44.7754 C 163.037 -44.7754 169.336 -51.0254 169.336 -58.6914 C 169.336 -66.3574 163.086 -72.6562 155.371 -72.6562 C 147.705 -72.6562 141.455 -66.3574 141.455 -58.6914 C 141.455 -55.7129 142.432 -52.9785 144.043 -50.6836 L 126.27 -38.623 C 123.438 -36.7676 121.191 -37.2559 119.336 -39.7461 L 98.4863 -68.9941 C 103.271 -71.1914 106.689 -76.0742 106.689 -81.7383 C 106.689 -89.3555 100.439 -95.6543 92.7734 -95.6543 C 85.0586 -95.6543 78.8086 -89.4043 78.8086 -81.7383 C 78.8086 -76.0742 82.1777 -71.1914 87.0117 -68.9941 L 65.625 -39.209 C 64.0137 -37.0605 62.0605 -36.7188 59.6191 -38.3301 L 41.4062 -50.6836 C 42.9688 -52.9785 43.9453 -55.7129 43.9453 -58.6914 C 43.9453 -66.3574 37.6953 -72.6562 30.0293 -72.6562 C 22.3145 -72.6562 16.0645 -66.3574 16.0645 -58.6914 C 16.0645 -51.0254 22.3633 -44.7754 30.0293 -44.7754 C 30.6152 -44.7754 31.2012 -44.8242 31.7871 -44.873 Z M 42.7734 -0.390625 L 44.5312 6.83594 C 46.8262 16.1621 51.5625 20.459 61.0352 20.459 L 124.463 20.459 C 133.936 20.459 138.672 16.2598 140.967 6.83594 L 142.725 -0.390625 Z"/>
  </g>
  <g id="Thin-L" transform="matrix(1 0 0 1 766.896 1556)">
   <path d="M 41.2598 -5.9082 L 137.939 -5.9082 L 147.607 -45.0684 C 148.34 -44.9707 149.121 -44.873 149.902 -44.873 C 157.08 -44.873 162.988 -50.7812 162.988 -57.959 C 162.988 -65.1855 157.08 -71.0449 149.902 -71.0449 C 142.676 -71.0449 136.816 -65.1855 136.816 -57.959 C 136.816 -54.5898 138.086 -51.5137 140.234 -49.1699 L 122.998 -38.3301 C 119.629 -36.2305 116.797 -36.7188 114.453 -39.7461 L 93.9941 -66.2598 C 99.0723 -68.0664 102.686 -72.9004 102.686 -78.5645 C 102.686 -85.7422 96.7773 -91.6504 89.5996 -91.6504 C 82.373 -91.6504 76.5137 -85.791 76.5137 -78.5645 C 76.5137 -72.9004 80.127 -68.0664 85.2051 -66.2598 L 63.9648 -38.9648 C 61.9629 -36.4258 59.4727 -36.2305 56.7871 -37.8906 L 38.8184 -49.1699 C 40.9668 -51.5137 42.2363 -54.5898 42.2363 -57.959 C 42.2363 -65.1855 36.377 -71.0449 29.1504 -71.0449 C 21.9727 -71.0449 16.0645 -65.1855 16.0645 -57.959 C 16.0645 -50.7812 21.9727 -44.873 29.1504 -44.873 C 29.9805 -44.873 30.8105 -44.9707 31.5918 -45.1172 Z M 42.5781 -0.634766 L 44.2871 6.29883 C 46.4844 15.2832 50.8301 18.9941 59.5703 18.9941 L 119.629 18.9941 C 128.369 18.9941 132.715 15.332 134.912 6.29883 L 136.621 -0.634766 Z"/>
  </g>
  <g id="Ultralight-L" transform="matrix(1 0 0 1 471.82 1556)">
   <path d="M 41.3574 -5.32227 L 134.619 -5.32227 L 144.482 -45.2148 C 145.312 -45.0195 146.191 -44.9707 147.07 -44.9707 C 154.053 -44.9707 159.717 -50.6348 159.717 -57.6172 C 159.717 -64.5508 154.053 -70.2637 147.07 -70.2637 C 140.137 -70.2637 134.424 -64.5508 134.424 -57.6172 C 134.424 -53.9551 135.986 -50.6836 138.428 -48.3398 L 121.338 -38.1836 C 117.676 -35.9375 114.551 -36.4258 111.914 -39.7949 L 91.6016 -64.8438 C 96.8262 -66.4062 100.635 -71.2402 100.635 -76.9531 C 100.635 -83.9355 94.9707 -89.5996 87.9883 -89.5996 C 81.0059 -89.5996 75.3418 -83.9355 75.3418 -76.9531 C 75.3418 -71.2402 79.1504 -66.4062 84.375 -64.8438 L 63.0859 -38.8184 C 60.9375 -36.084 58.1055 -35.9375 55.3223 -37.6465 L 37.3535 -48.3887 C 39.8438 -50.6836 41.3574 -53.9551 41.3574 -57.6172 C 41.3574 -64.5508 35.6934 -70.2637 28.7109 -70.2637 C 21.7773 -70.2637 16.0645 -64.5508 16.0645 -57.6172 C 16.0645 -50.6348 21.7773 -44.9707 28.7109 -44.9707 C 29.6387 -44.9707 30.5664 -45.0684 31.4453 -45.2637 Z M 42.4805 -0.732422 L 44.1406 6.00586 C 46.2891 14.8438 50.4395 18.2617 58.7891 18.2617 L 117.139 18.2617 C 125.488 18.2617 129.688 14.8438 131.836 6.00586 L 133.496 -0.732422 Z"/>
  </g>
  <g id="Black-M" transform="matrix(1 0 0 1 2850.42 1126)">
   <path d="M 32.2266 -19.7754 L 134.229 -19.7754 L 139.795 -42.5293 C 147.51 -43.457 153.516 -50.0977 153.516 -58.1055 C 153.516 -66.6992 146.533 -73.6816 137.939 -73.6816 C 129.297 -73.6816 122.266 -66.6992 122.266 -58.1055 C 122.266 -56.6406 122.461 -55.2246 122.852 -53.8574 L 110.107 -45.4102 C 109.57 -45.0684 109.082 -45.1172 108.691 -45.6055 L 91.7969 -67.9199 C 95.9961 -70.7031 98.8281 -75.5371 98.8281 -81.0059 C 98.8281 -89.5996 91.7969 -96.582 83.2031 -96.582 C 74.5605 -96.582 67.5293 -89.5996 67.5293 -81.0059 C 67.5293 -75.5371 70.3613 -70.7031 74.6094 -67.8711 L 58.2031 -46.2402 C 57.8125 -45.752 57.3242 -45.7031 56.7871 -46.0449 L 43.4082 -54.9316 C 43.6035 -55.957 43.7012 -57.0312 43.7012 -58.1055 C 43.7012 -66.6992 36.7188 -73.6816 28.125 -73.6816 C 19.4824 -73.6816 12.4512 -66.6992 12.4512 -58.1055 C 12.4512 -49.9512 18.7012 -43.2129 26.6602 -42.4805 Z M 35.3027 -7.12891 L 37.6465 2.29492 C 40.0879 12.3047 46.1426 17.2363 55.957 17.2363 L 110.449 17.2363 C 120.264 17.2363 126.318 12.3047 128.809 2.29492 L 131.104 -7.12891 Z"/>
  </g>
  <g id="Heavy-M" transform="matrix(1 0 0 1 2555.56 1126)">
   <path d="M 32.1289 -18.5547 L 130.518 -18.5547 L 136.377 -42.4805 C 143.848 -43.1641 149.805 -49.4629 149.805 -57.1777 C 149.805 -65.2344 143.213 -71.8262 135.107 -71.8262 C 127.002 -71.8262 120.41 -65.2344 120.41 -57.1777 C 120.41 -55.6152 120.654 -54.0527 121.094 -52.6367 L 108.008 -43.7012 C 107.178 -43.1152 106.543 -43.2617 106.055 -43.9453 L 89.1602 -67.041 C 93.2617 -69.6777 95.9473 -74.2188 95.9473 -79.4434 C 95.9473 -87.5 89.3555 -94.1406 81.2988 -94.1406 C 73.1445 -94.1406 66.5527 -87.5488 66.5527 -79.4434 C 66.5527 -74.2188 69.2871 -69.6289 73.3887 -67.041 L 56.8359 -44.4336 C 56.3965 -43.75 55.7617 -43.6035 54.9805 -44.1406 L 41.3574 -53.4668 C 41.6992 -54.6387 41.8457 -55.8594 41.8457 -57.1777 C 41.8457 -65.2344 35.2539 -71.8262 27.1973 -71.8262 C 19.043 -71.8262 12.4512 -65.2344 12.4512 -57.1777 C 12.4512 -49.3652 18.5547 -42.9688 26.2207 -42.4805 Z M 34.8633 -7.32422 L 36.9629 1.26953 C 39.2578 10.6934 44.873 15.4297 54.2969 15.4297 L 108.301 15.4297 C 117.725 15.4297 123.291 10.7422 125.635 1.26953 L 127.734 -7.32422 Z"/>
  </g>
  <g id="Bold-M" transform="matrix(1 0 0 1 2260.95 1126)">
   <path d="M 31.9824 -17.2363 L 126.367 -17.2363 L 132.568 -42.4805 C 139.795 -42.7734 145.605 -48.7793 145.605 -56.1523 C 145.605 -63.623 139.502 -69.7266 131.982 -69.7266 C 124.463 -69.7266 118.311 -63.623 118.311 -56.1523 C 118.311 -54.4434 118.652 -52.7832 119.189 -51.2695 L 105.664 -41.7969 C 104.541 -41.0156 103.711 -41.2598 103.076 -42.1387 L 86.2305 -66.0645 C 90.1367 -68.457 92.7734 -72.8027 92.7734 -77.7344 C 92.7734 -85.2051 86.6699 -91.3574 79.1504 -91.3574 C 71.582 -91.3574 65.4785 -85.2051 65.4785 -77.7344 C 65.4785 -72.8027 68.1152 -68.457 72.0215 -66.0645 L 55.3711 -42.3828 C 54.7363 -41.5527 54.0039 -41.3086 52.9297 -42.041 L 39.0625 -51.8066 C 39.502 -53.1738 39.7461 -54.6387 39.7461 -56.1523 C 39.7461 -63.623 33.6426 -69.7266 26.123 -69.7266 C 18.5547 -69.7266 12.4512 -63.623 12.4512 -56.1523 C 12.4512 -48.6816 18.4082 -42.6758 25.7812 -42.4805 Z M 34.3262 -7.56836 L 36.2305 0.0976562 C 38.3789 8.93555 43.457 13.3301 52.3926 13.3301 L 105.908 13.3301 C 114.844 13.3301 119.873 8.98438 122.07 0.0976562 L 123.975 -7.56836 Z"/>
  </g>
  <g id="Semibold-M" transform="matrix(1 0 0 1 1965.68 1126)">
   <path d="M 31.8848 -16.3086 L 123.486 -16.3086 L 129.883 -42.4805 C 136.914 -42.4805 142.725 -48.2422 142.725 -55.4199 C 142.725 -62.5 136.963 -68.3105 129.785 -68.3105 C 122.705 -68.3105 116.895 -62.5 116.895 -55.4199 C 116.895 -53.6133 117.236 -51.9043 117.92 -50.3418 L 104.004 -40.4785 C 102.734 -39.5508 101.807 -39.8438 101.074 -40.8691 L 84.2285 -65.3809 C 87.9883 -67.627 90.5762 -71.7773 90.5762 -76.5625 C 90.5762 -83.5938 84.7656 -89.4531 77.6855 -89.4531 C 70.5078 -89.4531 64.7461 -83.6426 64.7461 -76.5625 C 64.7461 -71.7773 67.2852 -67.627 71.0938 -65.3809 L 54.3457 -41.0156 C 53.6621 -39.9902 52.832 -39.6973 51.5137 -40.625 L 37.4023 -50.6836 C 37.9883 -52.1484 38.2812 -53.7598 38.2812 -55.4199 C 38.2812 -62.5 32.5195 -68.3105 25.3906 -68.3105 C 18.2617 -68.3105 12.4512 -62.5 12.4512 -55.4199 C 12.4512 -48.2422 18.2617 -42.4805 25.3906 -42.4805 L 25.4395 -42.4805 Z M 33.9844 -7.71484 L 35.6934 -0.683594 C 37.7441 7.66602 42.4316 11.9141 51.0742 11.9141 L 104.248 11.9141 C 112.891 11.9141 117.578 7.76367 119.629 -0.683594 L 121.387 -7.71484 Z"/>
  </g>
  <g id="Medium-M" transform="matrix(1 0 0 1 1670.07 1126)">
   <path d="M 31.8359 -15.5762 L 121.338 -15.5762 L 127.93 -42.4805 C 127.979 -42.4805 128.076 -42.4805 128.174 -42.4805 C 134.961 -42.4805 140.527 -48.0469 140.527 -54.8828 C 140.527 -61.6699 135.01 -67.2363 128.174 -67.2363 C 121.338 -67.2363 115.82 -61.6211 115.82 -54.8828 C 115.82 -53.0273 116.211 -51.2207 116.943 -49.6582 L 102.783 -39.4531 C 101.318 -38.4277 100.293 -38.7695 99.5117 -39.9414 L 82.666 -64.8438 C 86.377 -66.9922 88.916 -71.0449 88.916 -75.6348 C 88.916 -82.4219 83.3496 -87.9883 76.5625 -87.9883 C 69.6777 -87.9883 64.1602 -82.4219 64.1602 -75.6348 C 64.1602 -71.0449 66.6992 -66.9922 70.4102 -64.8438 L 53.5645 -39.9414 C 52.7832 -38.8184 51.9043 -38.4766 50.4883 -39.502 L 36.1328 -49.8535 C 36.8164 -51.3672 37.207 -53.0762 37.207 -54.8828 C 37.207 -61.6211 31.6406 -67.2363 24.8535 -67.2363 C 18.0176 -67.2363 12.4512 -61.6699 12.4512 -54.8828 C 12.4512 -48.0469 18.0176 -42.4805 24.8535 -42.4805 C 24.9512 -42.4805 25.0977 -42.4805 25.1953 -42.4805 Z M 33.6914 -7.8125 L 35.3027 -1.31836 C 37.3047 6.73828 41.6992 10.8398 50.0977 10.8398 L 103.027 10.8398 C 111.426 10.8398 115.82 6.83594 117.773 -1.31836 L 119.385 -7.8125 Z"/>
  </g>
  <g id="Regular-M" transform="matrix(1 0 0 1 1374.77 1126)">
   <path d="M 31.7383 -14.6484 L 118.506 -14.6484 L 125.293 -42.5293 C 125.537 -42.4805 125.781 -42.4805 126.025 -42.4805 C 132.422 -42.4805 137.695 -47.7051 137.695 -54.1992 C 137.695 -60.5957 132.471 -65.8203 126.025 -65.8203 C 119.629 -65.8203 114.404 -60.5469 114.404 -54.1992 C 114.404 -52.1973 114.893 -50.3418 115.723 -48.7305 L 101.172 -38.1348 C 99.5117 -36.9629 98.3887 -37.4023 97.4609 -38.7207 L 80.6152 -64.209 C 84.2285 -66.1621 86.7188 -70.0195 86.7188 -74.4629 C 86.7188 -80.8105 81.4941 -86.084 75.0977 -86.084 C 68.6035 -86.084 63.4277 -80.8594 63.4277 -74.4629 C 63.4277 -70.0195 65.918 -66.1621 69.5312 -64.209 L 52.5391 -38.5742 C 51.709 -37.3047 50.7324 -36.9141 49.0723 -38.0859 L 34.4238 -48.7793 C 35.3027 -50.3906 35.7422 -52.1973 35.7422 -54.1992 C 35.7422 -60.5469 30.5664 -65.8203 24.1211 -65.8203 C 17.6758 -65.8203 12.4512 -60.5957 12.4512 -54.1992 C 12.4512 -47.7051 17.7246 -42.4805 24.1211 -42.4805 C 24.3652 -42.4805 24.6094 -42.4805 24.8535 -42.5293 Z M 33.3496 -7.95898 L 34.8145 -2.09961 C 36.6699 5.51758 40.7227 9.42383 48.7793 9.42383 L 101.367 9.42383 C 109.473 9.42383 113.477 5.61523 115.381 -2.09961 L 116.846 -7.95898 Z"/>
  </g>
  <g id="Light-M" transform="matrix(1 0 0 1 1080.21 1126)">
   <path d="M 31.8359 -13.8184 L 114.111 -13.8184 L 121.191 -42.627 C 121.533 -42.5781 121.924 -42.5781 122.266 -42.5781 C 128.369 -42.5781 133.398 -47.5586 133.398 -53.6621 C 133.398 -59.7656 128.418 -64.7461 122.266 -64.7461 C 116.211 -64.7461 111.23 -59.7656 111.23 -53.6621 C 111.23 -51.4648 111.865 -49.4141 112.939 -47.7051 L 98.9746 -37.9395 C 96.9238 -36.5723 95.4102 -37.0117 94.1406 -38.7207 L 77.7832 -62.3535 C 81.4453 -64.1113 84.0332 -67.9199 84.0332 -72.3145 C 84.0332 -78.3691 79.0527 -83.3984 72.9492 -83.3984 C 66.7969 -83.3984 61.8652 -78.418 61.8652 -72.3145 C 61.8652 -67.9199 64.4043 -64.1602 68.1152 -62.3535 L 51.416 -38.3789 C 50.293 -36.8652 48.9746 -36.5723 47.168 -37.793 L 32.9102 -47.7539 C 33.9844 -49.4629 34.6191 -51.5137 34.6191 -53.6621 C 34.6191 -59.7656 29.6387 -64.7461 23.5352 -64.7461 C 17.4316 -64.7461 12.4512 -59.7656 12.4512 -53.6621 C 12.4512 -47.5586 17.4316 -42.5781 23.5352 -42.5781 C 23.9258 -42.5781 24.3652 -42.5781 24.707 -42.627 Z M 33.2031 -8.1543 L 34.6191 -2.44141 C 36.4258 4.93164 40.2344 8.44727 47.8027 8.44727 L 98.0957 8.44727 C 105.664 8.44727 109.473 4.98047 111.279 -2.44141 L 112.695 -8.1543 Z"/>
  </g>
  <g id="Thin-M" transform="matrix(1 0 0 1 786.354 1126)">
   <path d="M 31.9824 -12.7441 L 108.301 -12.7441 L 115.723 -42.8223 C 116.26 -42.7246 116.797 -42.6758 117.334 -42.6758 C 123.047 -42.6758 127.686 -47.3145 127.686 -53.0273 C 127.686 -58.6914 123.047 -63.3301 117.334 -63.3301 C 111.67 -63.3301 107.031 -58.6914 107.031 -53.0273 C 107.031 -50.4883 107.959 -48.1445 109.473 -46.3379 L 96.0449 -37.6953 C 93.5059 -36.1328 91.4551 -36.4746 89.7461 -38.7207 L 73.8281 -59.8633 C 77.6855 -61.377 80.4688 -65.1367 80.4688 -69.4824 C 80.4688 -75.1465 75.7812 -79.834 70.1172 -79.834 C 64.4531 -79.834 59.7656 -75.1953 59.7656 -69.4824 C 59.7656 -65.1367 62.5488 -61.377 66.4062 -59.8633 L 49.9023 -38.1836 C 48.4863 -36.2793 46.6309 -36.084 44.6289 -37.4023 L 30.6641 -46.3867 C 32.1777 -48.1445 33.1055 -50.4883 33.1055 -53.0273 C 33.1055 -58.6914 28.4668 -63.3301 22.8027 -63.3301 C 17.0898 -63.3301 12.4512 -58.6914 12.4512 -53.0273 C 12.4512 -47.3145 17.0898 -42.6758 22.8027 -42.6758 C 23.3887 -42.6758 23.9746 -42.7246 24.5117 -42.8223 Z M 33.0566 -8.34961 L 34.375 -2.92969 C 36.084 4.10156 39.5508 7.12891 46.4844 7.12891 L 93.75 7.12891 C 100.684 7.12891 104.15 4.15039 105.859 -2.92969 L 107.227 -8.34961 Z"/>
  </g>
  <g id="Ultralight-M" transform="matrix(1 0 0 1 491.108 1126)">
   <path d="M 32.0312 -12.207 L 105.322 -12.207 L 112.939 -42.9199 C 113.525 -42.8223 114.16 -42.7246 114.844 -42.7246 C 120.312 -42.7246 124.756 -47.2168 124.756 -52.6855 C 124.756 -58.1543 120.312 -62.6465 114.844 -62.6465 C 109.375 -62.6465 104.883 -58.1543 104.883 -52.6855 C 104.883 -49.9512 106.006 -47.4609 107.812 -45.6543 L 94.5312 -37.5488 C 91.748 -35.8398 89.4531 -36.2305 87.5 -38.7695 L 71.7285 -58.5938 C 75.7324 -59.8633 78.6133 -63.623 78.6133 -68.0664 C 78.6133 -73.5352 74.1211 -77.9785 68.6523 -77.9785 C 63.2324 -77.9785 58.7402 -73.5352 58.7402 -68.0664 C 58.7402 -63.6719 61.6211 -59.9121 65.625 -58.5938 L 49.1699 -38.0371 C 47.5098 -35.9863 45.459 -35.8887 43.3105 -37.1582 L 29.3945 -45.6543 C 31.2012 -47.4609 32.3242 -49.9512 32.3242 -52.6855 C 32.3242 -58.1543 27.8809 -62.6465 22.4121 -62.6465 C 16.9434 -62.6465 12.4512 -58.1543 12.4512 -52.6855 C 12.4512 -47.2168 16.9434 -42.7246 22.4121 -42.7246 C 23.0957 -42.7246 23.7793 -42.8223 24.4141 -42.9688 Z M 32.959 -8.44727 L 34.2773 -3.17383 C 35.9375 3.71094 39.209 6.44531 45.8008 6.44531 L 91.5527 6.44531 C 98.1445 6.44531 101.416 3.71094 103.076 -3.17383 L 104.395 -8.44727 Z"/>
  </g>
  <g id="Black-S" transform="matrix(1 0 0 1 2868.48 696)">
   <path d="M 25.2441 -23.0469 L 104.932 -23.0469 L 109.326 -40.9668 C 115.381 -41.6504 120.068 -46.8262 120.068 -53.0762 C 120.068 -59.7656 114.6 -65.2344 107.91 -65.2344 C 101.172 -65.2344 95.7031 -59.7656 95.7031 -53.0762 C 95.7031 -51.9043 95.8496 -50.8301 96.1426 -49.7559 L 86.1328 -43.0664 C 85.6934 -42.7734 85.3027 -42.8223 85.0098 -43.2129 L 71.7773 -60.791 C 75.0488 -62.9883 77.2461 -66.748 77.2461 -70.9961 C 77.2461 -77.6855 71.7773 -83.1543 65.0879 -83.1543 C 58.3496 -83.1543 52.8809 -77.6855 52.8809 -70.9961 C 52.8809 -66.748 55.0781 -62.9395 58.3984 -60.791 L 45.5078 -43.7012 C 45.2148 -43.3105 44.8242 -43.2617 44.3848 -43.5547 L 33.8867 -50.5859 C 34.0332 -51.3672 34.1309 -52.1973 34.1309 -53.0762 C 34.1309 -59.7656 28.6621 -65.2344 21.9727 -65.2344 C 15.2344 -65.2344 9.76562 -59.7656 9.76562 -53.0762 C 9.76562 -46.7285 14.6484 -41.5039 20.8496 -40.918 Z M 27.6367 -13.2324 L 29.4434 -5.9082 C 31.3477 1.9043 36.084 5.76172 43.75 5.76172 L 86.4258 5.76172 C 94.0918 5.76172 98.7793 1.9043 100.732 -5.9082 L 102.539 -13.2324 Z"/>
  </g>
  <g id="Heavy-S" transform="matrix(1 0 0 1 2572.97 696)">
   <path d="M 25.1465 -22.2168 L 102.588 -22.2168 L 107.178 -40.918 C 113.037 -41.4062 117.676 -46.3867 117.676 -52.4414 C 117.676 -58.7402 112.5 -63.916 106.152 -63.916 C 99.8047 -63.916 94.6289 -58.7402 94.6289 -52.4414 C 94.6289 -51.2207 94.8242 -50.0488 95.166 -48.9746 L 84.7656 -41.7969 C 84.1797 -41.3574 83.6914 -41.4551 83.3496 -41.9922 L 70.0684 -60.3516 C 73.2422 -62.4023 75.3418 -65.9668 75.3418 -70.0684 C 75.3418 -76.3672 70.166 -81.543 63.8672 -81.543 C 57.4707 -81.543 52.2949 -76.3672 52.2949 -70.0684 C 52.2949 -65.9668 54.4434 -62.4023 57.6172 -60.3516 L 44.6289 -42.334 C 44.2871 -41.8457 43.8477 -41.6992 43.2129 -42.1387 L 32.4707 -49.5605 C 32.7148 -50.4883 32.8125 -51.416 32.8125 -52.4414 C 32.8125 -58.7402 27.6367 -63.916 21.3379 -63.916 C 14.9414 -63.916 9.76562 -58.7402 9.76562 -52.4414 C 9.76562 -46.2891 14.5508 -41.3086 20.5566 -40.918 Z M 27.2949 -13.3789 L 28.9551 -6.64062 C 30.7617 0.732422 35.1562 4.44336 42.5781 4.44336 L 85.1562 4.44336 C 92.5781 4.44336 96.9238 0.78125 98.7793 -6.64062 L 100.439 -13.3789 Z"/>
  </g>
  <g id="Bold-S" transform="matrix(1 0 0 1 2277.58 696)">
   <path d="M 25.0488 -21.2891 L 99.9512 -21.2891 L 104.736 -40.8691 C 110.449 -41.1621 115.039 -45.8984 115.039 -51.709 C 115.039 -57.6172 110.205 -62.4512 104.248 -62.4512 C 98.291 -62.4512 93.4082 -57.6172 93.4082 -51.709 C 93.4082 -50.3906 93.6523 -49.1699 94.043 -48.0469 L 83.252 -40.332 C 82.4707 -39.7461 81.9336 -39.9414 81.4941 -40.5762 L 68.2129 -59.8145 C 71.2402 -61.7188 73.2422 -65.1367 73.2422 -68.9941 C 73.2422 -74.9023 68.4082 -79.7852 62.5 -79.7852 C 56.4941 -79.7852 51.6602 -74.9512 51.6602 -68.9941 C 51.6602 -65.1367 53.7109 -61.7188 56.7383 -59.8145 L 43.6035 -40.8203 C 43.2129 -40.1855 42.7246 -39.9902 41.8945 -40.5762 L 30.8594 -48.4375 C 31.2012 -49.4629 31.3477 -50.5859 31.3477 -51.709 C 31.3477 -57.6172 26.5137 -62.4512 20.6055 -62.4512 C 14.5996 -62.4512 9.76562 -57.6172 9.76562 -51.709 C 9.76562 -45.8496 14.4043 -41.0645 20.2148 -40.8691 Z M 26.9043 -13.5254 L 28.418 -7.51953 C 30.127 -0.537109 34.1309 2.97852 41.2109 2.97852 L 83.7402 2.97852 C 90.8691 2.97852 94.8242 -0.488281 96.582 -7.51953 L 98.0469 -13.5254 Z"/>
  </g>
  <g id="Semibold-S" transform="matrix(1 0 0 1 1981.79 696)">
   <path d="M 24.9512 -20.6543 L 98.1445 -20.6543 L 103.076 -40.8691 C 108.545 -40.8691 113.184 -45.5078 113.184 -51.1719 C 113.184 -56.8359 108.594 -61.4746 102.881 -61.4746 C 97.2168 -61.4746 92.627 -56.8359 92.627 -51.1719 C 92.627 -49.8535 92.8711 -48.584 93.3105 -47.4121 L 82.1777 -39.3555 C 81.2988 -38.6719 80.7129 -38.916 80.2246 -39.5996 L 66.8945 -59.4727 C 69.8242 -61.2793 71.7773 -64.5508 71.7773 -68.2617 C 71.7773 -73.877 67.1875 -78.5156 61.5234 -78.5156 C 55.8105 -78.5156 51.2207 -73.9258 51.2207 -68.2617 C 51.2207 -64.5508 53.2227 -61.2793 56.2012 -59.4727 L 42.9199 -39.7461 C 42.4805 -39.0625 41.9434 -38.8184 40.9668 -39.502 L 29.7363 -47.6562 C 30.127 -48.7793 30.3711 -49.9512 30.3711 -51.1719 C 30.3711 -56.8359 25.7324 -61.4746 20.0684 -61.4746 C 14.3555 -61.4746 9.76562 -56.8359 9.76562 -51.1719 C 9.76562 -45.5078 14.3555 -40.918 19.9707 -40.8691 Z M 26.6602 -13.623 L 28.0273 -8.05664 C 29.6387 -1.46484 33.3984 2.00195 40.332 2.00195 L 82.7637 2.00195 C 89.6484 2.00195 93.4082 -1.41602 95.0195 -8.05664 L 96.3867 -13.623 Z"/>
  </g>
  <g id="Medium-S" transform="matrix(1 0 0 1 1685.76 696)">
   <path d="M 24.9023 -20.1172 L 96.7773 -20.1172 L 101.807 -40.8691 C 101.855 -40.8691 101.855 -40.8691 101.855 -40.8691 C 107.324 -40.8691 111.816 -45.3125 111.816 -50.8301 C 111.816 -56.25 107.373 -60.6934 101.855 -60.6934 C 96.4355 -60.6934 91.9922 -56.2012 91.9922 -50.8301 C 91.9922 -49.4141 92.2363 -48.0957 92.7734 -46.9238 L 81.3965 -38.5742 C 80.4199 -37.8418 79.7363 -38.1348 79.248 -38.8672 L 65.8691 -59.1797 C 68.75 -60.9375 70.7031 -64.0625 70.7031 -67.7246 C 70.7031 -73.1445 66.2598 -77.5879 60.791 -77.5879 C 55.3223 -77.5879 50.8789 -73.1934 50.8789 -67.7246 C 50.8789 -64.0625 52.832 -60.8887 55.7617 -59.1797 L 42.3828 -38.9648 C 41.8945 -38.2324 41.3574 -37.8906 40.2832 -38.6719 L 28.8574 -47.0703 C 29.3457 -48.2422 29.5898 -49.5117 29.5898 -50.8301 C 29.5898 -56.2012 25.1465 -60.6934 19.6777 -60.6934 C 14.209 -60.6934 9.76562 -56.25 9.76562 -50.8301 C 9.76562 -45.3125 14.2578 -40.8691 19.6777 -40.8691 L 19.7754 -40.8691 Z M 26.4648 -13.6719 L 27.7344 -8.49609 C 29.2969 -2.14844 32.8613 1.2207 39.5996 1.2207 L 81.9824 1.2207 C 88.7695 1.2207 92.2852 -2.05078 93.8965 -8.49609 L 95.166 -13.6719 Z"/>
  </g>
  <g id="Regular-S" transform="matrix(1 0 0 1 1389.98 696)">
   <path d="M 24.8047 -19.4824 L 94.9707 -19.4824 L 100.195 -40.8691 C 100.293 -40.8691 100.439 -40.8691 100.537 -40.8691 C 105.713 -40.8691 109.961 -45.0684 109.961 -50.293 C 109.961 -55.4688 105.762 -59.7168 100.537 -59.7168 C 95.3613 -59.7168 91.1621 -55.4199 91.1621 -50.293 C 91.1621 -48.877 91.4551 -47.5098 92.041 -46.2891 L 80.3711 -37.5977 C 79.248 -36.7676 78.5645 -37.1094 77.9785 -37.9395 L 64.5508 -58.8379 C 67.334 -60.4492 69.2383 -63.4766 69.2383 -66.9922 C 69.2383 -72.1191 65.0391 -76.3672 59.8633 -76.3672 C 54.6387 -76.3672 50.4395 -72.168 50.4395 -66.9922 C 50.4395 -63.4766 52.3438 -60.4492 55.1758 -58.8379 L 41.6992 -37.8906 C 41.2109 -37.1094 40.5762 -36.7188 39.4043 -37.5977 L 27.6855 -46.3379 C 28.2715 -47.5586 28.5645 -48.877 28.5645 -50.293 C 28.5645 -55.4199 24.3652 -59.7168 19.1895 -59.7168 C 13.9648 -59.7168 9.76562 -55.4688 9.76562 -50.293 C 9.76562 -45.0684 14.0137 -40.8691 19.1895 -40.8691 C 19.3359 -40.8691 19.4336 -40.8691 19.5801 -40.8691 Z M 26.2207 -13.8184 L 27.3438 -9.08203 C 28.8574 -3.02734 32.1289 0.244141 38.7207 0.244141 L 81.0547 0.244141 C 87.5977 0.244141 90.8691 -2.92969 92.3828 -9.08203 L 93.5547 -13.8184 Z"/>
  </g>
  <g id="Light-S" transform="matrix(1 0 0 1 1095.17 696)">
   <path d="M 24.9023 -18.7988 L 91.0645 -18.7988 L 96.5332 -40.9668 C 96.7773 -40.9668 97.0215 -40.9668 97.2656 -40.9668 C 102.148 -40.9668 106.152 -44.9219 106.152 -49.8535 C 106.152 -54.7852 102.197 -58.7402 97.2656 -58.7402 C 92.334 -58.7402 88.3789 -54.7363 88.3789 -49.8535 C 88.3789 -48.2422 88.8184 -46.7285 89.5508 -45.4102 L 78.418 -37.4512 C 76.9531 -36.4258 75.8789 -36.7676 75.0488 -37.9395 L 62.0605 -57.1777 C 64.8926 -58.6426 66.8457 -61.6699 66.8457 -65.0879 C 66.8457 -69.9707 62.8906 -73.9746 57.959 -73.9746 C 53.0762 -73.9746 49.0723 -70.0195 49.0723 -65.0879 C 49.0723 -61.6699 51.0254 -58.6426 53.9062 -57.1777 L 40.7227 -37.7441 C 39.9414 -36.6699 39.0625 -36.4258 37.6953 -37.3535 L 26.3672 -45.4102 C 27.1484 -46.7285 27.5879 -48.2422 27.5879 -49.8535 C 27.5879 -54.7363 23.584 -58.7402 18.7012 -58.7402 C 13.7695 -58.7402 9.76562 -54.7852 9.76562 -49.8535 C 9.76562 -44.9219 13.7695 -40.9668 18.7012 -40.9668 C 18.9453 -40.9668 19.1895 -40.9668 19.4336 -40.9668 Z M 26.0742 -13.9648 L 27.1973 -9.42383 C 28.6621 -3.56445 31.6895 -0.634766 37.8418 -0.634766 L 78.125 -0.634766 C 84.2773 -0.634766 87.3047 -3.4668 88.7695 -9.42383 L 89.8926 -13.9648 Z"/>
  </g>
  <g id="Thin-S" transform="matrix(1 0 0 1 800.978 696)">
   <path d="M 25 -17.8223 L 85.9375 -17.8223 L 91.6992 -41.1621 C 92.0898 -41.0645 92.4805 -41.0645 92.8711 -41.0645 C 97.4121 -41.0645 101.123 -44.7754 101.123 -49.3164 C 101.123 -53.8086 97.4121 -57.5195 92.8711 -57.5195 C 88.3789 -57.5195 84.668 -53.8086 84.668 -49.3164 C 84.668 -47.3633 85.3027 -45.6055 86.4258 -44.1895 L 75.8301 -37.207 C 73.9258 -36.0352 72.4121 -36.3281 71.1426 -37.9883 L 58.5938 -54.9805 C 61.6211 -56.25 63.7207 -59.1797 63.7207 -62.5977 C 63.7207 -67.1387 60.0098 -70.8496 55.4688 -70.8496 C 50.9277 -70.8496 47.2656 -67.1387 47.2656 -62.5977 C 47.2656 -59.1797 49.3652 -56.25 52.3438 -54.9805 L 39.4043 -37.5977 C 38.3301 -36.1816 37.0117 -35.9863 35.4492 -37.0117 L 24.4629 -44.1895 C 25.5859 -45.6055 26.2207 -47.3633 26.2207 -49.3164 C 26.2207 -53.8086 22.5586 -57.5195 18.0176 -57.5195 C 13.4766 -57.5195 9.76562 -53.8086 9.76562 -49.3164 C 9.76562 -44.7754 13.4766 -41.0645 18.0176 -41.0645 C 18.457 -41.0645 18.8477 -41.0645 19.2871 -41.1621 Z M 25.9277 -14.1113 L 27.002 -9.81445 C 28.3691 -4.24805 31.1523 -1.80664 36.6699 -1.80664 L 74.3164 -1.80664 C 79.834 -1.80664 82.6172 -4.19922 83.9844 -9.81445 L 85.0586 -14.1113 Z"/>
  </g>
  <g id="Ultralight-S" transform="matrix(1 0 0 1 505.561 696)">
   <path d="M 25.0977 -17.334 L 83.3008 -17.334 L 89.209 -41.2109 C 89.6973 -41.1621 90.1855 -41.1133 90.6738 -41.1133 C 94.9707 -41.1133 98.5352 -44.6289 98.5352 -48.9746 C 98.5352 -53.3203 94.9707 -56.8848 90.6738 -56.8848 C 86.3281 -56.8848 82.7637 -53.3203 82.7637 -48.9746 C 82.7637 -46.9238 83.5938 -45.0195 84.9121 -43.6035 L 74.4629 -37.1094 C 72.3633 -35.791 70.6055 -36.084 69.1406 -37.9883 L 56.7871 -53.8574 C 59.8633 -54.9316 62.1094 -57.9102 62.1094 -61.3281 C 62.1094 -65.6738 58.5449 -69.2383 54.1992 -69.2383 C 49.8535 -69.2383 46.2891 -65.6738 46.2891 -61.3281 C 46.2891 -57.9102 48.5352 -54.9316 51.6113 -53.8574 L 38.7207 -37.4512 C 37.5 -35.8887 35.9375 -35.791 34.2773 -36.8164 L 23.3887 -43.6035 C 24.707 -45.0195 25.5371 -46.9238 25.5371 -48.9746 C 25.5371 -53.3203 22.0215 -56.8848 17.6758 -56.8848 C 13.3301 -56.8848 9.76562 -53.3203 9.76562 -48.9746 C 9.76562 -44.6289 13.3301 -41.1133 17.6758 -41.1133 C 18.1641 -41.1133 18.7012 -41.1621 19.1895 -41.2598 Z M 25.8301 -14.2578 L 26.9043 -10.0586 C 28.2227 -4.58984 30.8105 -2.39258 36.084 -2.39258 L 72.3145 -2.39258 C 77.5879 -2.39258 80.1758 -4.58984 81.543 -10.0586 L 82.5684 -14.2578 Z"/>
  </g>
 </g>
</svg>
